<svg xmlns="http://www.w3.org/2000/svg" width="31" height="34" viewBox="0 0 31 34" fill="none">
  <path d="M30.4843 24.3333C30.4234 25.2478 30.011 25.9559 29.2309 26.4281C28.5141 26.8622 27.7836 27.2737 27.0592 27.6952C27.0374 27.7078 27.0166 27.7221 26.9953 27.7357C26.6999 27.9058 26.4038 28.075 26.1095 28.247C26.0378 28.2889 25.9568 28.3177 25.8998 28.383L25.9003 28.3827C25.7438 28.4507 25.5953 28.5329 25.4602 28.6383L25.4607 28.6379C25.3041 28.7058 25.1558 28.7882 25.0205 28.8935L25.021 28.8932C24.9001 28.9345 24.797 29.008 24.6915 29.0773C24.6619 29.1071 24.6145 29.1108 24.5897 29.1474C24.4635 29.184 24.3604 29.2633 24.2518 29.3325C24.1784 29.3787 24.105 29.4248 24.0316 29.4711C23.9461 29.4866 23.8813 29.5413 23.8121 29.588C23.3838 29.8346 22.9504 30.0724 22.5288 30.3303C22.1649 30.5527 21.7956 30.765 21.4278 30.9803C20.7042 31.4039 19.9829 31.8315 19.2517 32.2413C18.4319 32.7006 17.6253 33.1832 16.8099 33.6501C16.4456 33.8587 16.056 33.9796 15.6365 34C15.5457 34 15.4549 34 15.3641 34C14.9374 33.9784 14.5421 33.8562 14.1724 33.6396C13.424 33.2007 12.6727 32.7668 11.9227 32.3304C11.8963 32.3151 11.8711 32.2976 11.8454 32.2811C11.8542 32.2484 11.8608 32.2151 11.8723 32.1834C12.1047 31.541 12.3375 30.8988 12.5702 30.2566C12.5711 30.3013 12.6115 30.3068 12.6385 30.3226C13.5025 30.8256 14.3681 31.3258 15.2303 31.8317C15.4187 31.9423 15.5898 31.9389 15.7765 31.8286C16.3462 31.4918 16.9203 31.1626 17.4922 30.8295C17.8108 30.6439 18.1283 30.4565 18.4463 30.27C18.4615 30.263 18.4772 30.2571 18.4917 30.2487C19.0576 29.9205 19.6234 29.5924 20.1888 29.2635C20.6956 28.9686 21.2019 28.6725 21.7084 28.3769C21.8159 28.3156 21.9243 28.2554 22.0312 28.1927C22.3567 28.0022 22.6817 27.8107 23.0069 27.6196C23.0272 27.6101 23.0485 27.6023 23.0678 27.591C23.8918 27.1123 24.716 26.6335 25.5395 26.1539C25.7805 26.0135 26.0199 25.8704 26.2602 25.7287C26.2681 25.7263 26.2771 25.7253 26.2842 25.721C26.9063 25.3598 27.5291 24.9995 28.1497 24.6355C28.2745 24.5623 28.3465 24.4453 28.3692 24.2998C28.3903 24.2662 28.3841 24.2283 28.3841 24.192C28.3844 19.4077 28.3844 14.6232 28.3841 9.83888C28.3841 9.80263 28.3912 9.76485 28.3699 9.73116C28.3484 9.56626 28.2566 9.45514 28.1156 9.37329C26.6599 8.52925 25.2053 7.68333 23.7504 6.83792C21.0917 5.29295 18.4326 3.74849 15.7745 2.20232C15.5832 2.09103 15.4091 2.08014 15.2078 2.19739C11.9055 4.1215 8.60042 6.04051 5.2957 7.96054C4.494 8.42646 3.6923 8.89239 2.89009 9.3573C2.75024 9.4383 2.65859 9.55231 2.63153 9.71482C2.60904 9.75124 2.61648 9.79191 2.61648 9.83088C2.61615 14.6181 2.61615 19.4053 2.61648 24.1926C2.61648 24.2288 2.60921 24.2666 2.63069 24.3003C2.65132 24.4614 2.73925 24.5736 2.87707 24.6532C3.38825 24.9486 3.89826 25.2463 4.40945 25.5417C4.52105 25.6062 4.62809 25.6792 4.74697 25.7309C4.6007 26.1373 4.45511 26.5438 4.30782 26.9498C4.21262 27.2126 4.11505 27.4745 4.01849 27.7367C3.25433 27.2931 2.48357 26.8601 1.72786 26.4022C1.1049 26.0246 0.723918 25.4598 0.566148 24.7432C0.53757 24.6132 0.525733 24.4824 0.51694 24.3506C0.517785 24.2856 0.519307 24.2205 0.519307 24.1555C0.519307 19.3842 0.519307 14.6132 0.519307 9.84194C0.519307 9.78255 0.517447 9.72316 0.516602 9.66377C0.577308 8.75013 0.987883 8.03592 1.77166 7.57629C4.2346 6.13172 6.70701 4.70331 9.17587 3.26878C10.8461 2.2983 12.5166 1.32799 14.1868 0.357505C14.51 0.169637 14.8556 0.0513692 15.2279 0.0154633C15.2413 0.0141019 15.2565 0.0168246 15.2638 0.000488281C15.4216 0.000488281 15.5793 0.000488281 15.7373 0.000488281C15.846 0.0217596 15.9551 0.0416695 16.0635 0.0643021C16.3161 0.117225 16.5525 0.21252 16.7757 0.34202C20.1493 2.29983 23.5226 4.2578 26.8962 6.21561C27.6561 6.65669 28.4167 7.09641 29.1756 7.5392C29.8503 7.9328 30.2763 8.51155 30.4368 9.28191C30.4628 9.40716 30.4689 9.53648 30.4843 9.66394C30.4835 9.72622 30.4816 9.78834 30.4816 9.85062C30.4816 14.619 30.4816 19.3873 30.4816 24.1558C30.4816 24.2152 30.4835 24.2746 30.4845 24.334L30.4843 24.3333Z" fill="white"/>
  <path d="M19.9635 8.76302C20.1536 8.74822 20.2872 8.93694 20.2182 9.134C20.0989 9.47536 19.9731 9.81434 19.85 10.1542C17.8254 15.7448 15.8008 21.3354 13.776 26.9258C13.3738 28.036 12.9717 29.146 12.5694 30.2562C12.3366 30.8984 12.1037 31.5406 11.8716 32.183C11.8601 32.2147 11.8536 32.248 11.8447 32.2807C11.8017 32.2821 11.7725 32.252 11.7393 32.2327C10.7024 31.6315 9.66599 31.0296 8.62924 30.4279C8.61487 30.4196 8.59931 30.4131 8.58426 30.4056C8.57293 30.3692 8.59441 30.3391 8.60557 30.3081C10.4264 25.2848 12.2481 20.2621 14.0697 15.239C14.8009 13.2228 15.5322 11.2068 16.2622 9.19049C16.3437 8.96519 16.4861 8.8151 16.7288 8.77647C16.7371 8.77783 16.7454 8.78021 16.7536 8.78021C17.7997 8.78021 18.8457 8.77987 19.892 8.77936C19.9168 8.77936 19.9432 8.78413 19.9633 8.76268L19.9635 8.76302Z" fill="white"/>
  <path d="M14.4524 8.76534C14.6284 8.73063 14.7931 8.92002 14.7014 9.1746C14.483 9.78058 14.2625 10.3859 14.0428 10.9915C12.0997 16.3485 10.1565 21.7054 8.21392 27.0627C7.9136 27.8909 7.61565 28.7202 7.31583 29.5486C7.30383 29.5816 7.304 29.6228 7.26646 29.6428C6.20806 29.0284 5.14966 28.414 4.09194 27.7985C4.06506 27.7829 4.02447 27.7791 4.01855 27.7366C4.11511 27.4744 4.21268 27.2125 4.30788 26.9497C4.45517 26.5437 4.60077 26.1372 4.74704 25.7308C4.95503 25.1602 5.16387 24.59 5.37085 24.0191C7.16432 19.071 8.95762 14.123 10.7508 9.17477C10.8292 8.95848 10.9719 8.81775 11.2029 8.77844C11.2112 8.77963 11.2197 8.78168 11.228 8.78168C12.2728 8.78134 13.3179 8.78066 14.3627 8.7798C14.3932 8.7798 14.4251 8.78661 14.4525 8.76551L14.4524 8.76534Z" fill="white"/>
  <path d="M0.51626 9.66357C0.517275 9.72296 0.518966 9.78235 0.518966 9.84174C0.518966 14.613 0.518966 19.384 0.518966 24.1553C0.518966 24.2203 0.517444 24.2854 0.516598 24.3505C0.492079 24.2933 0.502901 24.2329 0.502901 24.1742C0.502056 23.1193 0.502225 22.0644 0.502225 21.0095C0.502225 17.292 0.502225 13.5744 0.502901 9.85672C0.502901 9.79239 0.490726 9.72637 0.51626 9.66357Z" fill="white"/>
  <path d="M30.4843 24.3336C30.4833 24.2742 30.4814 24.2148 30.4814 24.1554C30.4814 19.3871 30.4814 14.6188 30.4814 9.85025C30.4814 9.78797 30.4831 9.72586 30.4842 9.66357C30.5063 9.70629 30.4975 9.75274 30.4975 9.79733C30.4985 10.1348 30.4982 10.4722 30.4982 10.8097C30.4982 15.2533 30.4982 19.6968 30.4975 24.1405C30.4975 24.2048 30.5099 24.2708 30.4843 24.3336Z" fill="white"/>
  <path d="M25.8996 28.3832C25.9566 28.3178 26.0376 28.2891 26.1093 28.2472C26.4037 28.0752 26.6996 27.906 26.995 27.7358C26.997 27.7612 26.9771 27.769 26.9605 27.7787C26.6176 27.978 26.2745 28.1773 25.931 28.376C25.9221 28.3811 25.9101 28.381 25.8994 28.3833L25.8996 28.3832Z" fill="white"/>
  <path d="M25.46 28.6384C25.5951 28.5331 25.7435 28.4509 25.9001 28.3828C25.7613 28.4819 25.6149 28.5674 25.46 28.6384Z" fill="white"/>
  <path d="M25.0205 28.8938C25.1556 28.7884 25.3041 28.7061 25.4607 28.6382C25.322 28.7376 25.1749 28.8218 25.0205 28.8938Z" fill="white"/>
  <path d="M24.6914 29.0777C24.7969 29.0084 24.9001 28.9351 25.021 28.8936C24.918 28.9674 24.8148 29.0409 24.6914 29.0777Z" fill="white"/>
  <path d="M24.252 29.3326C24.3605 29.2635 24.4637 29.1842 24.5898 29.1475C24.4809 29.216 24.3784 29.2965 24.252 29.3326Z" fill="white"/>
  <path d="M23.8115 29.5881C23.8807 29.5415 23.9455 29.4867 24.031 29.4712C23.962 29.5182 23.8974 29.5735 23.8115 29.5881Z" fill="white"/>
  <path d="M23.0069 27.6193C22.8468 27.1809 22.6856 26.7429 22.5265 26.304C21.3993 23.1942 20.2725 20.0841 19.1448 16.9744C19.0833 16.8046 19.0831 16.6392 19.1452 16.4685C19.6783 15.0005 20.2096 13.5316 20.7416 12.063C20.8028 11.8938 20.8893 11.8229 21.0306 11.8242C21.1493 11.8253 21.2466 11.896 21.2877 12.0092C22.1167 14.2972 22.9458 16.5851 23.7754 18.8729C24.5946 21.1314 25.4144 23.3895 26.2338 25.6478C26.2435 25.6744 26.2514 25.7016 26.2602 25.7285C26.0201 25.8703 25.7806 26.0134 25.5397 26.1538C24.7162 26.6333 23.892 27.1122 23.0679 27.5908C23.0487 27.6021 23.0274 27.6101 23.0071 27.6194L23.0069 27.6193Z" fill="white"/>
  <path d="M18.4457 30.2699C18.1778 29.5273 17.9105 28.7847 17.642 28.0422C17.2233 26.8849 16.8046 25.7274 16.3835 24.5709C16.322 24.4016 16.3189 24.2411 16.3815 24.0694C16.9184 22.5968 17.451 21.1224 17.9851 19.6487C18.053 19.4614 18.1939 19.3793 18.3554 19.4333C18.4584 19.4677 18.5101 19.5471 18.5456 19.6455C18.7624 20.247 18.9812 20.8479 19.199 21.4491C20.0286 23.7396 20.8579 26.0303 21.6873 28.3209C21.6941 28.3395 21.7009 28.358 21.7076 28.3766C21.2012 28.6722 20.6949 28.9681 20.1881 29.2632C19.6228 29.5921 19.0568 29.9202 18.491 30.2485C18.4766 30.2568 18.4607 30.2628 18.4455 30.2697L18.4457 30.2699Z" fill="white"/>
  <path d="M2.63159 9.71453C2.6321 9.7683 2.63294 9.82207 2.63294 9.87585C2.63294 14.6301 2.63294 19.3843 2.63294 24.1385C2.63294 24.1923 2.63142 24.246 2.63058 24.2998C2.60927 24.2661 2.61637 24.2283 2.61637 24.1921C2.61603 19.4049 2.61603 14.6176 2.61637 9.83041C2.61637 9.79144 2.6091 9.7506 2.63142 9.71436L2.63159 9.71453Z" fill="white"/>
  <path d="M28.3689 24.2996C28.3684 24.2458 28.3672 24.192 28.3672 24.1382C28.3672 19.3896 28.3672 14.641 28.3672 9.89228C28.3672 9.8385 28.3687 9.78473 28.3694 9.73096C28.3907 9.76465 28.3836 9.80243 28.3836 9.83867C28.3839 14.623 28.3839 19.4075 28.3836 24.1918C28.3836 24.2281 28.3898 24.2659 28.3687 24.2996H28.3689Z" fill="white"/>
  <path d="M14.4517 8.76517C14.4243 8.78627 14.3924 8.77947 14.3619 8.77947C13.3171 8.78032 12.272 8.78083 11.2272 8.78134C11.2189 8.78134 11.2104 8.7793 11.2021 8.7781C11.2329 8.75871 11.2674 8.76313 11.3007 8.76313C12.3427 8.76279 13.3846 8.76279 14.4265 8.76296C14.435 8.76296 14.4433 8.76449 14.4517 8.76534V8.76517Z" fill="white"/>
  <path d="M19.964 8.76331C19.9439 8.78475 19.9175 8.77998 19.8927 8.77998C18.8466 8.78049 17.8006 8.78066 16.7543 8.78083C16.7461 8.78083 16.7378 8.77828 16.7295 8.77709C16.766 8.75582 16.8064 8.76365 16.8452 8.76348C17.8848 8.76297 18.9244 8.76314 19.964 8.76331Z" fill="white"/>
</svg>