<svg xmlns="http://www.w3.org/2000/svg" width="61" height="60" viewBox="0 0 61 60" fill="none">
  <g filter="url(#filter0_d_23_10642)">
    <path d="M29.9372 2C30.3042 2 30.671 2 31.038 2C31.0839 2.00691 31.1298 2.01805 31.176 2.0201C31.726 2.04467 32.2732 2.09613 32.8181 2.17472C33.8464 2.32307 34.8505 2.56986 35.8299 2.91597C40.8793 4.70003 44.703 8.8777 46.0284 14.065C46.278 15.0418 46.4448 16.033 46.4796 17.0433C46.4809 17.0808 46.4931 17.1178 46.5003 17.1551V18.8703C46.493 18.907 46.4821 18.9434 46.479 18.9805C46.4525 19.2991 46.4357 19.6186 46.4005 19.9361C46.3001 20.8408 46.1122 21.7285 45.8486 22.5994C44.5466 26.9014 41.533 30.439 37.4928 32.4023C35.5703 33.3364 33.5399 33.8606 31.4052 33.9793C31.3678 33.9813 31.331 33.9928 31.2939 33.9999H29.7067C29.6651 33.9928 29.6237 33.9827 29.5817 33.9793C29.4585 33.9693 29.3351 33.9626 29.2117 33.9537C28.2953 33.8871 27.3929 33.7335 26.5029 33.5075C21.5095 32.2391 17.3691 28.5567 15.5254 23.7454C15.0162 22.4168 14.6865 21.0454 14.5457 19.6289C14.5399 19.5713 14.5157 19.5155 14.5001 19.4589C14.5001 19.4248 14.5001 19.3907 14.5001 19.3565C14.5684 19.3554 14.6366 19.3531 14.7048 19.3531C21.6249 19.353 28.5448 19.353 35.4649 19.353C35.5075 19.353 35.5502 19.3541 35.5929 19.3526C35.6258 19.3514 35.6585 19.3469 35.6894 19.3443C35.7155 19.1677 35.7069 16.758 35.679 16.6634H35.5029C28.5488 16.6634 21.5945 16.6634 14.6404 16.6637C14.5936 16.6637 14.5468 16.6669 14.5 16.6687C14.5 16.626 14.5 16.5833 14.5 16.5407C14.5156 16.489 14.5383 16.4381 14.5454 16.3853C14.5822 16.1151 14.6101 15.8435 14.65 15.5738C14.82 14.4266 15.1189 13.3133 15.5392 12.2328C17.8496 6.29581 23.4317 2.29888 29.7996 2.02061C29.8457 2.01856 29.8914 2.00717 29.9372 2Z" fill="white"/>
  </g>
  <defs>
    <filter id="filter0_d_23_10642" x="0.5" y="0" width="60" height="60" filterUnits="userSpaceOnUse" color-interpolation-filters="sRGB">
      <feFlood flood-opacity="0" result="BackgroundImageFix"/>
      <feColorMatrix in="SourceAlpha" type="matrix" values="0 0 0 0 0 0 0 0 0 0 0 0 0 0 0 0 0 0 127 0" result="hardAlpha"/>
      <feOffset dy="12"/>
      <feGaussianBlur stdDeviation="7"/>
      <feComposite in2="hardAlpha" operator="out"/>
      <feColorMatrix type="matrix" values="0 0 0 0 0.192157 0 0 0 0 0.105882 0 0 0 0 0.439216 0 0 0 0.7 0"/>
      <feBlend mode="normal" in2="BackgroundImageFix" result="effect1_dropShadow_23_10642"/>
      <feBlend mode="normal" in="SourceGraphic" in2="effect1_dropShadow_23_10642" result="shape"/>
    </filter>
  </defs>
</svg>