<svg xmlns="http://www.w3.org/2000/svg" width="61" height="61" viewBox="0 0 61 61" fill="none">
  <g filter="url(#filter0_d_23_10649)">
    <path d="M43.8227 15.9674C43.9081 16.0532 43.9935 16.1386 44.0784 16.2244C44.1941 16.393 44.3358 16.5355 44.5048 16.6508C44.8176 16.964 45.1305 17.2769 45.4433 17.5902C45.5556 17.7618 45.7088 17.8936 45.8646 18.023C46.0076 18.2095 46.2086 18.3328 46.3751 18.4937V18.5791C46.2039 18.7199 46.0443 18.8732 45.8983 19.0405C45.7272 19.1378 45.6034 19.2846 45.4839 19.4361C44.8633 20.061 44.2432 20.6862 43.6217 21.3107C43.3887 21.545 43.1467 21.7712 42.9209 22.0119C42.8172 22.1225 42.7562 22.1182 42.6512 22.0119C41.7557 21.1084 40.8547 20.2104 39.9554 19.3106C39.7446 19.0994 39.5406 18.8808 39.3203 18.6794C39.2 18.5693 39.2089 18.5035 39.3203 18.3926C40.2243 17.4976 41.1223 16.5961 42.022 15.6968C42.2316 15.4873 42.4454 15.2811 42.6477 15.0647C42.7442 14.9615 42.8151 14.9358 42.92 15.0528C43.0716 15.2218 43.2359 15.3793 43.3947 15.5415C43.5107 15.7097 43.6516 15.8531 43.8215 15.9674H43.8227Z" fill="white"/>
    <path d="M14.6802 18.8713C14.5786 18.7735 14.4766 18.6762 14.375 18.5785C14.375 18.5499 14.375 18.5217 14.375 18.4931C14.935 17.9383 15.4958 17.3851 16.0541 16.8286C16.632 16.2528 17.212 15.6792 17.7801 15.094C17.9154 14.9549 18.0059 14.9288 18.1262 15.0927C18.1719 15.1546 18.2376 15.202 18.294 15.2562C18.4254 15.4658 18.5974 15.6343 18.8049 15.7684C18.909 15.8776 19.0131 15.9873 19.1177 16.0966C19.218 16.2391 19.3281 16.371 19.4877 16.4508C19.8194 16.788 20.1514 17.1248 20.4831 17.4619C20.5829 17.6045 20.6935 17.7364 20.8531 17.8162C21.0277 17.9925 21.2018 18.1696 21.3772 18.345C21.568 18.5358 21.5689 18.5354 21.3713 18.733C20.4028 19.7005 19.434 20.6677 18.4655 21.6348C18.3349 21.765 18.1992 21.8909 18.0771 22.0288C17.9879 22.1295 17.9171 22.1265 17.8386 22.0262C17.7434 21.8653 17.6187 21.7343 17.454 21.6434C17.4395 21.6289 17.4254 21.6148 17.4109 21.6003C17.2325 21.3523 17.0221 21.1363 16.7715 20.9601C16.6862 20.8747 16.6004 20.7893 16.5146 20.704C16.4373 20.5418 16.2944 20.4411 16.165 20.3275C16.037 20.1713 15.8936 20.0305 15.7399 19.8999C15.6388 19.7868 15.5521 19.6583 15.4062 19.5947C15.3917 19.5802 15.3771 19.5657 15.3626 19.5516C15.1693 19.2904 14.9469 19.0578 14.6793 18.8708L14.6802 18.8713Z" fill="white"/>
    <path d="M26.33 30.5197C26.3014 30.4911 26.2728 30.4625 26.2442 30.4339C26.0786 30.2018 25.8835 29.9986 25.6475 29.8368C25.6189 29.8082 25.5903 29.7796 25.5617 29.7511C25.3961 29.5189 25.2015 29.3153 24.9646 29.1539C24.8792 29.0686 24.7935 28.9832 24.7081 28.8979C24.6014 28.7203 24.4593 28.5782 24.2821 28.4711C24.2535 28.4425 24.225 28.4139 24.1964 28.3853C24.0308 28.1531 23.8357 27.9499 23.5992 27.7882C23.5566 27.7455 23.5135 27.7028 23.4708 27.6601C23.321 27.4403 23.1387 27.2529 22.9168 27.1057C22.8314 27.0203 22.7456 26.935 22.6603 26.8496C22.5536 26.6721 22.4114 26.5299 22.2343 26.4228C22.2057 26.3942 22.1771 26.3656 22.1485 26.337C21.9829 26.1048 21.7883 25.9017 21.5518 25.7403L21.551 25.7386C21.4729 25.5781 21.3291 25.4787 21.2031 25.3622C21.0969 25.241 20.9996 25.1104 20.8523 25.0327C20.749 24.926 20.5779 24.8287 20.5608 24.7096C20.542 24.579 20.7439 24.5043 20.8459 24.4019C21.4059 23.8406 21.968 23.2811 22.5297 22.7211C22.7832 22.5636 22.9701 22.3378 23.1584 22.1129C23.163 22.1022 23.166 22.0911 23.1677 22.0792C23.4371 21.8931 23.6744 21.6754 23.8451 21.392C24.0474 21.2079 24.2594 21.2255 24.481 21.4449C24.6035 21.6349 24.7555 21.7953 24.9505 21.9127C25.0547 22.022 25.1588 22.1317 25.2629 22.2409C25.3632 22.3835 25.4734 22.5154 25.633 22.5952C25.9177 22.8799 26.2019 23.165 26.4866 23.4496C26.6206 23.6562 26.7896 23.8282 26.9979 23.9605C27.1021 24.0698 27.2066 24.1795 27.3108 24.2888C27.4111 24.4313 27.5212 24.5632 27.6808 24.643C28.0125 24.9802 28.3445 25.3169 28.6761 25.6541C28.7764 25.7967 28.8866 25.9281 29.0462 26.0084C29.1503 26.1176 29.2545 26.2273 29.359 26.3366C29.4593 26.4791 29.5695 26.611 29.7291 26.6908C29.8785 26.8423 30.0283 26.9939 30.1777 27.1454C30.3684 27.3387 30.3778 27.3396 30.5656 27.1526C31.33 26.3895 32.094 25.6264 32.8576 24.8624C34.062 23.6575 35.2686 22.4548 36.4675 21.2443C36.5913 21.1197 36.6523 21.1534 36.7539 21.2554C37.3553 21.8594 37.9614 22.4586 38.5657 23.0591C38.6793 23.2008 38.8069 23.3289 38.952 23.439C39.3114 23.8026 39.6635 24.1735 40.0331 24.5261C40.1927 24.6784 40.1496 24.7856 40.022 24.9127C39.6831 25.2504 39.3459 25.5905 39.0075 25.9286C38.2819 26.6537 37.5546 27.3767 36.832 28.104C36.7253 28.2111 36.59 28.2909 36.5128 28.4275C36.3105 28.5504 36.1615 28.7293 36.0113 28.9064C35.1466 29.7762 34.2823 30.6456 33.418 31.5155C33.0842 31.8514 32.7509 32.1877 32.4171 32.524C32.2148 32.647 32.0663 32.8262 31.9152 33.0029C31.447 33.4762 30.9749 33.9453 30.5144 34.4255C30.3996 34.5454 30.3258 34.5437 30.2361 34.4178C30.1008 34.2266 29.9438 34.0571 29.7432 33.9321C29.7005 33.8894 29.6574 33.8467 29.6147 33.804C29.4649 33.5842 29.2826 33.3969 29.0607 33.2496C28.9753 33.1642 28.8895 33.0789 28.8042 32.9935C28.7274 32.8313 28.5839 32.7306 28.4546 32.6171C28.3266 32.4609 28.1836 32.3196 28.0295 32.1894C27.9284 32.0767 27.8422 31.9474 27.6953 31.8842C27.6808 31.8697 27.6663 31.8556 27.6522 31.8411C27.4738 31.5932 27.2638 31.3768 27.0129 31.2013C26.9557 31.1446 26.8985 31.0878 26.8413 31.0306C26.7068 30.824 26.5374 30.6525 26.3304 30.5185L26.33 30.5197Z" fill="white"/>
    <path d="M27.0406 13.0664C26.9552 13.1518 26.8698 13.2376 26.7845 13.323C26.6044 13.4271 26.4635 13.5705 26.3581 13.7493C26.344 13.7639 26.3295 13.7784 26.3154 13.7924C26.0662 13.9696 25.8493 14.1791 25.6752 14.4318C25.6611 14.4463 25.647 14.4608 25.6325 14.4749C25.382 14.6508 25.1673 14.8625 24.9919 15.1138C24.9778 15.1284 24.9633 15.1429 24.9492 15.157C24.7004 15.3345 24.4848 15.5454 24.3086 15.7955C24.1609 16.0055 24.0495 15.874 23.9368 15.7558C23.8502 15.5872 23.7196 15.4626 23.5552 15.3708C23.5126 15.3277 23.4699 15.285 23.4272 15.2419C23.3064 15.0498 23.1502 14.8932 22.9581 14.7733C22.6453 14.4604 22.3324 14.1471 22.0192 13.8343C21.9001 13.6409 21.7413 13.4869 21.5509 13.3644C21.2641 13.078 20.9829 12.7856 20.6875 12.5082C20.5565 12.3853 20.5539 12.2986 20.6922 12.1906C20.7571 12.1398 20.8092 12.072 20.8668 12.0122C21.1899 11.7664 21.4763 11.4838 21.7187 11.1578C22.1169 10.7595 22.5147 10.3613 22.9129 9.96269C23.0657 9.88885 23.1762 9.77191 23.2582 9.62594C23.4549 9.42406 23.6517 9.2226 23.8485 9.02072C24.0811 8.88457 24.2591 8.69251 24.4076 8.47099C24.5928 8.28576 24.7776 8.10095 24.9629 7.91572C25.2134 7.73987 25.4294 7.52945 25.6022 7.27593C25.6163 7.26142 25.6308 7.24733 25.6449 7.23282C25.7956 7.15685 25.9065 7.04118 25.9885 6.89522C26.3295 6.55249 26.6705 6.21019 27.0111 5.86746C27.3176 5.63357 27.5907 5.36681 27.8203 5.05652C28.0056 4.87171 28.1912 4.68691 28.3765 4.5021C28.6834 4.26863 28.9557 4.00102 29.1857 3.69116C29.5408 3.33776 29.8955 2.98351 30.2527 2.63182C30.2967 2.58871 30.3338 2.50036 30.423 2.56951C30.5383 2.7381 30.6915 2.86998 30.8447 3.00144C30.9028 3.11582 31.0291 3.15808 31.1076 3.25112C31.219 3.42312 31.3748 3.55202 31.5272 3.68433C32.0701 4.22254 32.6126 4.76117 33.1555 5.29938C33.2669 5.47138 33.4226 5.60028 33.575 5.73259C33.6331 5.84697 33.7594 5.88923 33.8379 5.98227C33.9493 6.15428 34.1051 6.28317 34.2575 6.41548C34.5844 6.74114 34.916 7.06295 35.2379 7.39373C35.5951 7.76078 35.9613 8.11845 36.3224 8.48081C36.6284 8.78811 36.9229 9.10993 37.2511 9.39589C37.3625 9.56789 37.5183 9.69679 37.6707 9.8291C38.2136 10.3673 38.756 10.9059 39.2989 11.4441C39.4103 11.6161 39.5661 11.745 39.7185 11.8774C39.8047 12.0092 39.9379 12.0933 40.0548 12.1906C40.1957 12.3076 40.1829 12.3844 40.0582 12.5078C39.0992 13.4574 38.1466 14.4135 37.1918 15.3674C37.0462 15.5129 36.8896 15.6499 36.7586 15.8074C36.634 15.9568 36.5576 15.9141 36.441 15.7963C35.7453 15.0912 35.0428 14.393 34.342 13.693C34.018 13.3695 33.6924 13.0468 33.3676 12.7241C33.2323 12.518 33.0616 12.3468 32.8546 12.2124C32.3851 11.7433 31.916 11.2743 31.4465 10.8048C31.2694 10.5551 31.056 10.3413 30.8063 10.1641C30.7094 10.0656 30.6091 9.96952 30.5165 9.86666C30.4538 9.79709 30.3838 9.77148 30.2946 9.79367C30.0978 9.95287 29.9036 10.1142 29.7696 10.334C29.6842 10.4198 29.5989 10.5052 29.5135 10.591C29.3334 10.6951 29.1925 10.8385 29.0871 11.0173C29.073 11.0318 29.0589 11.0464 29.0444 11.0604C28.7956 11.238 28.5779 11.4467 28.4042 11.6998C28.3901 11.7143 28.3756 11.7284 28.3615 11.7429C28.1114 11.9192 27.8963 12.1305 27.7213 12.3823C27.7068 12.3968 27.6927 12.4109 27.6786 12.4254C27.4285 12.6017 27.2139 12.8138 27.0389 13.0647L27.0406 13.0664Z" fill="white"/>
    <path d="M29.1345 20.9737C28.3457 20.1876 27.5579 19.4005 26.767 18.6161C26.7089 18.5584 26.697 18.5192 26.7597 18.4598C26.8314 18.392 26.8967 18.3169 26.9646 18.2447C27.0692 18.2187 27.1225 18.1282 27.1912 18.0599C28.1439 17.1103 29.0948 16.1585 30.0457 15.2071C30.2529 15 30.4623 14.9838 30.674 15.1585C31.2229 15.7108 31.7713 16.2631 32.3202 16.8153C32.8486 17.3472 33.3736 17.8828 33.9088 18.4078C34.0172 18.514 33.9984 18.5708 33.9058 18.6634C32.7683 19.797 31.6322 20.9319 30.4994 22.0698C30.4025 22.1671 30.3338 22.1769 30.2378 22.0736C30.1025 21.9281 29.9565 21.7932 29.8148 21.6537C29.604 21.4112 29.3825 21.1795 29.1345 20.9742V20.9737Z" fill="white"/>
    <path d="M30.6742 15.1578C30.4625 14.9831 30.2531 14.9993 30.046 15.2065C29.0946 16.1578 28.1441 17.1096 27.1915 18.0593C27.1228 18.1276 27.0694 18.218 26.9648 18.2441C27.0758 18.0315 27.276 17.8979 27.436 17.7315C27.9802 17.1655 28.5385 16.6132 29.0989 16.0635C29.4826 15.6871 29.8714 15.3153 30.2329 14.9171C30.3119 14.83 30.387 14.8189 30.466 14.8979C30.5445 14.976 30.6529 15.0328 30.6742 15.1578Z" fill="white"/>
    <path d="M21.7191 11.1582C21.4767 11.4843 21.1899 11.7664 20.8672 12.0127C21.1258 11.7028 21.4122 11.4203 21.7191 11.1582Z" fill="white"/>
    <path d="M29.1862 3.69238C28.9561 4.00225 28.6838 4.26986 28.377 4.50332C28.6202 4.20669 28.8921 3.93822 29.1862 3.69238Z" fill="white"/>
    <path d="M27.8209 5.05762C27.5918 5.36833 27.3182 5.63466 27.0117 5.86855C27.2533 5.57021 27.5273 5.30431 27.8209 5.05762Z" fill="white"/>
    <path d="M29.1348 20.9736C29.3827 21.1789 29.6043 21.4107 29.8151 21.6531C29.5445 21.4709 29.3145 21.2472 29.1348 20.9736Z" fill="white"/>
    <path d="M14.6797 18.8711C14.9469 19.0585 15.1692 19.2906 15.363 19.5519C15.1078 19.3521 14.8837 19.1221 14.6797 18.8711Z" fill="white"/>
    <path d="M23.8443 21.3926C23.6736 21.676 23.4363 21.8937 23.167 22.0797C23.371 21.8292 23.6104 21.6132 23.8443 21.3926Z" fill="white"/>
    <path d="M24.9922 15.1145C25.1676 14.8631 25.3823 14.6514 25.6328 14.4756C25.445 14.7142 25.2316 14.9276 24.9922 15.1145Z" fill="white"/>
    <path d="M28.4062 11.7014C28.5795 11.4483 28.7976 11.2396 29.0465 11.062C28.8595 11.3019 28.6448 11.5136 28.4062 11.7014Z" fill="white"/>
    <path d="M25.6023 7.27686C25.429 7.52995 25.213 7.74037 24.9629 7.91664C25.1503 7.67763 25.3649 7.46593 25.6023 7.27686Z" fill="white"/>
    <path d="M27.7227 12.3835C27.8976 12.1317 28.1128 11.9208 28.3629 11.7441C28.1746 11.9827 27.9625 12.197 27.7227 12.3835Z" fill="white"/>
    <path d="M24.3086 15.7967C24.4849 15.5466 24.7004 15.3358 24.9492 15.1582C24.7627 15.3985 24.5493 15.611 24.3086 15.7967Z" fill="white"/>
    <path d="M27.04 13.0666C27.215 12.8152 27.4297 12.6035 27.6798 12.4272C27.4937 12.6675 27.2791 12.8792 27.04 13.0666Z" fill="white"/>
    <path d="M16.7715 20.9609C17.022 21.1368 17.2324 21.3527 17.4108 21.6012C17.1706 21.4151 16.9584 21.2008 16.7715 20.9609Z" fill="white"/>
    <path d="M27.0117 31.2026C27.2627 31.3781 27.4727 31.5944 27.6511 31.8424C27.4108 31.6563 27.1987 31.4421 27.0117 31.2026Z" fill="white"/>
    <path d="M25.6748 14.4323C25.8485 14.1797 26.0658 13.9701 26.315 13.793C26.1276 14.032 25.9138 14.245 25.6748 14.4323Z" fill="white"/>
    <path d="M30.8076 10.165C31.0573 10.3422 31.2707 10.556 31.4478 10.8057C31.2092 10.6175 30.9946 10.4053 30.8076 10.165Z" fill="white"/>
    <path d="M23.157 22.1133C22.9688 22.3382 22.7814 22.564 22.5283 22.7215C22.7183 22.4987 22.9082 22.275 23.157 22.1133Z" fill="white"/>
    <path d="M23.5986 27.7886C23.8351 27.9499 24.0297 28.1531 24.1957 28.3857C23.97 28.2137 23.7719 28.0135 23.5986 27.7886Z" fill="white"/>
    <path d="M21.5508 25.7407C21.7872 25.9021 21.9819 26.1052 22.1475 26.3374C21.9217 26.1654 21.7245 25.9652 21.5508 25.7407Z" fill="white"/>
    <path d="M24.9639 29.1543C25.2003 29.3156 25.3949 29.5192 25.561 29.7514C25.3352 29.579 25.1372 29.3792 24.9639 29.1543Z" fill="white"/>
    <path d="M25.6465 29.8369C25.8825 29.9987 26.0776 30.2014 26.2432 30.434C26.0174 30.2616 25.8193 30.0618 25.6465 29.8369Z" fill="white"/>
    <path d="M22.916 27.106C23.1384 27.2532 23.3202 27.4406 23.47 27.6604C23.2592 27.5016 23.0748 27.3164 22.916 27.106Z" fill="white"/>
    <path d="M24.4078 8.47168C24.2588 8.69319 24.0808 8.88526 23.8486 9.02141C24.0159 8.81868 24.1986 8.63131 24.4078 8.47168Z" fill="white"/>
    <path d="M29.0596 33.251C29.2819 33.3982 29.4638 33.5856 29.6136 33.8054C29.4027 33.6466 29.2183 33.4614 29.0596 33.251Z" fill="white"/>
    <path d="M29.7705 10.3353C29.9045 10.1155 30.0992 9.95412 30.2955 9.79492C30.158 10.0117 29.9711 10.1803 29.7705 10.3353Z" fill="white"/>
    <path d="M18.8048 15.7685C18.5974 15.6345 18.425 15.4663 18.2939 15.2563C18.489 15.4023 18.6601 15.5722 18.8048 15.7685Z" fill="white"/>
    <path d="M26.9976 23.9616C26.7894 23.8293 26.6203 23.6573 26.4863 23.4507C26.6822 23.5954 26.853 23.7657 26.9976 23.9616Z" fill="white"/>
    <path d="M32.8564 12.2134C33.0634 12.3478 33.2337 12.519 33.3695 12.7251C33.1723 12.5809 33.0003 12.411 32.8564 12.2134Z" fill="white"/>
    <path d="M26.3291 30.5195C26.5361 30.6535 26.706 30.8251 26.84 31.0317C26.6437 30.887 26.4729 30.7163 26.3291 30.5195Z" fill="white"/>
    <path d="M29.7432 33.9331C29.9438 34.0582 30.1008 34.2276 30.2361 34.4188C30.0402 34.2891 29.8823 34.1205 29.7432 33.9331Z" fill="white"/>
    <path d="M36.0107 28.9081C36.161 28.7305 36.3099 28.5521 36.5122 28.4292C36.3727 28.6178 36.2224 28.795 36.0107 28.9081Z" fill="white"/>
    <path d="M31.915 33.0043C32.0661 32.8276 32.2142 32.6483 32.417 32.5254C32.277 32.7136 32.1272 32.8916 31.915 33.0043Z" fill="white"/>
    <path d="M24.95 21.9131C24.7549 21.7957 24.603 21.6352 24.4805 21.4453C24.6649 21.5729 24.8181 21.7326 24.95 21.9131Z" fill="white"/>
    <path d="M21.5508 13.3647C21.7411 13.4872 21.8999 13.6413 22.019 13.8347C21.8338 13.707 21.6788 13.5491 21.5508 13.3647Z" fill="white"/>
    <path d="M22.958 14.7739C23.1505 14.8943 23.3067 15.0505 23.4271 15.2426C23.2423 15.1149 23.0869 14.9575 22.958 14.7739Z" fill="white"/>
    <path d="M37.6715 9.83018C37.5191 9.69787 37.3634 9.56898 37.252 9.39697C37.4287 9.50581 37.5802 9.63855 37.6715 9.83018Z" fill="white"/>
    <path d="M29.0889 11.0187C29.1943 10.8398 29.3351 10.6964 29.5152 10.5923C29.3992 10.7604 29.2553 10.9013 29.0889 11.0187Z" fill="white"/>
    <path d="M39.7194 11.8785C39.567 11.7462 39.4112 11.6173 39.2998 11.4453C39.4765 11.5541 39.628 11.6869 39.7194 11.8785Z" fill="white"/>
    <path d="M26.3584 13.7496C26.4638 13.5708 26.6047 13.4274 26.7848 13.3232C26.6687 13.4914 26.5249 13.6323 26.3584 13.7496Z" fill="white"/>
    <path d="M15.7407 19.9008C15.8943 20.0314 16.0377 20.1723 16.1658 20.3285C16.1513 20.3285 16.1372 20.3285 16.1227 20.3289C15.9835 20.2124 15.8529 20.0869 15.7402 19.9439C15.7402 19.9294 15.7402 19.9149 15.7402 19.9004L15.7407 19.9008Z" fill="white"/>
    <path d="M45.8646 18.0221C45.7088 17.8928 45.556 17.7609 45.4434 17.5894C45.6205 17.6978 45.7707 17.8322 45.8646 18.0221Z" fill="white"/>
    <path d="M43.8223 15.9675C43.6524 15.8531 43.5116 15.7097 43.3955 15.5415C43.5739 15.6474 43.7143 15.7912 43.8223 15.9675Z" fill="white"/>
    <path d="M44.5055 16.6505C44.3365 16.5353 44.1948 16.3927 44.0791 16.2241C44.2571 16.3304 44.3992 16.4725 44.5055 16.6505Z" fill="white"/>
    <path d="M22.2334 26.4229C22.4105 26.53 22.5527 26.6721 22.6594 26.8497C22.4916 26.7331 22.3486 26.5919 22.2334 26.4229Z" fill="white"/>
    <path d="M24.2812 28.4717C24.4584 28.5788 24.6005 28.7209 24.7072 28.8985C24.5395 28.782 24.3965 28.6407 24.2812 28.4717Z" fill="white"/>
    <path d="M30.8455 3.00224C30.6923 2.87079 30.5395 2.7389 30.4238 2.57031C30.6014 2.6783 30.755 2.80933 30.8455 3.00224Z" fill="white"/>
    <path d="M31.528 3.68516C31.3756 3.55285 31.2198 3.42396 31.1084 3.25195C31.2851 3.36079 31.4366 3.49353 31.528 3.68516Z" fill="white"/>
    <path d="M28.0287 32.1904C28.1828 32.321 28.3258 32.4618 28.4538 32.618C28.4393 32.618 28.4253 32.618 28.4107 32.6185C28.2716 32.5019 28.141 32.3769 28.0283 32.2335C28.0283 32.219 28.0283 32.2045 28.0283 32.1899L28.0287 32.1904Z" fill="white"/>
    <path d="M33.5758 5.7335C33.4234 5.60119 33.2676 5.4723 33.1562 5.30029C33.3329 5.40913 33.4845 5.54187 33.5758 5.7335Z" fill="white"/>
    <path d="M34.2584 6.41612C34.106 6.28381 33.9503 6.15491 33.8389 5.98291C34.0156 6.09175 34.1671 6.22448 34.2584 6.41612Z" fill="white"/>
    <path d="M45.4834 19.4352C45.6033 19.2841 45.7267 19.1369 45.8978 19.0396C45.7916 19.2047 45.661 19.3447 45.4834 19.4352Z" fill="white"/>
    <path d="M23.5557 15.3716C23.72 15.4629 23.8506 15.588 23.9372 15.7566C23.7836 15.6546 23.6594 15.5231 23.5557 15.3716Z" fill="white"/>
    <path d="M38.9517 23.4404C38.8066 23.3307 38.679 23.2027 38.5654 23.0605C38.7473 23.1331 38.8685 23.2675 38.9517 23.4404Z" fill="white"/>
    <path d="M17.4541 21.6436C17.6188 21.7345 17.7435 21.8655 17.8387 22.0264C17.6837 21.9257 17.5561 21.7976 17.4541 21.6436Z" fill="white"/>
    <path d="M28.4102 32.6186C28.4247 32.6186 28.4388 32.6186 28.4533 32.6182C28.5826 32.7317 28.726 32.8324 28.8028 32.9946C28.6458 32.8969 28.5305 32.7547 28.4102 32.6186Z" fill="white"/>
    <path d="M16.123 20.3286C16.1376 20.3286 16.1516 20.3286 16.1662 20.3281C16.2955 20.4417 16.4385 20.5424 16.5157 20.7046C16.3586 20.6068 16.2434 20.4647 16.123 20.3286Z" fill="white"/>
    <path d="M29.0448 26.0095C28.8852 25.9293 28.7751 25.7974 28.6748 25.6553C28.8344 25.7351 28.9463 25.8657 29.0448 26.0095Z" fill="white"/>
    <path d="M29.7284 26.6926C29.5688 26.6124 29.4587 26.4805 29.3584 26.3384C29.5185 26.4182 29.6294 26.5492 29.7284 26.6926Z" fill="white"/>
    <path d="M19.4882 16.4509C19.3286 16.3707 19.2185 16.2388 19.1182 16.0967C19.2782 16.1765 19.3892 16.3075 19.4882 16.4509Z" fill="white"/>
    <path d="M25.6318 22.596C25.4721 22.5157 25.362 22.3838 25.2617 22.2417C25.4218 22.3215 25.5327 22.4525 25.6318 22.596Z" fill="white"/>
    <path d="M20.8534 17.8167C20.6938 17.7364 20.5837 17.6045 20.4834 17.4624C20.643 17.5426 20.7548 17.6728 20.8534 17.8167Z" fill="white"/>
    <path d="M27.6806 24.6443C27.521 24.5641 27.4108 24.4322 27.3105 24.29C27.4706 24.3699 27.5816 24.5009 27.6806 24.6443Z" fill="white"/>
    <path d="M20.8506 25.0332C20.9978 25.1109 21.0951 25.2415 21.2014 25.3627C21.2014 25.3772 21.2014 25.3917 21.201 25.4058C21.0725 25.2923 20.9317 25.1911 20.8506 25.0332Z" fill="white"/>
    <path d="M21.2021 25.4059C21.2021 25.3914 21.2021 25.3769 21.2026 25.3628C21.3285 25.4793 21.4723 25.5788 21.5504 25.7392C21.4066 25.6573 21.3059 25.5301 21.2021 25.4063V25.4059Z" fill="white"/>
    <path d="M15.741 19.9009C15.741 19.9154 15.741 19.93 15.741 19.9445C15.6172 19.8403 15.49 19.7396 15.4072 19.5962C15.5532 19.6598 15.6403 19.7883 15.741 19.9014V19.9009Z" fill="white"/>
    <path d="M23.2584 9.62646C23.1764 9.77286 23.0655 9.88981 22.9131 9.96322C23.0061 9.82835 23.1145 9.70927 23.2584 9.62646Z" fill="white"/>
    <path d="M25.9891 6.89648C25.9071 7.04203 25.7962 7.15812 25.6455 7.23409C25.7347 7.0958 25.847 6.98099 25.9891 6.89648Z" fill="white"/>
    <path d="M28.0291 32.1904C28.0291 32.2049 28.0291 32.2194 28.0291 32.234C27.9053 32.1298 27.7781 32.0287 27.6953 31.8853C27.8417 31.9484 27.9279 32.0777 28.0295 32.1904H28.0291Z" fill="white"/>
  </g>
  <defs>
    <filter id="filter0_d_23_10649" x="0.375" y="0.543945" width="60" height="59.9717" filterUnits="userSpaceOnUse" color-interpolation-filters="sRGB">
      <feFlood flood-opacity="0" result="BackgroundImageFix"/>
      <feColorMatrix in="SourceAlpha" type="matrix" values="0 0 0 0 0 0 0 0 0 0 0 0 0 0 0 0 0 0 127 0" result="hardAlpha"/>
      <feOffset dy="12"/>
      <feGaussianBlur stdDeviation="7"/>
      <feComposite in2="hardAlpha" operator="out"/>
      <feColorMatrix type="matrix" values="0 0 0 0 0.192157 0 0 0 0 0.105882 0 0 0 0 0.439216 0 0 0 0.7 0"/>
      <feBlend mode="normal" in2="BackgroundImageFix" result="effect1_dropShadow_23_10649"/>
      <feBlend mode="normal" in="SourceGraphic" in2="effect1_dropShadow_23_10649" result="shape"/>
    </filter>
  </defs>
</svg>