<svg xmlns="http://www.w3.org/2000/svg" width="20" height="25" viewBox="0 0 20 25" fill="none">
  <mask id="mask0_30_4378" style="mask-type:luminance" maskUnits="userSpaceOnUse" x="0" y="0" width="20" height="25">
    <path d="M0 0H20V24.6154H0V0Z" fill="white"/>
  </mask>
  <g mask="url(#mask0_30_4378)">
    <path d="M19.7754 6.37844L13.6216 0.224598C13.477 0.0815633 13.2815 0 13.0769 0H6.92308C5.65083 0 4.61538 1.03545 4.61538 2.30769V6.15385H2.30769C1.03545 6.15385 0 7.18929 0 8.46154V22.3077C0 23.5799 1.03545 24.6154 2.30769 24.6154H13.0769C14.3493 24.6154 15.3846 23.5799 15.3846 22.3077V18.4615H17.6923C18.9647 18.4615 20 17.4261 20 16.1538V6.92308C20 6.71845 19.9184 6.52303 19.7754 6.37844ZM13.8462 2.62617L17.3738 6.15385H13.8462V2.62617ZM13.8462 22.3077C13.8462 22.7308 13.5 23.0769 13.0769 23.0769H2.30769C1.88313 23.0769 1.53846 22.7308 1.53846 22.3077V8.46154C1.53846 8.03698 1.88313 7.69231 2.30769 7.69231H7.69231V12.3077C7.69231 13.1554 8.38308 13.8462 9.23077 13.8462H13.8462V22.3077ZM9.23077 12.3077V8.78002L12.7584 12.3077H9.23077ZM18.4615 16.1538C18.4615 16.577 18.1154 16.9231 17.6923 16.9231H15.3846V13.0769C15.3846 12.8723 15.3031 12.6769 15.16 12.5323L9.00617 6.37844C8.86158 6.23541 8.66616 6.15385 8.46154 6.15385H6.15385V2.30769C6.15385 1.88313 6.49852 1.53846 6.92308 1.53846H12.3077V6.15385C12.3077 7.00153 12.9969 7.69231 13.8462 7.69231H18.4615V16.1538Z" fill="#808080"/>
  </g>
</svg>