<svg xmlns="http://www.w3.org/2000/svg" width="25" height="25" viewBox="0 0 25 25" fill="none">
  <path d="M15.6532 4.75977C15.4546 5.11545 15.2776 5.48279 15.1232 5.85977C13.6059 5.61982 12.0604 5.61982 10.5432 5.85977C10.3888 5.48279 10.2118 5.11545 10.0132 4.75977C8.58396 5.00397 7.19457 5.4413 5.88317 6.05977C3.53811 9.44405 2.47461 13.5527 2.88317 17.6498C4.41141 18.7986 6.12663 19.6748 7.95317 20.2398C8.36908 19.6904 8.74027 19.1085 9.06317 18.4998C8.46724 18.28 7.89447 18.002 7.35317 17.6698C7.50163 17.571 7.64207 17.4606 7.77317 17.3398C9.35163 18.1001 11.0811 18.4949 12.8332 18.4949C14.5852 18.4949 16.3147 18.1001 17.8932 17.3398C18.0332 17.4598 18.1732 17.5698 18.3132 17.6698C17.7689 17.9994 17.1967 18.2805 16.6032 18.5098C16.9127 19.1323 17.2739 19.7277 17.6832 20.2898C19.5074 19.7268 21.2197 18.8504 22.7432 17.6998C23.1615 13.602 22.0972 9.48995 19.7432 6.10977C18.4465 5.4785 17.0708 5.02444 15.6532 4.75977V4.75977ZM9.51317 15.3098C9.01275 15.2738 8.54571 15.0455 8.21009 14.6725C7.87447 14.2996 7.69636 13.8112 7.71317 13.3098C7.69383 12.8077 7.87106 12.3178 8.20718 11.9444C8.54331 11.5709 9.01183 11.3432 9.51317 11.3098C10.0145 11.3432 10.483 11.5709 10.8192 11.9444C11.1553 12.3178 11.3325 12.8077 11.3132 13.3098C11.3325 13.8118 11.1553 14.3017 10.8192 14.6752C10.483 15.0486 10.0145 15.2763 9.51317 15.3098V15.3098ZM16.1532 15.3098C15.6528 15.2738 15.1857 15.0455 14.8501 14.6725C14.5145 14.2996 14.3364 13.8112 14.3532 13.3098C14.3338 12.8077 14.5111 12.3178 14.8472 11.9444C15.1833 11.5709 15.6518 11.3432 16.1532 11.3098C16.6554 11.3407 17.1255 11.5677 17.4621 11.9417C17.7988 12.3158 17.9751 12.807 17.9532 13.3098C17.9751 13.8125 17.7988 14.3038 17.4621 14.6778C17.1255 15.0519 16.6554 15.2788 16.1532 15.3098V15.3098Z" fill="white"/>
</svg>