<svg width="25" height="25" viewBox="0 0 25 25" fill="none" xmlns="http://www.w3.org/2000/svg">
<path d="M15.6534 4.75977C15.4548 5.11545 15.2778 5.48279 15.1234 5.85977C13.6062 5.61982 12.0607 5.61982 10.5434 5.85977C10.389 5.48279 10.212 5.11545 10.0134 4.75977C8.5842 5.00397 7.19482 5.4413 5.88341 6.05977C3.53835 9.44405 2.47485 13.5527 2.88341 17.6498C4.41165 18.7986 6.12687 19.6748 7.95341 20.2398C8.36933 19.6904 8.74052 19.1085 9.06341 18.4998C8.46749 18.28 7.89471 18.002 7.35341 17.6698C7.50187 17.571 7.64231 17.4606 7.77341 17.3398C9.35187 18.1001 11.0814 18.4949 12.8334 18.4949C14.5854 18.4949 16.315 18.1001 17.8934 17.3398C18.0334 17.4598 18.1734 17.5698 18.3134 17.6698C17.7692 17.9994 17.197 18.2805 16.6034 18.5098C16.9129 19.1323 17.2742 19.7277 17.6834 20.2898C19.5077 19.7268 21.2199 18.8504 22.7434 17.6998C23.1618 13.602 22.0974 9.48995 19.7434 6.10977C18.4467 5.4785 17.0711 5.02444 15.6534 4.75977ZM9.51341 15.3098C9.013 15.2738 8.54596 15.0455 8.21033 14.6725C7.87471 14.2996 7.69661 13.8112 7.71341 13.3098C7.69407 12.8077 7.8713 12.3178 8.20743 11.9444C8.54355 11.5709 9.01207 11.3432 9.51341 11.3098C10.0148 11.3432 10.4833 11.5709 10.8194 11.9444C11.1555 12.3178 11.3328 12.8077 11.3134 13.3098C11.3328 13.8118 11.1555 14.3017 10.8194 14.6752C10.4833 15.0486 10.0148 15.2763 9.51341 15.3098ZM16.1534 15.3098C15.653 15.2738 15.186 15.0455 14.8503 14.6725C14.5147 14.2996 14.3366 13.8112 14.3534 13.3098C14.3341 12.8077 14.5113 12.3178 14.8474 11.9444C15.1836 11.5709 15.6521 11.3432 16.1534 11.3098C16.6557 11.3407 17.1257 11.5677 17.4624 11.9417C17.799 12.3158 17.9753 12.807 17.9534 13.3098C17.9753 13.8125 17.799 14.3038 17.4624 14.6778C17.1257 15.0519 16.6557 15.2788 16.1534 15.3098Z" fill="#1051F9"/>
</svg>
