<svg xmlns="http://www.w3.org/2000/svg" width="53" height="66" viewBox="0 0 53 66" fill="none">
  <g filter="url(#filter0_d_2005_4323)">
    <path d="M26.4624 2.00524C26.6135 1.97141 26.6194 2.10984 26.6638 2.18113C28.2291 4.69413 29.7913 7.2087 31.3502 9.72534C32.7993 12.064 34.2425 14.4068 35.6917 16.7455C36.5951 18.2032 37.506 19.6571 38.4121 21.1132C38.4485 21.1715 38.471 21.2386 38.4999 21.3011C38.4089 21.2662 38.3163 21.235 38.2274 21.196C36.9946 20.6516 35.7629 20.1057 34.5301 19.5614C32.6161 18.7163 30.7038 17.8675 28.7866 17.0291C28.0315 16.6992 27.2893 16.3401 26.5139 16.0565L26.4962 16.0388C26.4983 15.9956 26.5021 15.9524 26.5021 15.9092C26.5026 11.3682 26.5031 6.82673 26.5031 2.28573C26.5031 2.19102 26.5085 2.09422 26.4619 2.00576L26.4624 2.00524Z" fill="white"/>
    <path d="M26.4618 2.00544C26.5083 2.09442 26.503 2.1907 26.503 2.28541C26.503 6.8264 26.503 11.3679 26.5019 15.9089C26.5019 15.9521 26.4982 15.9953 26.496 16.0385C26.1056 16.2061 25.7136 16.3705 25.3248 16.5417C24.0696 17.0959 22.8159 17.6538 21.5607 18.2086C19.8604 18.96 18.1595 19.7109 16.4577 20.4588C15.8097 20.7434 15.1579 21.0197 14.5078 21.3002C14.858 20.7112 15.1917 20.1122 15.5623 19.5361C16.1401 18.6384 16.7008 17.7314 17.2502 16.817C17.8184 15.872 18.4252 14.9488 19.0073 14.011C19.4801 13.2492 19.9177 12.466 20.4114 11.7171C21.0192 10.7955 21.589 9.85304 22.1631 8.91216C22.9278 7.658 23.7317 6.42726 24.4803 5.16321C25.1128 4.09483 25.7988 3.05612 26.4612 2.00439L26.4618 2.00544Z" fill="white"/>
    <path d="M14.5086 21.3003C15.1587 21.0203 15.8104 20.7435 16.4584 20.4588C18.1603 19.711 19.8611 18.9601 21.5614 18.2086C22.8167 17.6539 24.0704 17.096 25.3256 16.5418C25.7144 16.3701 26.1064 16.2061 26.4968 16.0386C26.4968 16.0386 26.5145 16.0563 26.5139 16.0563C26.5107 16.1603 26.5048 16.2639 26.5048 16.368C26.5048 20.3199 26.5048 24.2713 26.5048 28.2232C25.9656 28.001 25.4884 27.6721 24.9866 27.3869C23.3238 26.4429 21.6669 25.488 20.01 24.5346C18.4211 23.6208 16.8349 22.7033 15.2476 21.7874C15.0339 21.6641 14.8181 21.5449 14.6061 21.419C14.5632 21.3935 14.4716 21.393 14.5086 21.3008V21.3003Z" fill="white"/>
    <path d="M26.5051 28.2231C26.5051 24.2712 26.5046 20.3198 26.5051 16.3679C26.5051 16.2638 26.511 16.1602 26.5142 16.0562C27.2902 16.3403 28.0324 16.6988 28.787 17.0288C30.7042 17.8671 32.6165 18.7159 34.5305 19.561C35.7632 20.1054 36.9949 20.6513 38.2277 21.1956C38.3166 21.2346 38.4093 21.2659 38.5003 21.3007C38.4612 21.473 38.285 21.4891 38.1667 21.5578C36.039 22.7906 33.9066 24.0167 31.7741 25.2417C30.0846 26.2117 28.3934 27.1786 26.7017 28.1455C26.6417 28.1799 26.571 28.1976 26.5057 28.2225L26.5051 28.2231Z" fill="white"/>
    <path d="M26.5013 30.4661C27.3453 29.9857 28.1898 29.5075 29.0322 29.0251C30.3876 28.2492 31.742 27.4707 33.0963 26.6921C34.7259 25.7554 36.3544 24.8166 37.984 23.8799C38.1281 23.7972 38.2764 23.7222 38.4612 23.6738C38.2951 23.9085 38.1323 24.1458 37.9631 24.3784C36.3169 26.6344 34.6713 28.8908 33.0219 31.1452C31.3623 33.4136 29.6984 35.6789 28.0372 37.9463C27.5675 38.5869 27.1022 39.2306 26.6341 39.8723C26.5908 39.9316 26.5795 40.0502 26.4531 39.9774C26.512 39.8827 26.5045 39.777 26.5045 39.6735C26.5045 36.6042 26.5029 33.5354 26.5019 30.4661H26.5013Z" fill="white"/>
    <path d="M26.5014 30.4663C26.5025 33.5356 26.5035 36.6044 26.5041 39.6737C26.5041 39.7773 26.5116 39.8829 26.4527 39.9777C22.4882 34.5499 18.5242 29.1221 14.5244 23.646C14.8275 23.7168 15.0107 23.8838 15.2131 24.0014C15.9527 24.4318 16.6965 24.8564 17.4366 25.2858C18.1483 25.699 18.8739 26.0908 19.5835 26.5082C20.5207 27.0588 21.4637 27.5995 22.4068 28.1386C23.337 28.671 24.2597 29.2163 25.2011 29.7305C25.6381 29.9694 26.0681 30.2202 26.5014 30.4653V30.4663Z" fill="white"/>
  </g>
  <defs>
    <filter id="filter0_d_2005_4323" x="0.5" y="0" width="52" height="66.0005" filterUnits="userSpaceOnUse" color-interpolation-filters="sRGB">
      <feFlood flood-opacity="0" result="BackgroundImageFix"/>
      <feColorMatrix in="SourceAlpha" type="matrix" values="0 0 0 0 0 0 0 0 0 0 0 0 0 0 0 0 0 0 127 0" result="hardAlpha"/>
      <feOffset dy="12"/>
      <feGaussianBlur stdDeviation="7"/>
      <feComposite in2="hardAlpha" operator="out"/>
      <feColorMatrix type="matrix" values="0 0 0 0 0.192157 0 0 0 0 0.105882 0 0 0 0 0.439216 0 0 0 0.7 0"/>
      <feBlend mode="normal" in2="BackgroundImageFix" result="effect1_dropShadow_2005_4323"/>
      <feBlend mode="normal" in="SourceGraphic" in2="effect1_dropShadow_2005_4323" result="shape"/>
    </filter>
  </defs>
</svg>