<svg width="24" height="38" viewBox="0 0 24 38" fill="none" xmlns="http://www.w3.org/2000/svg">
<path d="M11.9624 0.00523548C12.1135 -0.0285904 12.1194 0.109836 12.1638 0.18113C13.7291 2.69413 15.2913 5.2087 16.8502 7.72534C18.2993 10.064 19.7425 12.4068 21.1917 14.7455C22.0951 16.2032 23.006 17.6571 23.9121 19.1132C23.9485 19.1715 23.971 19.2386 23.9999 19.3011C23.9089 19.2662 23.8163 19.235 23.7274 19.196C22.4946 18.6516 21.2629 18.1057 20.0301 17.5614C18.1161 16.7163 16.2038 15.8675 14.2866 15.0291C13.5315 14.6992 12.7893 14.3401 12.0139 14.0565L11.9962 14.0388C11.9983 13.9956 12.0021 13.9524 12.0021 13.9092C12.0026 9.36824 12.0031 4.82673 12.0031 0.28573C12.0031 0.191018 12.0085 0.0942236 11.9619 0.00575587L11.9624 0.00523548Z" fill="white"/>
<path d="M11.9618 0.00494705C12.0083 0.0939351 12.003 0.190209 12.003 0.284921C12.003 4.82592 12.003 9.36743 12.0019 13.9084C12.0019 13.9516 11.9982 13.9948 11.996 14.038C11.6056 14.2056 11.2136 14.37 10.8248 14.5412C9.56958 15.0955 8.31592 15.6533 7.06065 16.2081C5.36037 16.9595 3.65954 17.7105 1.95765 18.4583C1.30967 18.7429 0.657937 19.0193 0.0078125 19.2998C0.358045 18.7107 0.691675 18.1117 1.06226 17.5356C1.64009 16.6379 2.20078 15.7309 2.75023 14.8165C3.31842 13.8715 3.92516 12.9483 4.50728 12.0105C4.98014 11.2487 5.41767 10.4655 5.91142 9.71662C6.51924 8.79499 7.08903 7.85255 7.66311 6.91167C8.42784 5.65751 9.23166 4.42677 9.98032 3.16272C10.6128 2.09435 11.2988 1.05563 11.9612 0.00390625L11.9618 0.00494705Z" fill="white"/>
<path d="M0.00859279 19.3008C0.658718 19.0208 1.31045 18.744 1.95843 18.4593C3.66032 17.7115 5.36115 16.9606 7.06143 16.2091C8.3167 15.6544 9.57036 15.0965 10.8256 14.5423C11.2144 14.3706 11.6064 14.2066 11.9968 14.0391C11.9968 14.0391 12.0145 14.0568 12.0139 14.0568C12.0107 14.1608 12.0048 14.2644 12.0048 14.3685C12.0048 18.3204 12.0048 22.2718 12.0048 26.2237C11.4656 26.0015 10.9884 25.6726 10.4866 25.3874C8.82384 24.4434 7.16693 23.4885 5.51002 22.5351C3.92112 21.6213 2.3349 20.7038 0.747615 19.7879C0.533941 19.6646 0.318125 19.5454 0.106058 19.4195C0.0632161 19.394 -0.0283583 19.3934 0.00859279 19.3013V19.3008Z" fill="white"/>
<path d="M12.0051 26.2235C12.0051 22.2716 12.0046 18.3203 12.0051 14.3684C12.0051 14.2643 12.011 14.1607 12.0142 14.0566C12.7902 14.3408 13.5324 14.6993 14.287 15.0293C16.2042 15.8676 18.1165 16.7164 20.0305 17.5615C21.2632 18.1059 22.4949 18.6518 23.7277 19.1961C23.8166 19.2351 23.9093 19.2663 24.0003 19.3012C23.9612 19.4735 23.785 19.4896 23.6667 19.5583C21.539 20.7911 19.4066 22.0172 17.2741 23.2422C15.5846 24.2122 13.8934 25.1791 12.2017 26.146C12.1417 26.1804 12.071 26.1981 12.0057 26.223L12.0051 26.2235Z" fill="white"/>
<path d="M12.0013 28.4661C12.8453 27.9857 13.6898 27.5075 14.5322 27.0251C15.8876 26.2492 17.242 25.4707 18.5963 24.6921C20.2259 23.7554 21.8544 22.8166 23.484 21.8799C23.6281 21.7972 23.7764 21.7222 23.9612 21.6738C23.7951 21.9085 23.6323 22.1458 23.4631 22.3784C21.8169 24.6344 20.1713 26.8908 18.5218 29.1452C16.8623 31.4136 15.1984 33.6789 13.5372 35.9463C13.0675 36.5869 12.6022 37.2306 12.1341 37.8723C12.0908 37.9316 12.0795 38.0502 11.9531 37.9774C12.012 37.8827 12.0045 37.777 12.0045 37.6735C12.0045 34.6042 12.0029 31.5354 12.0019 28.4661H12.0013Z" fill="white"/>
<path d="M12.0014 28.4668C12.0025 31.5361 12.0035 34.6049 12.0041 37.6742C12.0041 37.7778 12.0116 37.8834 11.9527 37.9781C7.98818 32.5504 4.02424 27.1226 0.0244141 21.6465C0.32752 21.7173 0.510669 21.8843 0.713097 22.0019C1.45265 22.4323 2.1965 22.8569 2.93659 23.2863C3.6483 23.6995 4.37393 24.0913 5.0835 24.5087C6.02067 25.0593 6.96372 25.5999 7.90678 26.1391C8.83698 26.6714 9.75969 27.2168 10.7011 27.731C11.1381 27.9698 11.5681 28.2207 12.0014 28.4658V28.4668Z" fill="white"/>
</svg>
