<svg xmlns="http://www.w3.org/2000/svg" width="18" height="18" viewBox="0 0 18 18" fill="none">
<path d="M11.3257 10.8843H6.69681C6.57996 10.8843 6.48535 10.9789 6.48535 11.0957C6.48535 11.2125 6.57996 11.3071 6.69681 11.3071H11.3257C11.4426 11.3071 11.5372 11.2125 11.5372 11.0957C11.5372 10.9789 11.4426 10.8843 11.3257 10.8843Z" fill="#0038FF"/>
<path d="M11.3257 9.65234H6.69681C6.57996 9.65234 6.48535 9.74695 6.48535 9.8638C6.48535 9.98057 6.57996 10.0752 6.69681 10.0752H11.3257C11.4426 10.0752 11.5372 9.98057 11.5372 9.8638C11.5372 9.74695 11.4426 9.65234 11.3257 9.65234Z" fill="#0038FF"/>
<path d="M6.48535 8.63138C6.48535 8.74815 6.57996 8.84275 6.69681 8.84275H11.3257C11.4426 8.84275 11.5372 8.74815 11.5372 8.63138C11.5372 8.51453 11.4426 8.41992 11.3257 8.41992H6.69681C6.57996 8.41992 6.48535 8.51469 6.48535 8.63138Z" fill="#0038FF"/>
<mask id="mask0_30_4124" style="mask-type:luminance" maskUnits="userSpaceOnUse" x="0" y="0" width="18" height="18">
<path d="M0.977539 0.977539H17.0225V17.0225H0.977539V0.977539Z" fill="white"/>
</mask>
<g mask="url(#mask0_30_4124)">
<path d="M9.00016 0.977539C4.5694 0.977539 0.977539 4.5694 0.977539 9.00016C0.977539 13.4308 4.5694 17.0227 9.00016 17.0227C13.4308 17.0227 17.0227 13.4308 17.0227 9.00016C17.0227 4.5694 13.431 0.977539 9.00016 0.977539ZM9.9277 4.53789L12.367 6.97722H9.9277V4.53789ZM12.4873 13.2688V13.3774C12.4873 13.4908 12.3953 13.5828 12.2819 13.5828H5.71831C5.60493 13.5828 5.5129 13.4908 5.5129 13.3774V4.62283C5.5129 4.50945 5.60493 4.41742 5.71831 4.41742H9.51696V7.18247C9.51696 7.29577 9.60899 7.3878 9.72229 7.3878H12.4873V13.2688Z" fill="#0038FF"/>
</g>
</svg>