<svg width="41" height="40" viewBox="0 0 41 40" fill="none" xmlns="http://www.w3.org/2000/svg">
<path fill-rule="evenodd" clip-rule="evenodd" d="M30.0238 1.90476H10.9762C8.95243 1.90476 7.09248 2.60612 5.62615 3.77904L14.4727 12.6256C16.1145 11.2821 18.2132 10.4761 20.5001 10.4761C22.7869 10.4761 24.8855 11.2821 26.5272 12.6255L35.3737 3.77895C33.9074 2.60609 32.0475 1.90476 30.0238 1.90476ZM25.1719 13.9808C23.8818 12.978 22.2607 12.3808 20.5001 12.3808C18.7394 12.3808 17.1182 12.9781 15.8281 13.981L20.4999 18.6528L25.1719 13.9808ZM13.1259 13.9725L4.27925 5.12588C3.10621 6.59225 2.40476 8.45231 2.40476 10.4762V29.5238C2.40476 31.5475 3.10609 33.4074 4.27895 34.8737L13.1257 26.027C11.7823 24.3853 10.9763 22.2867 10.9763 19.9999C10.9763 17.7129 11.7823 15.6143 13.1259 13.9725ZM14.481 24.6717C13.4782 23.3816 12.881 21.7605 12.881 19.9999C12.881 18.2392 13.4783 16.618 14.4812 15.3278L19.153 19.9997L14.481 24.6717ZM14.4725 27.3739L5.62577 36.2207C7.09216 37.3938 8.95225 38.0952 10.9762 38.0952H30.0238C32.0477 38.0952 33.9077 37.3938 35.3741 36.2207L26.5275 27.3741C24.8857 28.7176 22.787 29.5237 20.5001 29.5237C18.2131 29.5237 16.1143 28.7176 14.4725 27.3739ZM25.1721 26.0188C23.882 27.0217 22.2608 27.6189 20.5001 27.6189C18.7393 27.6189 17.118 27.0216 15.8278 26.0186L20.4999 21.3465L25.1721 26.0188ZM26.519 24.6719L21.8468 19.9997L26.5188 15.3276C27.5218 16.6178 28.1191 18.2391 28.1191 19.9999C28.1191 21.7605 27.5219 23.3817 26.519 24.6719ZM27.8743 26.0272C29.2178 24.3854 30.0239 22.2868 30.0239 19.9999C30.0239 17.7129 29.2178 15.6141 27.8741 13.9723L36.7207 5.12577C37.8938 6.59216 38.5952 8.45225 38.5952 10.4762V29.5238C38.5952 31.5476 37.8939 33.4075 36.721 34.8739L27.8743 26.0272ZM10.9762 0C5.19035 0 0.5 4.69035 0.5 10.4762V29.5238C0.5 35.3096 5.19035 40 10.9762 40H30.0238C35.8096 40 40.5 35.3096 40.5 29.5238V10.4762C40.5 4.69035 35.8096 0 30.0238 0H10.9762Z" fill="#2EF2FF" fill-opacity="0.05"/>
<path d="M22.1296 30.19L20.4996 26.36C22.0696 25.78 23.5396 25 24.8996 24.09L22.1296 30.19ZM14.6396 20.5L10.8096 18.87L16.9096 16.1C15.9996 17.46 15.2196 18.93 14.6396 20.5ZM28.2196 12C28.4996 12 28.7496 12 28.9596 12.05C29.1296 13.44 28.9396 16.3 25.6596 19.58C23.9596 21.29 21.9296 22.6 19.6496 23.47L17.4996 21.37C18.4196 19.06 19.7296 17.03 21.4196 15.34C24.1796 12.58 26.6396 12 28.2196 12ZM28.2196 10C26.2396 10 23.2396 10.69 19.9996 13.93C17.8096 16.12 16.4996 18.53 15.6496 20.64C15.3696 21.39 15.5596 22.21 16.1096 22.77L18.2396 24.89C18.6196 25.27 19.1296 25.5 19.6596 25.5C19.8896 25.5 20.1296 25.44 20.3596 25.35C22.4996 24.53 24.8796 23.19 27.0696 21C32.7296 15.34 30.6096 10.39 30.6096 10.39C30.6096 10.39 29.6996 10 28.2196 10ZM23.5396 17.46C22.7596 16.68 22.7596 15.41 23.5396 14.63C24.3196 13.85 25.5896 13.85 26.3696 14.63C27.1396 15.41 27.1496 16.68 26.3696 17.46C25.5896 18.24 24.3196 18.24 23.5396 17.46ZM17.8796 24.53L16.4696 23.12L17.8796 24.53ZM15.2396 30L18.8796 26.36C18.5396 26.27 18.2096 26.12 17.9096 25.91L13.8296 30H15.2396ZM10.9996 30H12.4096L17.1796 25.24L15.7596 23.83L10.9996 28.59V30ZM10.9996 27.17L15.0896 23.09C14.8796 22.79 14.7296 22.47 14.6396 22.12L10.9996 25.76V27.17Z" fill="#3C52D9"/>
</svg>
