<svg width="41" height="40" viewBox="0 0 41 40" fill="none" xmlns="http://www.w3.org/2000/svg">
<path fill-rule="evenodd" clip-rule="evenodd" d="M30.0238 1.90476H10.9762C8.95237 1.90476 7.09237 2.60616 5.62601 3.77914L14.4726 12.6257C16.1144 11.2822 18.2131 10.4761 20.5001 10.4761C22.7868 10.4761 24.8854 11.282 26.5271 12.6254L35.3736 3.77884C33.9073 2.60604 32.0475 1.90476 30.0238 1.90476ZM25.1718 13.9807C23.8816 12.9779 22.2606 12.3808 20.5001 12.3808C18.7394 12.3808 17.1181 12.9781 15.8279 13.9811L20.4997 18.6528L25.1718 13.9807ZM13.1258 13.9726L4.27914 5.12601C3.10616 6.59237 2.40476 8.45237 2.40476 10.4762V29.5238C2.40476 31.5475 3.10604 33.4073 4.27884 34.8736L13.1256 26.0269C11.7822 24.3852 10.9763 22.2866 10.9763 19.9999C10.9763 17.713 11.7823 15.6144 13.1258 13.9726ZM14.4809 24.6716C13.4781 23.3814 12.881 21.7604 12.881 19.9999C12.881 18.2393 13.4782 16.6181 14.4811 15.328L19.1528 19.9997L14.4809 24.6716ZM14.4724 27.3738L5.62563 36.2206C7.09204 37.3937 8.95219 38.0952 10.9762 38.0952H30.0238C32.0476 38.0952 33.9076 37.3938 35.374 36.2209L26.5273 27.3742C24.8856 28.7177 22.787 29.5237 20.5001 29.5237C18.213 29.5237 16.1142 28.7175 14.4724 27.3738ZM25.172 26.0189C23.8819 27.0217 22.2607 27.6189 20.5001 27.6189C18.7392 27.6189 17.1179 27.0216 15.8277 26.0185L20.4997 21.3465L25.172 26.0189ZM26.5189 24.672L21.8465 19.9997L26.5187 15.3275C27.5218 16.6177 28.1191 18.239 28.1191 19.9999C28.1191 21.7606 27.5219 23.3818 26.5189 24.672ZM27.8742 26.0274C29.2178 24.3856 30.0239 22.2869 30.0239 19.9999C30.0239 17.7128 29.2177 15.614 27.874 13.9722L36.7206 5.12563C37.8937 6.59204 38.5952 8.45219 38.5952 10.4762V29.5238C38.5952 31.5476 37.8938 33.4076 36.7209 34.874L27.8742 26.0274ZM10.9762 0C5.19035 0 0.5 4.69035 0.5 10.4762V29.5238C0.5 35.3096 5.19035 40 10.9762 40H30.0238C35.8096 40 40.5 35.3096 40.5 29.5238V10.4762C40.5 4.69035 35.8096 0 30.0238 0H10.9762Z" fill="#2EF2FF" fill-opacity="0.05"/>
<path d="M20 18C23.976 18 28 16.626 28 14C28 11.374 23.976 10 20 10C16.024 10 12 11.374 12 14C12 16.626 16.024 18 20 18Z" fill="#3C52D9"/>
<path d="M12 18C12 20.626 16.024 22 20 22C23.976 22 28 20.626 28 18V16C28 18.626 23.976 20 20 20C16.024 20 12 18.626 12 16V18Z" fill="#3C52D9"/>
<path d="M12 22C12 24.626 16.024 26 20 26C23.976 26 28 24.626 28 22V20C28 22.626 23.976 24 20 24C16.024 24 12 22.626 12 20V22Z" fill="#3C52D9"/>
<path d="M12 26C12 28.626 16.024 30 20 30C23.976 30 28 28.626 28 26V24C28 26.626 23.976 28 20 28C16.024 28 12 26.626 12 24V26Z" fill="#3C52D9"/>
</svg>
