<svg width="41" height="40" viewBox="0 0 41 40" fill="none" xmlns="http://www.w3.org/2000/svg">
<path fill-rule="evenodd" clip-rule="evenodd" d="M30.0238 1.90476H10.9762C8.95237 1.90476 7.09237 2.60616 5.62601 3.77914L14.4726 12.6257C16.1144 11.2822 18.2131 10.4761 20.5001 10.4761C22.7868 10.4761 24.8854 11.282 26.5271 12.6254L35.3736 3.77884C33.9073 2.60604 32.0475 1.90476 30.0238 1.90476ZM25.1718 13.9807C23.8816 12.9779 22.2606 12.3808 20.5001 12.3808C18.7394 12.3808 17.1181 12.9781 15.8279 13.9811L20.4997 18.6528L25.1718 13.9807ZM13.1258 13.9726L4.27914 5.12601C3.10616 6.59237 2.40476 8.45237 2.40476 10.4762V29.5238C2.40476 31.5475 3.10604 33.4073 4.27884 34.8736L13.1256 26.0269C11.7822 24.3852 10.9763 22.2866 10.9763 19.9999C10.9763 17.713 11.7823 15.6144 13.1258 13.9726ZM14.4809 24.6716C13.4781 23.3814 12.881 21.7604 12.881 19.9999C12.881 18.2393 13.4782 16.6181 14.4811 15.328L19.1528 19.9997L14.4809 24.6716ZM14.4724 27.3738L5.62563 36.2206C7.09204 37.3937 8.95219 38.0952 10.9762 38.0952H30.0238C32.0476 38.0952 33.9076 37.3938 35.374 36.2209L26.5273 27.3742C24.8856 28.7177 22.787 29.5237 20.5001 29.5237C18.213 29.5237 16.1142 28.7175 14.4724 27.3738ZM25.172 26.0189C23.8819 27.0217 22.2607 27.6189 20.5001 27.6189C18.7392 27.6189 17.1179 27.0216 15.8277 26.0185L20.4997 21.3465L25.172 26.0189ZM26.5189 24.672L21.8465 19.9997L26.5187 15.3275C27.5218 16.6177 28.1191 18.239 28.1191 19.9999C28.1191 21.7606 27.5219 23.3818 26.5189 24.672ZM27.8742 26.0274C29.2178 24.3856 30.0239 22.2869 30.0239 19.9999C30.0239 17.7128 29.2177 15.614 27.874 13.9722L36.7206 5.12563C37.8937 6.59204 38.5952 8.45219 38.5952 10.4762V29.5238C38.5952 31.5476 37.8938 33.4076 36.7209 34.874L27.8742 26.0274ZM10.9762 0C5.19035 0 0.5 4.69035 0.5 10.4762V29.5238C0.5 35.3096 5.19035 40 10.9762 40H30.0238C35.8096 40 40.5 35.3096 40.5 29.5238V10.4762C40.5 4.69035 35.8096 0 30.0238 0H10.9762Z" fill="#2EF2FF" fill-opacity="0.05"/>
<path d="M21.73 9.91315V16.7709C21.73 16.8206 21.7497 16.8683 21.7849 16.9035C21.8201 16.9387 21.8677 16.9584 21.9175 16.9584H28.7752C28.7938 16.9584 28.8119 16.9529 28.8273 16.9427C28.8427 16.9324 28.8547 16.9178 28.8618 16.9007C28.869 16.8836 28.8709 16.8648 28.8673 16.8466C28.8637 16.8284 28.8548 16.8117 28.8418 16.7986L21.8898 9.8466C21.8767 9.83354 21.86 9.82466 21.8418 9.82109C21.8236 9.81752 21.8048 9.81942 21.7877 9.82654C21.7706 9.83366 21.756 9.84569 21.7457 9.8611C21.7354 9.87652 21.73 9.89463 21.73 9.91315Z" fill="#3C52D9"/>
<path d="M20.6054 18.4583C20.5059 18.4583 20.4105 18.4188 20.3402 18.3485C20.2699 18.2782 20.2304 18.1828 20.2304 18.0833V9.45898H13.2934C13.1442 9.45898 13.0012 9.51824 12.8957 9.62372C12.7902 9.72921 12.731 9.87227 12.731 10.0214V29.8949C12.731 30.0441 12.7902 30.1872 12.8957 30.2927C13.0012 30.3981 13.1442 30.4574 13.2934 30.4574H28.6673C28.8164 30.4574 28.9595 30.3981 29.065 30.2927C29.1705 30.1872 29.2297 30.0441 29.2297 29.8949V18.4583H20.6054ZM25.48 25.9577H16.4807V24.4579H25.48V25.9577ZM25.48 22.208H16.4807V20.7081H25.48V22.208Z" fill="#3C52D9"/>
</svg>
