<svg width="25" height="25" viewBox="0 0 25 25" fill="none" xmlns="http://www.w3.org/2000/svg">
<path d="M19.5 3.5H5.5C4.96957 3.5 4.46086 3.71071 4.08579 4.08579C3.71071 4.46086 3.5 4.96957 3.5 5.5V19.5C3.5 20.0304 3.71071 20.5391 4.08579 20.9142C4.46086 21.2893 4.96957 21.5 5.5 21.5H19.5C20.0304 21.5 20.5391 21.2893 20.9142 20.9142C21.2893 20.5391 21.5 20.0304 21.5 19.5V5.5C21.5 4.96957 21.2893 4.46086 20.9142 4.08579C20.5391 3.71071 20.0304 3.5 19.5 3.5ZM14.44 15.31L12.23 17.5C11.58 18.17 10.72 18.5 9.86 18.5C9 18.5 8.14 18.17 7.5 17.5C6.17 16.21 6.17 14.08 7.5 12.76L8.85 11.4L8.84 12C8.83 12.5 8.91 13 9.07 13.44L9.12 13.59L8.72 14C8.41 14.3 8.24 14.71 8.24 15.14C8.24 15.57 8.41 15.97 8.72 16.28C9.33 16.9 10.39 16.9 11 16.28L13.2 14.09C13.5 13.78 13.68 13.37 13.68 12.94C13.68 12.5 13.5 12.11 13.2 11.8C13.03 11.64 12.94 11.42 12.94 11.18C12.94 10.95 13.03 10.73 13.2 10.56C13.53 10.23 14.11 10.24 14.44 10.56C15.07 11.2 15.42 12.04 15.42 12.94C15.42 13.84 15.07 14.68 14.44 15.31ZM17.5 12.24L16.16 13.6V13C16.17 12.5 16.09 12 15.93 11.56L15.88 11.42L16.28 11C16.59 10.7 16.76 10.29 16.76 9.86C16.76 9.43 16.59 9.03 16.28 8.72C15.67 8.1 14.6 8.11 14 8.72L11.8 10.92C11.5 11.22 11.32 11.63 11.32 12.06C11.32 12.5 11.5 12.89 11.8 13.2C11.97 13.36 12.06 13.58 12.06 13.82C12.06 14.06 11.97 14.28 11.8 14.44C11.63 14.61 11.41 14.69 11.18 14.69C10.96 14.69 10.73 14.61 10.56 14.44C9.25 13.13 9.25 11 10.56 9.69L12.77 7.5C14.08 6.17 16.21 6.18 17.5 7.5C18.15 8.12 18.5 8.96 18.5 9.86C18.5 10.76 18.15 11.6 17.5 12.24Z" fill="#0A4CF7"/>
</svg>
