<svg xmlns="http://www.w3.org/2000/svg" width="21" height="20" viewBox="0 0 21 20" fill="none">
  <mask id="mask0_2050_7606" style="mask-type:luminance" maskUnits="userSpaceOnUse" x="0" y="0" width="21" height="20">
    <path d="M0.25 0H20.25V20H0.25V0Z" fill="white"/>
  </mask>
  <g mask="url(#mask0_2050_7606)">
    <path d="M10.25 0C4.73439 0 0.25 4.48439 0.25 10C0.25 15.5156 4.73439 20 10.25 20C15.7656 20 20.25 15.5156 20.25 10C20.25 4.48439 15.7656 0 10.25 0ZM16.375 8.03128L8.43748 16.1094C8.0625 16.5 7.45317 16.5 7.07809 16.1094L3.48439 12.4531C2.9062 11.8593 2.9062 10.9063 3.48439 10.3125C4.04691 9.73441 4.96874 9.73441 5.53126 10.3125L7.76567 12.5781L14.3282 5.89059C14.8906 5.3125 15.8125 5.3125 16.375 5.89059C16.9531 6.48435 16.9531 7.45309 16.375 8.03128Z" fill="white"/>
  </g>
</svg>