<svg width="24" height="18" viewBox="0 0 24 18" fill="none" xmlns="http://www.w3.org/2000/svg">
<path d="M3.35177 3.6705C3.38027 3.39375 3.27227 3.117 3.06602 2.9295L0.951766 0.3795V0H7.52327L12.6045 11.142L17.0715 0H23.3385V0.3795L21.5295 2.11425C21.375 2.23125 21.2948 2.4285 21.3278 2.6205V15.3705C21.2948 15.5625 21.375 15.7598 21.5295 15.8768L23.2965 17.6115V17.991H14.4045V17.6115L16.2375 15.8348C16.416 15.6563 16.416 15.6 16.416 15.3285V5.025L11.3205 17.958H10.6313L4.70627 5.025V13.692C4.65452 14.0573 4.77677 14.4232 5.03477 14.6857L7.41602 17.5732V17.9528H0.666016V17.5778L3.04727 14.6857C3.30002 14.4232 3.41777 14.0528 3.35177 13.692V3.6705Z" fill="white"/>
</svg>
