<svg xmlns="http://www.w3.org/2000/svg" width="20" height="18" viewBox="0 0 20 18" fill="none">
  <path d="M12.6152 12.3335L13.0263 12.8073C12.3491 12.7211 11.707 12.6663 11.0962 12.639C9.5889 11.0415 8.73158 9.32651 8.24214 7.92868C8.17558 7.74067 8.11687 7.5606 8.06599 7.38444C7.64713 5.99446 7.60792 5.03127 7.60792 5.03127C7.94464 4.53399 8.24606 4.04847 8.50053 3.60599C8.5123 3.74695 8.5319 3.88398 8.55151 4.00926L8.5123 4.00152L8.64541 4.55751L8.67286 4.71014H8.6807L8.71197 4.83551C9.0134 6.09228 9.52626 7.36092 10.1018 8.51594C10.7165 9.75713 11.4917 11.0415 12.4039 12.0869L12.5761 12.2866V12.2905L12.6152 12.3335ZM1.68449 12.2983C1.85672 12.8974 2.23656 13.5708 3.05477 14.0328L3.23877 13.9428C3.23877 13.9428 3.74771 15.83 5.05536 16.9303C5.49774 17.1143 6.02237 17.079 6.44515 16.8715C5.88925 16.3977 5.46255 15.8731 5.14535 15.3328C4.7656 14.6906 4.53465 14.0289 4.42114 13.4102C4.55034 13.3672 4.7108 13.3163 4.89872 13.2615C5.00056 13.8409 5.2119 14.4713 5.57214 15.0782C5.88533 15.6069 6.30811 16.1197 6.86411 16.574C7.06379 16.3743 7.20082 16.1158 7.23209 15.8144C6.70747 15.4345 6.07325 14.3578 5.99885 12.9914C7.07545 12.7721 8.56709 12.5763 10.4151 12.6115C9.30708 11.3507 8.44966 9.89809 7.86631 8.32411C4.77344 11.5504 2.41663 12.1769 1.68449 12.2983ZM7.68624 7.79556C7.65487 7.70548 7.62753 7.61147 7.60008 7.52148C7.42785 6.94588 7.28689 6.3547 7.20082 5.75949C7.1969 5.72038 7.18906 5.68117 7.18514 5.64206C5.77574 7.62323 3.96307 9.69449 2.68287 10.4384C2.54191 10.5206 2.41271 10.5833 2.28744 10.6303L1.56705 10.9827C1.56705 10.9827 1.51618 11.3312 1.58274 11.8128C2.19343 11.7227 4.52289 11.1667 7.68624 7.79556ZM1.13643 11.1942L0.952439 11.2842C0.114622 11.6914 -0.237777 12.7134 0.169418 13.5512C0.576514 14.3891 1.59842 14.7415 2.43614 14.3304L2.60063 14.2521C1.38698 13.3045 1.15986 11.9538 1.13643 11.1942ZM11.9849 1.98897C12.1141 2.03593 12.2551 1.97329 12.3059 1.84409L12.8698 0.336669C12.9167 0.207374 12.8541 0.0664148 12.7249 0.01554C12.5957 -0.0314138 12.4548 0.031224 12.4039 0.16042L11.84 1.66784C11.7892 1.79704 11.8557 1.94192 11.9849 1.98897ZM14.4318 4.68279C14.518 4.78846 14.6745 4.80806 14.7803 4.7219L17.466 2.58016C17.5717 2.494 17.5912 2.33745 17.5052 2.23168C17.419 2.12601 17.2624 2.10641 17.1567 2.19257L14.4749 4.33431C14.3652 4.41655 14.3457 4.5731 14.4318 4.68279ZM13.2886 3.26927C13.3943 3.35544 13.551 3.33583 13.6371 3.23016L15.1209 1.35858C15.207 1.25281 15.1875 1.09626 15.0817 1.0101C14.976 0.923935 14.8194 0.943539 14.7333 1.04921L13.2495 2.92079C13.1634 3.03048 13.183 3.18703 13.2886 3.26927ZM13.0811 12.8112L13.1125 12.8151L13.085 12.7916L13.0811 12.8112ZM19.1025 9.37346L16.7143 9.27554C16.5773 9.27162 16.4598 9.37738 16.4559 9.51442C16.452 9.65146 16.5577 9.76889 16.6947 9.77282L19.0829 9.87074C19.2199 9.87466 19.3374 9.76889 19.3413 9.63186C19.3452 9.49482 19.2395 9.3813 19.1025 9.37346ZM19.9951 6.99676C19.9716 6.86364 19.8385 6.77356 19.7053 6.79708L16.3306 7.43532C16.1975 7.45885 16.1074 7.59196 16.131 7.72508C16.1545 7.8582 16.2875 7.94818 16.4206 7.92476L19.7954 7.28652C19.9325 7.26299 20.0224 7.12987 19.9951 6.99676ZM18.4056 11.7501L16.8944 11.1903C16.7652 11.1432 16.6203 11.2098 16.5734 11.339C16.5264 11.4682 16.593 11.613 16.7222 11.6601L18.2333 12.22C18.3625 12.267 18.5074 12.2004 18.5543 12.0712C18.6014 11.942 18.5348 11.7971 18.4056 11.7501ZM19.9481 4.02886C19.8894 3.90359 19.7445 3.84879 19.6193 3.90751L15.3244 5.873C15.1991 5.93182 15.1444 6.0767 15.2031 6.20197C15.2618 6.32725 15.4067 6.38204 15.5319 6.32333L19.8267 4.35774C19.9481 4.30294 20.0029 4.15414 19.9481 4.02886ZM9.4402 1.98113C8.99389 2.20433 8.89989 3.03823 9.11525 4.20119C9.29532 4.20511 9.48323 4.25991 9.67899 4.35774C10.2466 4.63966 10.9044 5.30534 11.4995 6.151C12.0828 6.98107 12.6231 7.99916 12.9676 9.00146C13.3709 10.1682 13.5196 11.3194 13.1908 12.1651C13.8916 12.866 14.5141 13.195 14.9173 12.9952C15.8021 12.5567 15.2932 9.7337 13.7819 6.69141C12.2668 3.64912 10.325 1.54257 9.4402 1.98113ZM12.8032 11.7462C12.9755 11.0454 12.8306 10.1135 12.4978 9.16202C12.165 8.20668 11.6521 7.23564 11.0923 6.43684C10.5403 5.65382 9.95306 5.04685 9.4597 4.80414C9.37756 4.76503 9.29924 4.73366 9.22876 4.71798C9.47931 5.75949 9.9413 7.0046 10.5794 8.28892C11.2763 9.69057 12.0672 10.8966 12.8032 11.7462Z" fill="white"/>
</svg>