<svg xmlns="http://www.w3.org/2000/svg" width="21" height="24" viewBox="0 0 21 24" fill="none">
<mask id="mask0_30_4137" style="mask-type:luminance" maskUnits="userSpaceOnUse" x="0" y="0" width="21" height="24">
<path d="M0.522461 0.635742H20.5225V23.3643H0.522461V0.635742Z" fill="white"/>
</mask>
<g mask="url(#mask0_30_4137)">
<path fill-rule="evenodd" clip-rule="evenodd" d="M10.6841 15.0619V16.9138C10.6841 16.9664 10.71 17.0113 10.7554 17.0375L12.2045 17.8743C12.3 17.9295 12.4187 17.861 12.4187 17.7507V15.2777L18.3999 11.8237L20.2855 12.9126C20.4368 12.9999 20.5234 13.1499 20.5234 13.3246V19.6832C20.5234 19.8579 20.4368 20.0079 20.2855 20.0952L14.7799 23.2745C14.6286 23.3619 14.4554 23.3619 14.3041 23.2745L8.79856 20.0952C8.64725 20.0079 8.56067 19.8579 8.56067 19.6832V13.9291L10.2595 14.9101C10.3939 14.9876 10.5376 15.0383 10.6841 15.0619ZM11.1158 0.709559C10.9645 0.622204 10.7914 0.622204 10.6402 0.709559L5.13449 3.88884C4.98318 3.97619 4.89659 4.12618 4.89659 4.30089V10.6595C4.89659 10.8342 4.98318 10.9841 5.13449 11.0715L10.64 14.2508C10.7914 14.3381 10.9645 14.3381 11.1158 14.2508L16.6214 11.0715C16.7727 10.9841 16.8593 10.8342 16.8593 10.6595V4.30089C16.8593 4.12618 16.7727 3.97619 16.6214 3.88884L14.7358 2.80003L8.75461 6.25402V8.72699C8.75461 8.8372 8.63594 8.90565 8.54045 8.8506L7.09135 8.01375C7.04597 7.98749 7.02003 7.94255 7.02003 7.89014V5.25235L13.0013 1.79836L11.1158 0.709559ZM4.13545 8.77303L2.64481 9.63383V12.2716C2.64481 12.324 2.67075 12.369 2.71624 12.3952L4.16534 13.2321C4.26072 13.2872 4.37939 13.2187 4.37939 13.1085V11.3998C4.47817 11.5316 4.60442 11.6445 4.75386 11.7308L7.79942 13.4895V18.0208L6.74061 18.6322C6.5893 18.7195 6.41613 18.7195 6.26483 18.6322L0.759376 15.453C0.60807 15.3656 0.521484 15.2156 0.521484 15.0409V8.68237C0.521484 8.50766 0.60807 8.35768 0.759376 8.27032L4.13545 6.32082V8.77303Z" fill="#0038FF"/>
</g>
</svg>