<svg xmlns="http://www.w3.org/2000/svg" width="61" height="57" viewBox="0 0 61 57" fill="none">
  <g filter="url(#filter0_d_23_10728)">
    <path d="M28.8392 10.3068C28.78 9.63436 28.4752 9.09914 27.9021 8.74559C26.7017 8.00511 25.5008 7.26415 24.279 6.55978C23.6183 6.17879 22.907 6.16113 22.2281 6.54919C21.0385 7.22916 19.8518 7.91444 18.6752 8.61656C18.0127 9.01184 17.6564 9.61221 17.653 10.3936C17.6468 11.7817 17.644 13.1697 17.6541 14.5577C17.6596 15.3109 17.9889 15.9037 18.6344 16.2988C19.8213 17.0257 21.0044 17.7597 22.2097 18.4553C22.8842 18.8446 23.6072 18.8669 24.2952 18.4591C25.8028 17.5657 27.2977 16.6508 28.8069 15.7598C29.5081 15.3459 30.2277 14.9628 30.9435 14.5739C32.3193 13.8264 33.6531 13.0065 35.0052 12.2182C35.559 11.8953 36.1071 11.5623 36.6633 11.2437C37.0363 11.0303 37.4447 10.9447 37.8739 10.9702C38.2016 10.9897 38.503 11.0916 38.7875 11.257C41.0064 12.5475 43.2288 13.8322 45.4459 15.1257C46.0238 15.4627 46.3674 15.9727 46.4685 16.6391C46.4736 16.6733 46.4728 16.7084 46.4748 16.7431C46.4741 16.8151 46.4727 16.8873 46.4727 16.9594C46.4727 19.5697 46.4727 22.18 46.4727 24.7903C46.4727 24.8598 46.474 24.9291 46.4748 24.9986C46.4152 25.6641 46.1162 26.1982 45.5488 26.5486C44.8582 26.9751 44.1482 27.3701 43.4461 27.7777C41.8894 28.6816 40.3322 29.5846 38.7753 30.4883C38.636 30.5692 38.4869 30.6267 38.3341 30.6759C38.2955 30.6883 38.2563 30.6923 38.2159 30.6921C37.9137 30.6915 37.6112 30.6832 37.3094 30.6949C37.1138 30.7024 36.939 30.6531 36.7747 30.5594C36.327 30.3041 35.8811 30.0454 35.4353 29.7867C33.6172 28.7318 31.7964 27.6814 29.9831 26.6185C29.2996 26.2178 28.9395 25.6081 28.9347 24.8078C28.9294 23.9253 28.9339 23.0428 28.9326 22.1604C28.9326 22.1081 28.9432 22.0747 28.9931 22.046C30.0088 21.4604 31.0234 20.8724 32.0383 20.2853C32.0584 20.2737 32.0762 20.2553 32.1102 20.2574V20.3428C32.1102 21.1798 32.1083 22.0168 32.1107 22.8539C32.1131 23.6772 32.4674 24.299 33.1824 24.7139C34.3376 25.3841 35.491 26.057 36.6462 26.727C36.9084 26.879 37.1947 26.9623 37.4943 26.9998C37.9674 27.0589 38.4019 26.9507 38.8095 26.7068C39.9303 26.0363 41.055 25.372 42.1755 24.7011C42.7133 24.3791 43.0625 23.9158 43.1885 23.2947C43.2044 23.2161 43.2168 23.137 43.2176 23.0564C43.236 23.0075 43.2301 22.9561 43.2302 22.9059C43.2309 21.5148 43.2307 20.1237 43.2302 18.7328C43.2302 18.6851 43.2349 18.6365 43.2169 18.5903C43.1529 17.8937 42.8329 17.3475 42.2301 16.9913C41.0457 16.2916 39.8615 15.5908 38.6606 14.9204C37.9771 14.539 37.2602 14.5256 36.5659 14.9288C32.4843 17.299 28.4039 19.6713 24.3228 22.0423C24.0678 22.1904 23.7906 22.2768 23.4992 22.3146C23.0278 22.3759 22.5892 22.2827 22.1769 22.0429C19.9579 20.7525 17.7352 19.4683 15.5184 18.1743C14.9224 17.8263 14.5699 17.3017 14.4871 16.6078C14.4857 16.5951 14.4789 16.5832 14.4746 16.5709C14.4746 13.8375 14.4746 11.1041 14.4746 8.37086C14.5083 8.1932 14.535 8.01426 14.6014 7.84398C14.7543 7.45176 15.0058 7.14218 15.3695 6.9289C16.1482 6.47248 16.9289 6.01942 17.7081 5.56381C19.2364 4.6699 20.7636 3.77391 22.2931 2.88209C22.509 2.75627 22.7383 2.67298 22.9996 2.6871C23.2636 2.70139 23.5289 2.69465 23.7935 2.68839C23.9205 2.68534 24.0362 2.71214 24.1492 2.76462C24.4358 2.89766 24.6993 3.07147 24.971 3.23067C26.9727 4.40478 28.9748 5.57873 30.9736 6.75782C31.5543 7.10029 31.9078 7.60727 32.0091 8.2805C32.0142 8.31469 32.0137 8.34967 32.0158 8.38434C32.0145 8.40825 32.0121 8.43216 32.0121 8.45608C32.0125 9.43311 32.0131 10.4101 32.0136 11.3872C31.6239 11.6139 31.2346 11.8414 30.8446 12.0675C30.2075 12.4371 29.5699 12.8059 28.9324 13.1747C28.9072 13.1893 28.8809 13.2021 28.8551 13.2159C28.8543 13.1812 28.8527 13.1466 28.8527 13.1118C28.8527 12.2406 28.8527 11.3694 28.852 10.4983C28.852 10.4347 28.8604 10.37 28.8392 10.3076V10.3068Z" fill="white"/>
  </g>
  <defs>
    <filter id="filter0_d_23_10728" x="0.474609" y="0.68457" width="60" height="56.0112" filterUnits="userSpaceOnUse" color-interpolation-filters="sRGB">
      <feFlood flood-opacity="0" result="BackgroundImageFix"/>
      <feColorMatrix in="SourceAlpha" type="matrix" values="0 0 0 0 0 0 0 0 0 0 0 0 0 0 0 0 0 0 127 0" result="hardAlpha"/>
      <feOffset dy="12"/>
      <feGaussianBlur stdDeviation="7"/>
      <feComposite in2="hardAlpha" operator="out"/>
      <feColorMatrix type="matrix" values="0 0 0 0 0.192157 0 0 0 0 0.105882 0 0 0 0 0.439216 0 0 0 0.7 0"/>
      <feBlend mode="normal" in2="BackgroundImageFix" result="effect1_dropShadow_23_10728"/>
      <feBlend mode="normal" in="SourceGraphic" in2="effect1_dropShadow_23_10728" result="shape"/>
    </filter>
  </defs>
</svg>