<svg xmlns="http://www.w3.org/2000/svg" width="22" height="24" viewBox="0 0 22 24" fill="none">
  <mask id="mask0_2050_7613" style="mask-type:luminance" maskUnits="userSpaceOnUse" x="0" y="0" width="22" height="24">
    <path d="M0 0.648438H21.9149V23.3524H0V0.648438Z" fill="white"/>
  </mask>
  <g mask="url(#mask0_2050_7613)">
    <path d="M21.5772 21.5313L16.1356 16.3056C17.7519 14.5771 18.6376 12.3353 18.6376 9.9572C18.6376 7.57907 17.6677 5.13371 15.9099 3.37497C14.1505 1.61622 11.8119 0.648438 9.32518 0.648438C6.83832 0.648438 4.49972 1.61622 2.74032 3.37497C0.980809 5.13371 0.0126953 7.47144 0.0126953 9.9572C0.0126953 12.4431 0.980809 14.7808 2.74032 16.5395C4.49972 18.2983 6.83832 19.266 9.32518 19.266C11.2007 19.266 12.9905 18.7157 14.5125 17.6907L20.1057 23.0612C20.3043 23.2514 20.5653 23.3574 20.8415 23.3574C21.1175 23.3574 21.4089 23.2379 21.6075 23.0309C22.0133 22.6085 21.9998 21.9352 21.5773 21.5297L21.5772 21.5313ZM13.4164 16.0683C12.2463 16.8526 10.8404 17.3104 9.32518 17.3104C5.26243 17.3104 1.97082 14.0183 1.97082 9.95895C1.97082 5.89949 5.26243 2.6058 9.32518 2.6058C13.3878 2.6058 16.6794 5.89773 16.6794 9.9572C16.6794 11.9701 15.8695 13.7945 14.5579 15.1224C14.2112 15.4742 13.8273 15.7923 13.4148 16.0683H13.4164Z" fill="white"/>
  </g>
</svg>