<svg xmlns="http://www.w3.org/2000/svg" width="30" height="30" viewBox="0 0 30 30" fill="none">
  <rect x="0.1" y="0.1" width="29.8" height="29.8" rx="4.9" fill="black"/>
  <rect x="0.1" y="0.1" width="29.8" height="29.8" rx="4.9" stroke="url(#paint0_linear_58_7254)" stroke-width="0.2"/>
  <path d="M15.0002 6.20703C10.1441 6.20703 6.20703 10.1438 6.20703 15.0001C6.20703 19.8561 10.1441 23.7932 15.0002 23.7932C19.8565 23.7932 23.7932 19.8561 23.7932 15.0001C23.7932 10.1438 19.8565 6.20703 15.0002 6.20703ZM18.081 11.0028C18.0012 10.8686 18.0002 10.719 18.0776 10.6358L18.981 9.9022L18.9927 9.89177C19.0902 9.79446 19.2137 9.73847 19.3316 9.73847C19.3867 9.73847 19.4651 9.75128 19.5261 9.81236L20.1115 10.3979C20.1679 10.4541 20.1932 10.5373 20.1833 10.6322C20.1721 10.7391 20.1184 10.8452 20.0324 10.9314L19.2882 11.8467C19.2373 11.8943 19.173 11.9043 19.1274 11.9043C19.0608 11.9043 18.9874 11.8826 18.9211 11.8432L18.8178 11.7818L16.9065 13.7338L16.1379 13.0688L18.1422 11.1059L18.081 11.0028ZM14.7861 17.503L12.2239 20.0652C11.6895 20.5996 10.8232 20.5996 10.2887 20.0652L9.85894 19.6354C9.32449 19.1009 9.32449 18.2346 9.85894 17.7002L12.3834 15.1757C12.5555 15.1614 12.7277 15.139 12.8979 15.1062L14.8806 17.3972C14.851 17.4335 14.82 17.4691 14.7861 17.503ZM19.9186 19.531C19.6505 19.7989 19.2203 19.9469 18.8232 19.9469C18.5252 19.9469 18.2457 19.8636 18.0671 19.6849L13.2175 14.0813C12.8494 14.2051 12.4262 14.2804 12.0031 14.2804C11.3534 14.2804 10.7036 14.1031 10.2535 13.6528C9.50357 12.9032 9.15635 11.9547 9.48143 11.0161L10.965 12.2573L12.4725 12.0852L12.5638 10.6585L11.3229 9.17518C11.5878 9.08331 11.8599 9.0386 12.1309 9.0386C12.82 9.0386 13.5021 9.32763 14.0403 9.86589C14.7839 10.6096 14.783 11.8964 14.4684 12.8305L15.803 13.9852L16.267 14.3868L20.0724 17.6798C20.489 18.0968 20.3871 19.0625 19.9186 19.531Z" fill="white"/>
  <defs>
    <linearGradient id="paint0_linear_58_7254" x1="6.53508" y1="8.86699" x2="8.93381" y2="-1.17839" gradientUnits="userSpaceOnUse">
      <stop offset="0.0578571" stop-color="white"/>
      <stop offset="0.934846" stop-color="#4338CA"/>
    </linearGradient>
  </defs>
</svg>