<svg width="18" height="19" viewBox="0 0 18 19" fill="none" xmlns="http://www.w3.org/2000/svg">
<path d="M8.99993 0.706787C4.1439 0.706787 0.206787 4.64356 0.206787 9.49985C0.206787 14.3559 4.1439 18.293 8.99993 18.293C13.8562 18.293 17.793 14.3559 17.793 9.49985C17.793 4.64356 13.8562 0.706787 8.99993 0.706787ZM12.0807 5.50259C12.001 5.36838 12 5.21873 12.0773 5.1356L12.9807 4.40196L12.9924 4.39152C13.0899 4.29422 13.2134 4.23823 13.3314 4.23823C13.3864 4.23823 13.4649 4.25104 13.5259 4.31212L14.1112 4.89764C14.1676 4.95388 14.193 5.03702 14.1831 5.13195C14.1719 5.23884 14.1182 5.34497 14.0322 5.43116L13.2879 6.34642C13.2371 6.39401 13.1728 6.40402 13.1272 6.40402C13.0606 6.40402 12.9872 6.38231 12.9208 6.34294L12.8176 6.28153L10.9062 8.23354L10.1376 7.56853L12.142 5.60566L12.0807 5.50259ZM8.78581 12.0028L6.22368 14.5649C5.68923 15.0994 4.82291 15.0994 4.28846 14.5649L3.85869 14.1351C3.32424 13.6007 3.32424 12.7344 3.85869 12.1999L6.38316 9.67545C6.55529 9.6612 6.7275 9.63881 6.89768 9.60597L8.8804 11.897C8.8508 11.9333 8.81975 11.9688 8.78581 12.0028ZM13.9184 14.0307C13.6502 14.2987 13.2201 14.4466 12.8229 14.4466C12.5249 14.4466 12.2455 14.3633 12.0668 14.1847L7.21724 8.5811C6.84915 8.70487 6.426 8.78012 6.00286 8.78012C5.35312 8.78012 4.70338 8.60282 4.25325 8.15252C3.50333 7.40294 3.1561 6.4545 3.48118 5.51582L4.96475 6.7571L6.47224 6.58497L6.5636 5.15825L5.32266 3.67494C5.58751 3.58306 5.85966 3.53835 6.13061 3.53835C6.8198 3.53835 7.50186 3.82738 8.04004 4.36565C8.78369 5.10938 8.78276 6.39614 8.4682 7.33024L9.80271 8.48499L10.2667 8.88659L14.0721 12.1796C14.4887 12.5965 14.3868 13.5623 13.9184 14.0307Z" fill="white"/>
</svg>
