<svg xmlns="http://www.w3.org/2000/svg" width="34" height="28" viewBox="0 0 34 28" fill="none">
  <path d="M33.3301 22.076L27.8824 27.6187C27.764 27.7391 27.6207 27.8351 27.4615 27.9007C27.3023 27.9663 27.1305 28.0001 26.9569 28H1.13243C1.00921 28 0.888671 27.9658 0.78563 27.9017C0.682588 27.8376 0.601529 27.7464 0.552413 27.6391C0.503297 27.532 0.488264 27.4135 0.509161 27.2983C0.530058 27.183 0.585974 27.0761 0.670039 26.9907L6.1218 21.448C6.23991 21.3279 6.38272 21.2321 6.54142 21.1665C6.70015 21.1009 6.87135 21.0669 7.04449 21.0667H32.8676C32.9908 21.0667 33.1113 21.1008 33.2144 21.1649C33.3174 21.229 33.3984 21.3203 33.4477 21.4275C33.4967 21.5347 33.5118 21.6532 33.4909 21.7684C33.4699 21.8836 33.4141 21.9905 33.3301 22.076ZM27.8824 10.9147C27.764 10.7943 27.6207 10.6983 27.4615 10.6327C27.3023 10.5671 27.1305 10.5332 26.9569 10.5333H1.13243C1.00921 10.5333 0.888671 10.5675 0.78563 10.6316C0.682588 10.6957 0.601529 10.787 0.552413 10.8942C0.503297 11.0014 0.488264 11.1199 0.509161 11.2351C0.530058 11.3503 0.585974 11.4572 0.670039 11.5427L6.1218 17.0853C6.23991 17.2054 6.38272 17.3012 6.54142 17.3668C6.70015 17.4324 6.87135 17.4664 7.04449 17.4667H32.8676C32.9908 17.4667 33.1113 17.4325 33.2144 17.3684C33.3174 17.3043 33.3984 17.213 33.4477 17.1058C33.4967 16.9986 33.5118 16.8801 33.4909 16.7649C33.4699 16.6497 33.4141 16.5428 33.3301 16.4573L27.8824 10.9147ZM1.13243 6.93334H26.9569C27.1305 6.9334 27.3023 6.89961 27.4615 6.834C27.6207 6.7684 27.764 6.6724 27.8824 6.552L33.3301 1.00933C33.4141 0.923863 33.4699 0.816957 33.4909 0.70175C33.5118 0.586543 33.4967 0.468055 33.4477 0.360844C33.3984 0.253632 33.3174 0.162367 33.2144 0.0982619C33.1113 0.0341565 32.9908 3.94781e-06 32.8676 0H7.04449C6.87135 0.00027949 6.70015 0.0342679 6.54142 0.0998607C6.38272 0.165454 6.23991 0.261255 6.1218 0.381335L0.671444 5.924C0.58746 6.00937 0.531569 6.11619 0.510625 6.23124C0.489681 6.34633 0.504595 6.46472 0.553537 6.57189C0.60248 6.67905 0.683324 6.7703 0.786154 6.83451C0.888985 6.89872 1.00933 6.93305 1.13243 6.93334Z" fill="white"/>
</svg>