<svg width="18" height="16" viewBox="0 0 18 16" fill="none" xmlns="http://www.w3.org/2000/svg">
<path d="M17.9073 12.4047L14.9359 15.428C14.8713 15.4937 14.7931 15.546 14.7063 15.5818C14.6194 15.6176 14.5257 15.6361 14.4311 15.636H0.344964C0.277751 15.636 0.212003 15.6174 0.155798 15.5824C0.0995933 15.5474 0.0553794 15.4977 0.028589 15.4392C0.00179863 15.3807 -0.00640125 15.3161 0.00499691 15.2532C0.016395 15.1904 0.0468946 15.1321 0.0927485 15.0855L3.06643 12.0622C3.13086 11.9967 3.20876 11.9444 3.29532 11.9087C3.3819 11.8729 3.47528 11.8543 3.56972 11.8542H17.655C17.7222 11.8542 17.788 11.8728 17.8442 11.9078C17.9004 11.9428 17.9446 11.9925 17.9715 12.051C17.9982 12.1095 18.0064 12.1741 17.995 12.237C17.9836 12.2998 17.9531 12.3581 17.9073 12.4047ZM14.9359 6.31673C14.8713 6.25106 14.7931 6.1987 14.7063 6.16291C14.6194 6.12714 14.5257 6.10869 14.4311 6.10874H0.344964C0.277751 6.10874 0.212003 6.12737 0.155798 6.16234C0.0995933 6.19731 0.0553794 6.24708 0.028589 6.30555C0.00179863 6.36404 -0.00640125 6.42867 0.00499691 6.49152C0.016395 6.55434 0.0468946 6.61266 0.0927485 6.65929L3.06643 9.68256C3.13086 9.74806 3.20876 9.8003 3.29532 9.83609C3.3819 9.87186 3.47528 9.89041 3.56972 9.89055H17.655C17.7222 9.89055 17.788 9.87193 17.8442 9.83695C17.9004 9.80198 17.9446 9.75221 17.9715 9.69374C17.9982 9.63525 18.0064 9.57062 17.995 9.50778C17.9836 9.44495 17.9531 9.38663 17.9073 9.34L14.9359 6.31673ZM0.344964 4.1451H14.4311C14.5257 4.14514 14.6194 4.12671 14.7063 4.09092C14.7931 4.05513 14.8713 4.00277 14.9359 3.9371L17.9073 0.913827C17.9531 0.867207 17.9836 0.808894 17.995 0.746054C18.0064 0.683214 17.9982 0.618584 17.9715 0.560105C17.9446 0.501626 17.9004 0.451845 17.8442 0.416879C17.788 0.381912 17.7222 0.363283 17.655 0.363281H3.56972C3.47528 0.363434 3.3819 0.381973 3.29532 0.417751C3.20876 0.453529 3.13086 0.505784 3.06643 0.571282L0.093515 3.59456C0.0477055 3.64112 0.0172194 3.69938 0.00579538 3.76214C-0.00562864 3.82491 0.00250617 3.88949 0.0292021 3.94795C0.055898 4.0064 0.0999946 4.05617 0.156084 4.0912C0.212174 4.12622 0.277817 4.14495 0.344964 4.1451Z" fill="#0448F8"/>
</svg>
