<svg xmlns="http://www.w3.org/2000/svg" width="14" height="14" viewBox="0 0 14 14" fill="none">
<path d="M11.7289 4.26248C11.6926 4.15945 11.6036 4.07453 11.4782 4.02269C11.5054 3.79004 11.465 3.5049 11.3958 3.27037C11.3371 3.07723 11.2448 2.86145 11.1038 2.63659C10.9545 2.41432 10.7705 2.17777 10.5124 1.96004C10.2674 1.73453 9.95158 1.52906 9.59521 1.34825C6.48673 -0.201149 2.1946 1.63144 2.52778 4.02334C2.40326 4.07518 2.31499 4.15945 2.27874 4.26183C1.54303 4.27221 0.95166 4.70183 0.95166 5.23259C0.95166 5.76335 1.54303 6.19361 2.27874 6.204C2.33729 6.37118 2.53851 6.49821 2.79011 6.49821C3.08786 6.49821 3.32781 6.32519 3.32781 6.11129V4.35512C3.32781 4.23335 3.24532 4.12896 3.12411 4.05837C3.25853 3.45372 3.65859 2.8148 4.21941 2.41821C5.04256 1.78767 6.47105 1.42344 8.04138 1.6982C8.64597 1.8395 9.24056 2.07734 9.73632 2.45837C10.2881 2.84783 10.7359 3.43172 10.8819 4.05837C10.5643 4.24366 10.6781 4.40378 10.6781 6.11129C10.6781 6.2448 10.7788 6.35691 10.9215 6.42626V6.57529C10.9215 6.6693 10.8877 6.76194 10.8225 6.84167C10.1198 7.70221 10.0736 7.78973 9.01217 8.0567C8.67809 8.14032 8.30115 8.17659 7.92017 8.24984C7.56883 7.97703 6.94938 8.15648 6.94938 8.52135C6.94938 8.98211 7.86485 9.08773 8.04221 8.62697C8.2995 8.57773 8.56431 8.5486 8.81334 8.48898C10.1825 8.16167 10.6303 7.9673 11.3553 6.88054C11.4237 6.77751 11.4601 6.66346 11.4601 6.54746V6.4515C11.5953 6.40096 11.6909 6.31221 11.7289 6.20335C12.4638 6.19297 13.0544 5.76335 13.0544 5.23259C13.0544 4.70247 12.4638 4.27351 11.7289 4.26248Z" fill="#0038FF"/>
<mask id="mask0_30_4144" style="mask-type:luminance" maskUnits="userSpaceOnUse" x="0" y="8" width="14" height="6">
<path d="M0.5 8.64844H13.5V13.2241H0.5V8.64844Z" fill="white"/>
</mask>
<g mask="url(#mask0_30_4144)">
<path d="M7.00486 10.5409C7.44447 10.0562 7.82719 9.63945 8.20248 9.21892C8.64209 8.72572 9.085 8.56631 9.77942 8.75037C10.6619 8.98432 11.5354 9.2461 12.3898 9.53837C13.1231 9.78919 13.5346 10.2376 13.4893 10.9025C13.4661 11.2297 13.4893 11.5583 13.4835 11.8862C13.4686 12.7896 12.9449 13.2101 11.8059 13.2146C10.3353 13.2218 8.86478 13.2172 7.39419 13.2172C5.6853 13.2172 3.97549 13.2205 2.26743 13.2153C1.04513 13.2108 0.529636 12.8006 0.52303 11.8453C0.520553 11.533 0.542848 11.22 0.518076 10.909C0.463662 10.2169 0.917308 9.77232 1.66532 9.51826C2.52059 9.228 3.39816 8.97588 4.28233 8.74583C5.0362 8.54886 5.26955 8.63697 5.73641 9.15086C6.13803 9.59345 6.54304 10.0347 7.00486 10.5409Z" fill="#0038FF"/>
</g>
<path d="M10.1198 4.77444C10.0389 5.58969 9.71154 6.63103 8.62366 7.43331C7.70159 8.11309 6.2945 8.12996 5.38729 7.43396C4.13031 6.46903 3.73363 5.24233 3.92825 3.91773C4.02973 3.22497 4.56744 2.67936 5.4706 2.44735C6.81329 2.10195 8.11395 2.06763 9.29587 2.80574C9.98617 3.236 10.1437 3.82704 10.1198 4.77444Z" fill="#0038FF"/>
</svg>