<svg width="25" height="25" viewBox="0 0 25 25" fill="none" xmlns="http://www.w3.org/2000/svg">
<path d="M20.8766 4.1545C20.8766 4.1545 22.8193 3.397 22.6574 5.23664C22.6034 5.99415 22.1178 8.6454 21.74 11.5131L20.4449 20.0079C20.4449 20.0079 20.337 21.2524 19.3657 21.4688C18.3943 21.6852 16.9374 20.7113 16.6675 20.4949C16.4517 20.3326 12.6204 17.8977 11.2713 16.7074C10.8935 16.3827 10.4618 15.7334 11.3252 14.976L16.9913 9.56525C17.6389 8.91595 18.2864 7.40095 15.5883 9.2406L8.03354 14.3808C8.03354 14.3808 7.17014 14.9219 5.55129 14.4349L2.0437 13.3527C2.0437 13.3527 0.748598 12.5412 2.96107 11.7295C8.35734 9.18645 14.9947 6.5893 20.8766 4.1545Z" fill="#0E4FF8"/>
</svg>
