<svg xmlns="http://www.w3.org/2000/svg" width="21" height="28" viewBox="0 0 21 28" fill="none">
  <mask id="mask0_2050_7581" style="mask-type:luminance" maskUnits="userSpaceOnUse" x="0" y="0" width="21" height="28">
    <path d="M0.75 0.251953H20.75V27.7482H0.75V0.251953Z" fill="white"/>
  </mask>
  <g mask="url(#mask0_2050_7581)">
    <path d="M10.5414 19.6954C12.6884 15.8849 11.7895 11.0897 8.40392 8.29415C8.40192 8.29255 8.39992 8.29055 8.39832 8.28935L8.41302 8.32574L8.41062 8.35304C9.07028 10.0949 8.97768 12.0073 8.16744 13.648L7.59638 14.8048L7.42109 13.5266C7.30209 12.6597 6.97502 11.8325 6.47125 11.1245H6.39175L6.34976 11.0059C6.35576 12.3307 6.07647 13.6358 5.52881 14.8669C4.81026 16.4779 4.91585 18.3357 5.81159 19.8373L6.42965 20.8739L5.31762 20.4043C3.48384 19.6297 2.01774 18.1377 1.29529 16.3107C0.485741 14.2707 0.635631 11.9053 1.69666 9.98464C2.24993 8.9856 2.6375 7.92487 2.84909 6.83134L3.05587 5.75951L3.58344 6.71545C3.83542 7.17132 4.02081 7.66469 4.1359 8.18305L4.1478 8.19525L4.1601 8.27835L4.1715 8.27475C5.7518 6.17579 6.69863 3.56406 6.83662 0.91953L6.87222 0.234375L7.44719 0.60925C9.79393 2.13805 11.4237 4.59079 11.9272 7.34681L11.9386 7.4034L11.9446 7.4121L11.9703 7.37571C12.4302 6.76845 12.673 6.04609 12.673 5.28584V4.10852L13.3837 5.04706C15.036 7.22862 15.883 9.93484 15.7691 12.6676C15.6291 15.8841 13.8745 18.7074 11.0749 20.237L9.86283 20.8992L10.5414 19.6954Z" fill="white"/>
  </g>
</svg>