<svg width="24" height="24" viewBox="0 0 24 24" fill="none" xmlns="http://www.w3.org/2000/svg">
<g clip-path="url(#clip0_347_2653)">
<path d="M23.2488 5.13022C22.4048 5.49692 21.5119 5.73851 20.5982 5.84735C21.5584 5.28507 22.2806 4.39179 22.6291 3.33504C21.7213 3.8659 20.7297 4.23838 19.6969 4.43652C19.2619 3.98071 18.7389 3.6181 18.1595 3.37073C17.58 3.12336 16.9564 2.9964 16.3263 2.99757C13.7756 2.99757 11.7114 5.03179 11.7114 7.53941C11.7096 7.88821 11.7495 8.23598 11.8304 8.57527C10.0014 8.48953 8.21033 8.02293 6.57192 7.20534C4.9335 6.38775 3.48379 5.23716 2.31553 3.82719C1.90567 4.51813 1.68892 5.30648 1.68792 6.10983C1.68792 7.68471 2.50957 9.0768 3.75026 9.89236C3.01519 9.87492 2.29518 9.68036 1.65136 9.32522V9.38146C1.65136 11.5844 3.24499 13.4171 5.3542 13.8343C4.95757 13.94 4.54884 13.9936 4.13836 13.9936C3.84709 13.9941 3.55648 13.9659 3.27077 13.9092C3.85713 15.7138 5.56372 17.0262 7.58528 17.0637C5.94262 18.3297 3.92585 19.0139 1.85197 19.0089C1.48385 19.0083 1.11607 18.9864 0.750488 18.9432C2.86026 20.2904 5.3127 21.003 7.81589 20.9962C16.3165 20.9962 20.9605 14.0733 20.9605 8.06906C20.9605 7.8722 20.9554 7.67534 20.946 7.48317C21.8474 6.84199 22.6272 6.0452 23.2488 5.13022Z" fill="#EDEDF2"/>
</g>
<defs>
<clipPath id="clip0_347_2653">
<rect width="23.9982" height="23.9982" fill="white" transform="translate(0.00195312 0.000976562)"/>
</clipPath>
</defs>
</svg>
