<svg xmlns="http://www.w3.org/2000/svg" width="25" height="24" viewBox="0 0 25 24" fill="none">
  <path d="M12.5 3.75C9.6084 3.75 7.25 6.1084 7.25 9C7.25 10.8076 8.17285 12.4131 9.57031 13.3594C6.89551 14.5078 5 17.1621 5 20.25H6.5C6.5 16.9277 9.17773 14.25 12.5 14.25C15.8223 14.25 18.5 16.9277 18.5 20.25H20C20 17.1621 18.1045 14.5078 15.4297 13.3594C16.8271 12.4131 17.75 10.8076 17.75 9C17.75 6.1084 15.3916 3.75 12.5 3.75ZM12.5 5.25C14.5801 5.25 16.25 6.91992 16.25 9C16.25 11.0801 14.5801 12.75 12.5 12.75C10.4199 12.75 8.75 11.0801 8.75 9C8.75 6.91992 10.4199 5.25 12.5 5.25Z" fill="white"/>
</svg>