<svg xmlns="http://www.w3.org/2000/svg" width="19" height="18" viewBox="0 0 19 18" fill="none">
<g clip-path="url(#clip0_30_4112)">
<path d="M15.375 13.5C13.5142 13.5 12 11.9858 12 10.125C12 8.26425 13.5142 6.75 15.375 6.75H17.25V5.25C17.25 4.42275 16.5773 3.75 15.75 3.75H15V2.25C15 1.42275 14.3273 0.75 13.5 0.75H3C2.46947 0.751271 1.95648 0.940093 1.55173 1.28308C1.14699 1.62607 0.876552 2.10112 0.78825 2.62425C0.77175 2.68575 0.75 2.74575 0.75 2.8125V14.25C0.75 15.4905 1.7595 16.5 3 16.5H15.75C16.5773 16.5 17.25 15.8273 17.25 15V13.5H15.375ZM2.25 3C2.25 2.58675 2.586 2.25 3 2.25H13.5V3.75H3C2.586 3.75 2.25 3.41325 2.25 3Z" fill="white"/>
<path d="M18.1875 7.875H15.375C14.1345 7.875 13.125 8.8845 13.125 10.125C13.125 11.3655 14.1345 12.375 15.375 12.375H18.1875C18.3367 12.375 18.4798 12.3157 18.5852 12.2102C18.6907 12.1048 18.75 11.9617 18.75 11.8125V8.4375C18.75 8.28832 18.6907 8.14524 18.5852 8.03975C18.4798 7.93426 18.3367 7.875 18.1875 7.875ZM15.375 10.875C15.1761 10.875 14.9853 10.796 14.8447 10.6553C14.704 10.5147 14.625 10.3239 14.625 10.125C14.625 9.92609 14.704 9.73532 14.8447 9.59467C14.9853 9.45402 15.1761 9.375 15.375 9.375C15.5739 9.375 15.7647 9.45402 15.9053 9.59467C16.046 9.73532 16.125 9.92609 16.125 10.125C16.125 10.3239 16.046 10.5147 15.9053 10.6553C15.7647 10.796 15.5739 10.875 15.375 10.875Z" fill="white"/>
</g>
<defs>
<clipPath id="clip0_30_4112">
<rect width="18" height="18" fill="white" transform="translate(0.75)"/>
</clipPath>
</defs>
</svg>