<svg width="25" height="25" viewBox="0 0 25 25" fill="none" xmlns="http://www.w3.org/2000/svg">
<path d="M17.193 14.5C17.273 13.84 17.333 13.18 17.333 12.5C17.333 11.82 17.273 11.16 17.193 10.5H20.573C20.733 11.14 20.833 11.81 20.833 12.5C20.833 13.19 20.733 13.86 20.573 14.5H17.193ZM15.423 20.06C16.023 18.95 16.483 17.75 16.803 16.5H19.753C18.793 18.15 17.263 19.43 15.423 20.06ZM15.173 14.5H10.493C10.393 13.84 10.333 13.18 10.333 12.5C10.333 11.82 10.393 11.15 10.493 10.5H15.173C15.263 11.15 15.333 11.82 15.333 12.5C15.333 13.18 15.263 13.84 15.173 14.5ZM12.833 20.46C12.003 19.26 11.333 17.93 10.923 16.5H14.743C14.333 17.93 13.663 19.26 12.833 20.46ZM8.83301 8.5H5.91301C6.86301 6.84 8.40301 5.56 10.233 4.94C9.63301 6.05 9.18301 7.25 8.83301 8.5ZM5.91301 16.5H8.83301C9.18301 17.75 9.63301 18.95 10.233 20.06C8.40301 19.43 6.86301 18.15 5.91301 16.5ZM5.09301 14.5C4.93301 13.86 4.83301 13.19 4.83301 12.5C4.83301 11.81 4.93301 11.14 5.09301 10.5H8.47301C8.39301 11.16 8.33301 11.82 8.33301 12.5C8.33301 13.18 8.39301 13.84 8.47301 14.5H5.09301ZM12.833 4.53C13.663 5.73 14.333 7.07 14.743 8.5H10.923C11.333 7.07 12.003 5.73 12.833 4.53ZM19.753 8.5H16.803C16.483 7.25 16.023 6.05 15.423 4.94C17.263 5.57 18.793 6.84 19.753 8.5ZM12.833 2.5C7.30301 2.5 2.83301 7 2.83301 12.5C2.83301 15.1522 3.88658 17.6957 5.76194 19.5711C6.69053 20.4997 7.79292 21.2362 9.00617 21.7388C10.2194 22.2413 11.5198 22.5 12.833 22.5C15.4852 22.5 18.0287 21.4464 19.9041 19.5711C21.7794 17.6957 22.833 15.1522 22.833 12.5C22.833 11.1868 22.5744 9.88642 22.0718 8.67317C21.5693 7.45991 20.8327 6.35752 19.9041 5.42893C18.9755 4.50035 17.8731 3.76375 16.6598 3.2612C15.4466 2.75866 14.1462 2.5 12.833 2.5Z" fill="#0F50F9"/>
</svg>
