<svg xmlns="http://www.w3.org/2000/svg" width="20" height="20" viewBox="0 0 20 20" fill="none">
  <path d="M5.03125 9.44461H7.23177C7.23785 9.09276 7.26177 8.74216 7.30372 8.39282C7.34558 8.04338 7.40519 7.69712 7.48254 7.35385C7.5599 7.01049 7.65451 6.67204 7.7664 6.33852C7.87828 6.00489 8.00694 5.67783 8.15239 5.35742C8.04784 5.39909 7.94483 5.44432 7.84327 5.49294C7.7418 5.54164 7.64207 5.59363 7.54408 5.64899C7.44608 5.70435 7.35012 5.763 7.25608 5.82482C7.16204 5.88665 7.07022 5.95165 6.98052 6.01965C6.89091 6.08765 6.80363 6.15864 6.71875 6.23261C6.63387 6.3065 6.5516 6.38317 6.47193 6.46265C6.39217 6.54212 6.3153 6.6242 6.24103 6.70879C6.16686 6.79348 6.09568 6.88057 6.02739 6.96998C5.95901 7.05939 5.89381 7.15111 5.83169 7.24496C5.76958 7.33881 5.71065 7.43458 5.655 7.53238C5.59934 7.63028 5.54697 7.72982 5.49807 7.83119C5.44907 7.93246 5.40355 8.03537 5.36159 8.13983C5.31954 8.24419 5.28106 8.3499 5.24614 8.45686C5.21123 8.56392 5.17998 8.67195 5.15239 8.78103C5.12481 8.89012 5.10089 9.00007 5.08063 9.1108C5.06038 9.22152 5.04398 9.33283 5.03125 9.44461Z" fill="white"/>
  <path d="M9.99835 5C9.3611 5 8.45331 6.71335 8.34277 9.44444H11.6539C11.5434 6.71335 10.6356 5 9.99835 5Z" fill="white"/>
  <path d="M9.99835 14.9991C10.6356 14.9991 11.5434 13.2858 11.6539 10.5547H8.34277C8.45331 13.2858 9.3611 14.9991 9.99835 14.9991Z" fill="white"/>
  <path d="M5.03125 10.5547C5.04398 10.6665 5.06047 10.7778 5.08063 10.8885C5.10089 10.9992 5.12481 11.1091 5.15239 11.2183C5.18007 11.3274 5.21132 11.4354 5.24624 11.5423C5.28115 11.6494 5.31964 11.7551 5.36159 11.8595C5.40365 11.9639 5.44917 12.0667 5.49807 12.1681C5.54707 12.2695 5.59944 12.369 5.65509 12.4668C5.71074 12.5646 5.76968 12.6605 5.83179 12.7543C5.8939 12.8482 5.95911 12.9398 6.02739 13.0292C6.09578 13.1187 6.16696 13.2057 6.24113 13.2904C6.3153 13.3751 6.39226 13.4571 6.47193 13.5366C6.5517 13.616 6.63397 13.6927 6.71885 13.7667C6.80372 13.8406 6.89091 13.9116 6.98061 13.9796C7.07022 14.0476 7.16213 14.1126 7.25608 14.1744C7.35012 14.2363 7.44618 14.2948 7.54417 14.3503C7.64207 14.4057 7.7418 14.4577 7.84336 14.5064C7.94483 14.555 8.04784 14.6002 8.15239 14.6419C8.00694 14.3215 7.87828 13.9944 7.7664 13.6608C7.65451 13.3273 7.5599 12.9888 7.48254 12.6454C7.40519 12.3022 7.34558 11.9559 7.30372 11.6065C7.26177 11.2571 7.23785 10.9065 7.23177 10.5547H5.03125Z" fill="white"/>
  <path d="M9.99805 0C9.83437 0 9.67079 0.00405091 9.5074 0.0120563C9.34392 0.0200617 9.18072 0.032118 9.01792 0.0481289C8.85501 0.0642361 8.69259 0.0842014 8.53074 0.108218C8.3689 0.132234 8.20763 0.160204 8.04714 0.19213C7.88665 0.224055 7.72702 0.259934 7.56826 0.299672C7.40951 0.33941 7.25181 0.383102 7.09517 0.430556C6.93863 0.478106 6.78325 0.529417 6.62912 0.584587C6.47509 0.63966 6.32241 0.698592 6.17118 0.761188C6.02004 0.823881 5.87044 0.890143 5.72249 0.960069C5.57453 1.03009 5.42841 1.10368 5.28412 1.18075C5.13973 1.25791 4.99737 1.33854 4.85704 1.42274C4.7166 1.50685 4.57839 1.59443 4.4423 1.68528C4.3063 1.77623 4.17253 1.87047 4.04106 1.96788C3.9096 2.06539 3.78065 2.16609 3.6541 2.26987C3.52756 2.37375 3.40372 2.48061 3.28248 2.59047C3.16124 2.70042 3.0427 2.81318 2.92696 2.92892C2.81122 3.04466 2.69847 3.16319 2.58852 3.28443C2.47866 3.40567 2.37179 3.52951 2.26792 3.65606C2.16413 3.7826 2.06344 3.91155 1.96593 4.04302C1.86851 4.17448 1.77428 4.30826 1.68333 4.44425C1.59247 4.58034 1.50489 4.71856 1.42079 4.85899C1.33659 4.99932 1.25596 5.14169 1.1788 5.28607C1.10173 5.43036 1.02814 5.57649 0.958116 5.72444C0.88819 5.8724 0.821928 6.02199 0.759235 6.17313C0.696639 6.32436 0.637707 6.47704 0.582634 6.63108C0.527464 6.7852 0.476153 6.94059 0.428602 7.09713C0.381149 7.25376 0.337457 7.41146 0.297719 7.57022C0.257981 7.72897 0.222102 7.8886 0.190177 8.04909C0.158251 8.20959 0.130281 8.37085 0.106264 8.5327C0.0822483 8.69454 0.062283 8.85696 0.0461757 9.01987C0.0301649 9.18268 0.0181086 9.34587 0.0101032 9.50936C0.00209779 9.67274 -0.00195312 9.83632 -0.00195312 10C-0.00195312 10.1637 0.00209779 10.3273 0.0101032 10.4906C0.0181086 10.6541 0.0301649 10.8173 0.0461757 10.9801C0.062283 11.143 0.0822483 11.3055 0.106264 11.4673C0.130281 11.6291 0.158251 11.7904 0.190177 11.9509C0.222102 12.1114 0.257981 12.271 0.297719 12.4298C0.337457 12.5885 0.381149 12.7462 0.428602 12.9029C0.476153 13.0594 0.527464 13.2148 0.582634 13.3689C0.637707 13.523 0.696639 13.6756 0.759235 13.8269C0.821928 13.978 0.88819 14.1276 0.958116 14.2756C1.02814 14.4235 1.10173 14.5696 1.1788 14.7139C1.25596 14.8583 1.33659 15.0007 1.42079 15.141C1.50489 15.2814 1.59247 15.4197 1.68333 15.5557C1.77428 15.6917 1.86851 15.8255 1.96593 15.957C2.06344 16.0884 2.16413 16.2174 2.26792 16.3439C2.37179 16.4705 2.47866 16.5943 2.58852 16.7156C2.69847 16.8368 2.81122 16.9553 2.92696 17.0711C3.0427 17.1868 3.16124 17.2996 3.28248 17.4095C3.40372 17.5194 3.52756 17.6263 3.6541 17.7301C3.78065 17.8339 3.9096 17.9346 4.04106 18.0321C4.17253 18.1295 4.3063 18.2238 4.4423 18.3147C4.57839 18.4056 4.7166 18.4932 4.85704 18.5773C4.99737 18.6615 5.13973 18.7421 5.28412 18.8193C5.42841 18.8963 5.57453 18.9699 5.72249 19.0399C5.87044 19.1099 6.02004 19.1761 6.17118 19.2388C6.32241 19.3014 6.47509 19.3603 6.62912 19.4154C6.78325 19.4706 6.93863 19.5219 7.09517 19.5694C7.25181 19.6169 7.40951 19.6606 7.56826 19.7003C7.72702 19.7401 7.88665 19.7759 8.04714 19.8079C8.20763 19.8398 8.3689 19.8678 8.53074 19.8918C8.69259 19.9158 8.85501 19.9358 9.01792 19.9519C9.18072 19.9679 9.34392 19.9799 9.5074 19.9879C9.67079 19.9959 9.83437 20 9.99805 20C10.1617 20 10.3253 19.9959 10.4887 19.9879C10.6522 19.9799 10.8154 19.9679 10.9782 19.9519C11.1411 19.9358 11.3035 19.9158 11.4654 19.8918C11.6272 19.8678 11.7885 19.8398 11.949 19.8079C12.1094 19.7759 12.2691 19.7401 12.4278 19.7003C12.5866 19.6606 12.7443 19.6169 12.9009 19.5694C13.0575 19.5219 13.2128 19.4706 13.367 19.4154C13.521 19.3603 13.6737 19.3014 13.8249 19.2388C13.9761 19.1761 14.1257 19.1099 14.2736 19.0399C14.4216 18.9699 14.5677 18.8963 14.712 18.8193C14.8564 18.7421 14.9987 18.6615 15.1391 18.5773C15.2795 18.4932 15.4177 18.4056 15.5537 18.3147C15.6898 18.2238 15.8236 18.1295 15.955 18.0321C16.0865 17.9346 16.2154 17.8339 16.342 17.7301C16.4685 17.6263 16.5924 17.5194 16.7136 17.4095C16.8349 17.2996 16.9534 17.1868 17.0691 17.0711C17.1849 16.9553 17.2976 16.8368 17.4076 16.7156C17.5174 16.5943 17.6243 16.4705 17.7282 16.3439C17.832 16.2174 17.9327 16.0884 18.0302 15.957C18.1276 15.8255 18.2218 15.6917 18.3128 15.5557C18.4036 15.4197 18.4912 15.2814 18.5753 15.141C18.6595 15.0007 18.7401 14.8583 18.8173 14.7139C18.8944 14.5696 18.968 14.4235 19.038 14.2756C19.1079 14.1276 19.1742 13.978 19.2369 13.8269C19.2995 13.6756 19.3584 13.523 19.4135 13.3689C19.4686 13.2148 19.5199 13.0594 19.5675 12.9029C19.6149 12.7462 19.6586 12.5885 19.6984 12.4298C19.7381 12.271 19.774 12.1114 19.8059 11.9509C19.8378 11.7904 19.8658 11.6291 19.8898 11.4673C19.9138 11.3055 19.9338 11.143 19.9499 10.9801C19.9659 10.8173 19.978 10.6541 19.986 10.4906C19.994 10.3273 19.998 10.1637 19.998 10C19.9979 9.83642 19.9936 9.67294 19.9854 9.50945C19.9772 9.34606 19.9651 9.18297 19.9489 9.02016C19.9327 8.85735 19.9125 8.69512 19.8883 8.53328C19.8642 8.37143 19.836 8.21036 19.804 8.04986C19.7719 7.88947 19.736 7.72994 19.6961 7.57128C19.6562 7.41262 19.6124 7.25502 19.5648 7.09848C19.5172 6.94194 19.4658 6.78665 19.4106 6.63262C19.3554 6.47868 19.2965 6.3261 19.2338 6.17496C19.171 6.02382 19.1046 5.87432 19.0346 5.72647C18.9646 5.57861 18.891 5.43258 18.8138 5.28829C18.7367 5.1441 18.6559 5.00183 18.5718 4.8615C18.4876 4.72116 18.4001 4.58304 18.3092 4.44705C18.2182 4.31105 18.124 4.17737 18.0265 4.04601C17.9291 3.91454 17.8284 3.78569 17.7246 3.65924C17.6207 3.5327 17.514 3.40895 17.404 3.28771C17.2942 3.16647 17.1814 3.04803 17.0657 2.93239C16.95 2.81665 16.8316 2.7039 16.7103 2.59404C16.5891 2.48409 16.4653 2.37731 16.3388 2.27344C16.2124 2.16966 16.0835 2.06896 15.952 1.97155C15.8207 1.87404 15.687 1.7798 15.551 1.68885C15.415 1.59799 15.2768 1.51042 15.1365 1.42622C14.9962 1.34211 14.8539 1.26138 14.7098 1.18422C14.5655 1.10706 14.4194 1.03347 14.2716 0.963445C14.1236 0.893422 13.9742 0.826968 13.8231 0.764275C13.6719 0.701582 13.5194 0.64265 13.3654 0.587481C13.2114 0.532215 13.0561 0.480806 12.8996 0.433256C12.743 0.38561 12.5854 0.341821 12.4268 0.301987C12.2681 0.262056 12.1086 0.226177 11.9482 0.194059C11.7877 0.162037 11.6266 0.133873 11.4648 0.109761C11.3029 0.0855517 11.1407 0.0653935 10.9779 0.0491898C10.8151 0.0329861 10.652 0.0208333 10.4886 0.012635C10.3251 0.00443674 10.1616 0.000192901 9.99805 0ZM9.99805 16.1111C9.89803 16.1111 9.79811 16.1087 9.69818 16.1038C9.59826 16.0989 9.49863 16.0915 9.39909 16.0817C9.29955 16.0719 9.2003 16.0596 9.10135 16.0449C9.00239 16.0303 8.90391 16.0132 8.80582 15.9937C8.70773 15.9742 8.61022 15.9523 8.51319 15.928C8.41616 15.9036 8.31981 15.877 8.22413 15.848C8.12835 15.819 8.03344 15.7876 7.93931 15.7539C7.84508 15.7202 7.75181 15.6842 7.65941 15.6459C7.56701 15.6076 7.47557 15.5671 7.3852 15.5244C7.29483 15.4816 7.20551 15.4366 7.11726 15.3896C7.0291 15.3424 6.94211 15.2931 6.85626 15.2417C6.77052 15.1903 6.68603 15.1368 6.60289 15.0812C6.51975 15.0257 6.43796 14.9681 6.35761 14.9085C6.27737 14.849 6.19847 14.7874 6.12121 14.724C6.04386 14.6605 5.96815 14.5952 5.89407 14.5281C5.82 14.4608 5.74756 14.392 5.67687 14.3212C5.60607 14.2505 5.53721 14.178 5.46998 14.104C5.40285 14.0299 5.33755 13.9542 5.27409 13.8768C5.21062 13.7996 5.14909 13.7207 5.08958 13.6403C5.02997 13.5601 4.97239 13.4783 4.91684 13.3952C4.86128 13.312 4.80775 13.2275 4.75634 13.1418C4.70493 13.0559 4.65565 12.9689 4.60848 12.8808C4.56142 12.7925 4.51647 12.7032 4.47364 12.6128C4.43092 12.5225 4.39041 12.431 4.35212 12.3386C4.31383 12.2462 4.27785 12.153 4.24419 12.0587C4.21043 11.9646 4.17908 11.8697 4.15005 11.7739C4.12102 11.6782 4.0944 11.5819 4.0701 11.4849C4.04579 11.3878 4.0239 11.2903 4.00432 11.1922C3.98483 11.0941 3.96776 10.9957 3.9531 10.8967C3.93844 10.7977 3.92619 10.6985 3.91635 10.599C3.90652 10.4994 3.89918 10.3998 3.89427 10.2999C3.88935 10.1999 3.88694 10.1 3.88694 10C3.88694 9.89998 3.88935 9.80006 3.89427 9.70014C3.89918 9.60021 3.90652 9.50058 3.91635 9.40104C3.92619 9.30151 3.93844 9.20226 3.9531 9.1033C3.96776 9.00434 3.98483 8.90586 4.00432 8.80777C4.0239 8.70968 4.04579 8.61217 4.0701 8.51514C4.0944 8.41811 4.12102 8.32176 4.15005 8.22608C4.17908 8.13031 4.21043 8.0354 4.24419 7.94126C4.27785 7.84703 4.31383 7.75376 4.35212 7.66136C4.39041 7.56896 4.43092 7.47753 4.47364 7.38715C4.51647 7.29678 4.56142 7.20747 4.60848 7.11921C4.65565 7.03106 4.70493 6.94406 4.75634 6.85822C4.80775 6.77247 4.86128 6.68798 4.91684 6.60484C4.97239 6.5217 5.02997 6.43991 5.08958 6.35957C5.14909 6.27932 5.21062 6.20042 5.27409 6.12317C5.33755 6.04581 5.40285 5.9701 5.46998 5.89603C5.53721 5.82195 5.60607 5.74952 5.67687 5.67882C5.74756 5.60802 5.82 5.53916 5.89407 5.47193C5.96815 5.4048 6.04386 5.33951 6.12121 5.27604C6.19847 5.21258 6.27737 5.15104 6.35761 5.09153C6.43796 5.03193 6.51975 4.97434 6.60289 4.91879C6.68603 4.86323 6.77052 4.8097 6.85626 4.75829C6.94211 4.70689 7.0291 4.6576 7.11726 4.61044C7.20551 4.56337 7.29483 4.51842 7.3852 4.4756C7.47557 4.43287 7.56701 4.39236 7.65941 4.35407C7.75181 4.31578 7.84508 4.2798 7.93931 4.24614C8.03344 4.21238 8.12835 4.18104 8.22413 4.15201C8.31981 4.12297 8.41616 4.09635 8.51319 4.07205C8.61022 4.04774 8.70773 4.02585 8.80582 4.00627C8.90391 3.98679 9.00239 3.96971 9.10135 3.95505C9.2003 3.94039 9.29955 3.92814 9.39909 3.91831C9.49863 3.90847 9.59826 3.90114 9.69818 3.89622C9.79811 3.8913 9.89803 3.88889 9.99805 3.88889C10.0981 3.88889 10.198 3.8913 10.2979 3.89622C10.3978 3.90114 10.4975 3.90847 10.597 3.91831C10.6965 3.92814 10.7958 3.94039 10.8947 3.95505C10.9937 3.96971 11.0922 3.98679 11.1903 4.00627C11.2884 4.02585 11.3859 4.04774 11.4829 4.07205C11.5799 4.09635 11.6763 4.12297 11.772 4.15201C11.8677 4.18104 11.9626 4.21238 12.0568 4.24614C12.151 4.2798 12.2443 4.31578 12.3367 4.35407C12.4291 4.39236 12.5205 4.43287 12.6109 4.4756C12.7013 4.51842 12.7906 4.56337 12.8788 4.61044C12.967 4.6576 13.054 4.70689 13.1398 4.75829C13.2256 4.8097 13.3101 4.86323 13.3932 4.91879C13.4763 4.97434 13.5581 5.03193 13.6384 5.09153C13.7187 5.15104 13.7976 5.21258 13.8749 5.27604C13.9522 5.33951 14.0279 5.4048 14.102 5.47193C14.1761 5.53916 14.2485 5.60802 14.3192 5.67882C14.39 5.74952 14.4589 5.82195 14.5261 5.89603C14.5932 5.9701 14.6585 6.04581 14.722 6.12317C14.7855 6.20042 14.847 6.27932 14.9065 6.35957C14.9661 6.43991 15.0237 6.5217 15.0793 6.60484C15.1348 6.68798 15.1883 6.77247 15.2398 6.85822C15.2912 6.94406 15.3404 7.03106 15.3876 7.11921C15.4347 7.20747 15.4796 7.29678 15.5224 7.38715C15.5652 7.47753 15.6057 7.56896 15.644 7.66136C15.6823 7.75376 15.7182 7.84703 15.7519 7.94126C15.7857 8.0354 15.817 8.13031 15.846 8.22608C15.8751 8.32176 15.9017 8.41811 15.926 8.51514C15.9503 8.61217 15.9722 8.70968 15.9918 8.80777C16.0113 8.90586 16.0283 9.00434 16.043 9.1033C16.0577 9.20226 16.0699 9.30151 16.0797 9.40104C16.0896 9.50058 16.0969 9.60021 16.1018 9.70014C16.1067 9.80006 16.1092 9.89998 16.1092 10C16.1091 10.1 16.1065 10.1999 16.1014 10.2998C16.0964 10.3996 16.089 10.4993 16.0791 10.5988C16.0691 10.6983 16.0569 10.7975 16.042 10.8963C16.0273 10.9952 16.0101 11.0937 15.9905 11.1917C15.9709 11.2897 15.949 11.3872 15.9246 11.4842C15.9002 11.5812 15.8735 11.6775 15.8444 11.7731C15.8153 11.8688 15.7839 11.9637 15.7502 12.0578C15.7164 12.1519 15.6803 12.2452 15.642 12.3375C15.6038 12.4299 15.5632 12.5212 15.5204 12.6116C15.4776 12.7019 15.4327 12.7912 15.3854 12.8793C15.3382 12.9675 15.2889 13.0544 15.2375 13.1401C15.1861 13.2259 15.1326 13.3103 15.077 13.3934C15.0215 13.4766 14.9639 13.5583 14.9043 13.6386C14.8447 13.7188 14.7833 13.7976 14.7198 13.8749C14.6563 13.9522 14.591 14.0279 14.5239 14.1019C14.4568 14.176 14.3878 14.2484 14.3171 14.3191C14.2464 14.3898 14.1741 14.4587 14.1 14.5258C14.0259 14.593 13.9502 14.6583 13.873 14.7217C13.7957 14.7852 13.7169 14.8466 13.6366 14.9062C13.5563 14.9659 13.4746 15.0234 13.3915 15.079C13.3083 15.1345 13.2239 15.1881 13.1382 15.2395C13.0524 15.2909 12.9655 15.3402 12.8774 15.3873C12.7892 15.4346 12.6999 15.4796 12.6096 15.5224C12.5193 15.5651 12.4279 15.6057 12.3355 15.644C12.2432 15.6823 12.15 15.7184 12.0558 15.7521C11.9618 15.7859 11.8669 15.8172 11.7712 15.8464C11.6755 15.8755 11.5793 15.9022 11.4822 15.9265C11.3853 15.9509 11.2878 15.9729 11.1898 15.9925C11.0917 16.0121 10.9932 16.0292 10.8944 16.044C10.7955 16.0588 10.6963 16.0711 10.5968 16.081C10.4974 16.091 10.3976 16.0984 10.2978 16.1034C10.198 16.1084 10.0981 16.111 9.99805 16.1111Z" fill="white"/>
  <path d="M11.8438 5.35742C11.9892 5.67783 12.1179 6.00489 12.2297 6.33852C12.3416 6.67204 12.4362 7.01049 12.5136 7.35385C12.591 7.69712 12.6506 8.04338 12.6924 8.39282C12.7344 8.74216 12.7583 9.09276 12.7644 9.44461H14.9649C14.9522 9.33283 14.9358 9.22152 14.9155 9.1108C14.8953 9.00007 14.8713 8.89012 14.8438 8.78103C14.8162 8.67195 14.7849 8.56392 14.75 8.45686C14.7151 8.3499 14.6766 8.24419 14.6345 8.13983C14.5926 8.03537 14.5471 7.93246 14.4981 7.83119C14.4492 7.72982 14.3968 7.63028 14.3411 7.53238C14.2855 7.43458 14.2266 7.33881 14.1644 7.24496C14.1023 7.15111 14.0371 7.05939 13.9688 6.96998C13.9005 6.88057 13.8293 6.79348 13.755 6.70879C13.6808 6.6242 13.604 6.54212 13.5242 6.46265C13.4445 6.38317 13.3623 6.3065 13.2774 6.23261C13.1925 6.15864 13.1052 6.08765 13.0156 6.01965C12.9259 5.95165 12.8341 5.88665 12.7401 5.82482C12.646 5.763 12.5501 5.70435 12.4521 5.64899C12.3541 5.59363 12.2543 5.54164 12.1529 5.49294C12.0513 5.44432 11.9483 5.39909 11.8438 5.35742Z" fill="white"/>
  <path d="M11.8438 14.6419C11.9483 14.6002 12.0513 14.555 12.1528 14.5064C12.2543 14.4577 12.3541 14.4057 12.452 14.3503C12.55 14.2948 12.646 14.2363 12.7401 14.1744C12.834 14.1126 12.9259 14.0476 13.0155 13.9796C13.1052 13.9116 13.1924 13.8406 13.2773 13.7667C13.3622 13.6927 13.4444 13.616 13.5242 13.5366C13.6039 13.4571 13.6808 13.3751 13.755 13.2904C13.8292 13.2057 13.9004 13.1187 13.9688 13.0292C14.037 12.9398 14.1022 12.8482 14.1644 12.7543C14.2265 12.6605 14.2854 12.5646 14.341 12.4668C14.3967 12.369 14.4491 12.2695 14.4981 12.1681C14.547 12.0667 14.5925 11.9639 14.6345 11.8595C14.6765 11.7551 14.715 11.6494 14.7499 11.5423C14.7848 11.4354 14.8161 11.3274 14.8438 11.2183C14.8713 11.1091 14.8953 10.9992 14.9155 10.8885C14.9357 10.7778 14.9522 10.6665 14.9649 10.5547H12.7644C12.7583 10.9065 12.7344 11.2571 12.6924 11.6065C12.6506 11.9559 12.591 12.3022 12.5136 12.6454C12.4362 12.9888 12.3416 13.3273 12.2297 13.6608C12.1179 13.9944 11.9892 14.3215 11.8438 14.6419Z" fill="white"/>
</svg>