<svg width="64" height="64" viewBox="0 0 64 64" fill="none" xmlns="http://www.w3.org/2000/svg">
<path d="M46.9843 39.3328C46.9234 40.2473 46.511 40.9554 45.7309 41.4276C45.0141 41.8617 44.2836 42.2732 43.5592 42.6947C43.5374 42.7073 43.5166 42.7216 43.4953 42.7352C43.1998 42.9054 42.9038 43.0745 42.6095 43.2465C42.5378 43.2884 42.4568 43.3172 42.3998 43.3825L42.4003 43.3822C42.2438 43.4502 42.0953 43.5324 41.9602 43.6378L41.9607 43.6374C41.8041 43.7053 41.6558 43.7877 41.5205 43.893L41.521 43.8927C41.4001 43.934 41.297 44.0075 41.1915 44.0768C41.1619 44.1066 41.1145 44.1103 41.0897 44.1469C40.9635 44.1835 40.8604 44.2628 40.7518 44.3321C40.6784 44.3782 40.605 44.4243 40.5316 44.4706C40.4461 44.4861 40.3813 44.5409 40.3121 44.5875C39.8838 44.8341 39.4504 45.072 39.0288 45.3298C38.6649 45.5522 38.2956 45.7646 37.9278 45.9798C37.2042 46.4034 36.4829 46.831 35.7517 47.2408C34.9319 47.7001 34.1253 48.1827 33.3099 48.6496C32.9456 48.8582 32.556 48.9791 32.1365 48.9995C32.0457 48.9995 31.9549 48.9995 31.8641 48.9995C31.4374 48.9779 31.0421 48.8557 30.6724 48.6391C29.924 48.2002 29.1727 47.7663 28.4227 47.3299C28.3963 47.3146 28.3711 47.2971 28.3454 47.2806C28.3542 47.2479 28.3608 47.2146 28.3723 47.1829C28.6047 46.5405 28.8375 45.8983 29.0702 45.2561C29.0711 45.3008 29.1115 45.3063 29.1385 45.3221C30.0025 45.8251 30.8681 46.3253 31.7303 46.8312C31.9187 46.9418 32.0898 46.9384 32.2765 46.8281C32.8462 46.4913 33.4203 46.1621 33.9922 45.829C34.3108 45.6434 34.6283 45.456 34.9463 45.2695C34.9615 45.2625 34.9772 45.2566 34.9917 45.2483C35.5576 44.92 36.1234 44.5919 36.6888 44.263C37.1956 43.9681 37.7019 43.672 38.2084 43.3764C38.3159 43.3151 38.4243 43.2549 38.5312 43.1923C38.8567 43.0017 39.1817 42.8102 39.5069 42.6191C39.5272 42.6096 39.5485 42.6018 39.5678 42.5905C40.3918 42.1119 41.216 41.633 42.0395 41.1535C42.2805 41.0131 42.5199 40.8699 42.7602 40.7282C42.7681 40.7258 42.7771 40.7248 42.7842 40.7205C43.4063 40.3593 44.0291 39.999 44.6497 39.635C44.7745 39.5618 44.8465 39.4448 44.8692 39.2993C44.8903 39.2658 44.8841 39.2278 44.8841 39.1916C44.8844 34.4072 44.8844 29.6227 44.8841 24.8384C44.8841 24.8021 44.8912 24.7644 44.8699 24.7307C44.8484 24.5658 44.7566 24.4547 44.6156 24.3728C43.1599 23.5288 41.7053 22.6828 40.2504 21.8374C37.5917 20.2925 34.9326 18.748 32.2745 17.2018C32.0832 17.0905 31.9091 17.0796 31.7078 17.1969C28.4055 19.121 25.1004 21.04 21.7957 22.96C20.994 23.426 20.1923 23.8919 19.3901 24.3568C19.2502 24.4378 19.1586 24.5518 19.1315 24.7143C19.109 24.7508 19.1165 24.7914 19.1165 24.8304C19.1161 29.6176 19.1161 34.4048 19.1165 39.1921C19.1165 39.2283 19.1092 39.2661 19.1307 39.2998C19.1513 39.4609 19.2392 39.5731 19.3771 39.6527C19.8883 39.9481 20.3983 40.2458 20.9094 40.5412C21.0211 40.6057 21.1281 40.6787 21.247 40.7304C21.1007 41.1368 20.9551 41.5433 20.8078 41.9493C20.7126 42.2121 20.615 42.474 20.5185 42.7362C19.7543 42.2926 18.9836 41.8597 18.2279 41.4017C17.6049 41.0241 17.2239 40.4593 17.0661 39.7427C17.0376 39.6127 17.0257 39.4819 17.0169 39.3502C17.0178 39.2852 17.0193 39.22 17.0193 39.155C17.0193 34.3837 17.0193 29.6127 17.0193 24.8415C17.0193 24.7821 17.0174 24.7227 17.0166 24.6633C17.0773 23.7496 17.4879 23.0354 18.2717 22.5758C20.7346 21.1312 23.207 19.7028 25.6759 18.2683C27.3461 17.2978 29.0166 16.3275 30.6868 15.357C31.01 15.1691 31.3556 15.0509 31.7279 15.015C31.7413 15.0136 31.7565 15.0163 31.7638 15C31.9216 15 32.0793 15 32.2373 15C32.346 15.0213 32.4551 15.0412 32.5635 15.0638C32.8161 15.1167 33.0525 15.212 33.2757 15.3415C36.6493 17.2993 40.0226 19.2573 43.3962 21.2151C44.1561 21.6562 44.9167 22.0959 45.6756 22.5387C46.3503 22.9323 46.7763 23.5111 46.9368 24.2814C46.9628 24.4067 46.9689 24.536 46.9843 24.6635C46.9835 24.7257 46.9816 24.7878 46.9816 24.8501C46.9816 29.6185 46.9816 34.3868 46.9816 39.1553C46.9816 39.2147 46.9835 39.2741 46.9845 39.3335L46.9843 39.3328Z" fill="white"/>
<path d="M36.4635 23.7625C36.6536 23.7477 36.7872 23.9364 36.7182 24.1335C36.5989 24.4749 36.4731 24.8138 36.35 25.1537C34.3254 30.7443 32.3008 36.3349 30.276 41.9253C29.8738 43.0355 29.4717 44.1455 29.0694 45.2557C28.8366 45.8979 28.6037 46.5402 28.3716 47.1825C28.3601 47.2142 28.3536 47.2475 28.3447 47.2802C28.3017 47.2816 28.2725 47.2515 28.2393 47.2322C27.2024 46.631 26.166 46.0291 25.1292 45.4274C25.1149 45.4191 25.0993 45.4126 25.0843 45.4051C25.0729 45.3687 25.0944 45.3386 25.1056 45.3076C26.9264 40.2844 28.7481 35.2616 30.5697 30.2385C31.3009 28.2224 32.0322 26.2063 32.7622 24.19C32.8437 23.9647 32.9861 23.8146 33.2288 23.776C33.2371 23.7773 33.2454 23.7797 33.2536 23.7797C34.2997 23.7797 35.3457 23.7794 36.392 23.7789C36.4168 23.7789 36.4432 23.7836 36.4633 23.7622L36.4635 23.7625Z" fill="white"/>
<path d="M30.9524 23.7658C31.1284 23.7311 31.2931 23.9205 31.2014 24.1751C30.983 24.7811 30.7625 25.3864 30.5428 25.992C28.5997 31.349 26.6565 36.7059 24.7139 42.0632C24.4136 42.8914 24.1156 43.7207 23.8158 44.5491C23.8038 44.5821 23.804 44.6232 23.7665 44.6433C22.7081 44.0288 21.6497 43.4145 20.5919 42.799C20.5651 42.7834 20.5245 42.7796 20.5186 42.7371C20.6151 42.4748 20.7127 42.213 20.8079 41.9502C20.9552 41.5442 21.1008 41.1377 21.247 40.7313C21.455 40.1607 21.6639 39.5905 21.8708 39.0195C23.6643 34.0715 25.4576 29.1235 27.2508 24.1753C27.3292 23.959 27.4719 23.8182 27.7029 23.7789C27.7112 23.7801 27.7197 23.7822 27.728 23.7822C28.7728 23.7818 29.8179 23.7811 30.8627 23.7803C30.8932 23.7803 30.9251 23.7871 30.9525 23.766L30.9524 23.7658Z" fill="white"/>
<path d="M17.0163 24.6641C17.0173 24.7235 17.019 24.7828 17.019 24.8422C17.019 29.6135 17.019 34.3845 17.019 39.1558C17.019 39.2208 17.0174 39.2859 17.0166 39.3509C16.9921 39.2938 17.0029 39.2334 17.0029 39.1746C17.0021 38.1198 17.0022 37.0649 17.0022 36.01C17.0022 32.2925 17.0022 28.5749 17.0029 24.8572C17.0029 24.7929 16.9907 24.7269 17.0163 24.6641Z" fill="white"/>
<path d="M46.9843 39.3341C46.9833 39.2747 46.9814 39.2153 46.9814 39.1559C46.9814 34.3876 46.9814 29.6192 46.9814 24.8507C46.9814 24.7885 46.9831 24.7263 46.9842 24.6641C47.0063 24.7068 46.9975 24.7532 46.9975 24.7978C46.9985 25.1353 46.9982 25.4727 46.9982 25.8102C46.9982 30.2538 46.9982 34.6973 46.9975 39.1409C46.9975 39.2053 47.0099 39.2713 46.9843 39.3341Z" fill="white"/>
<path d="M42.3996 43.3837C42.4566 43.3183 42.5376 43.2896 42.6093 43.2477C42.9037 43.0756 43.1996 42.9065 43.495 42.7363C43.497 42.7617 43.4771 42.7695 43.4605 42.7792C43.1176 42.9785 42.7745 43.1777 42.431 43.3765C42.4221 43.3816 42.4101 43.3814 42.3994 43.3838L42.3996 43.3837Z" fill="white"/>
<path d="M41.96 43.6384C42.0951 43.5331 42.2435 43.4509 42.4001 43.3828C42.2613 43.4819 42.1149 43.5674 41.96 43.6384Z" fill="white"/>
<path d="M41.5205 43.8943C41.6556 43.7889 41.8041 43.7066 41.9607 43.6387C41.822 43.7381 41.6749 43.8223 41.5205 43.8943Z" fill="white"/>
<path d="M41.1914 44.0787C41.2969 44.0094 41.4001 43.9361 41.521 43.8945C41.418 43.9684 41.3148 44.0419 41.1914 44.0787Z" fill="white"/>
<path d="M40.752 44.3336C40.8605 44.2645 40.9637 44.1852 41.0898 44.1484C40.9809 44.217 40.8784 44.2975 40.752 44.3336Z" fill="white"/>
<path d="M40.3115 44.5876C40.3807 44.541 40.4455 44.4862 40.531 44.4707C40.462 44.5177 40.3974 44.573 40.3115 44.5876Z" fill="white"/>
<path d="M39.5069 42.6193C39.3468 42.1809 39.1856 41.7429 39.0265 41.304C37.8993 38.1942 36.7725 35.0841 35.6448 31.9744C35.5833 31.8046 35.5831 31.6392 35.6452 31.4685C36.1783 30.0005 36.7096 28.5316 37.2416 27.063C37.3028 26.8938 37.3893 26.8229 37.5306 26.8242C37.6493 26.8253 37.7466 26.896 37.7877 27.0092C38.6167 29.2972 39.4458 31.5851 40.2754 33.8729C41.0946 36.1314 41.9144 38.3895 42.7338 40.6478C42.7435 40.6744 42.7514 40.7016 42.7602 40.7285C42.5201 40.8703 42.2806 41.0134 42.0397 41.1538C41.2162 41.6333 40.392 42.1122 39.5679 42.5908C39.5487 42.6021 39.5274 42.6101 39.5071 42.6194L39.5069 42.6193Z" fill="white"/>
<path d="M34.9457 45.2709C34.6778 44.5283 34.4105 43.7856 34.142 43.0432C33.7233 41.8858 33.3046 40.7284 32.8835 39.5719C32.822 39.4026 32.8189 39.2421 32.8815 39.0704C33.4184 37.5977 33.951 36.1234 34.4851 34.6497C34.553 34.4623 34.6939 34.3803 34.8554 34.4343C34.9584 34.4686 35.0101 34.5481 35.0456 34.6465C35.2624 35.248 35.4812 35.8489 35.699 36.4501C36.5286 38.7406 37.3579 41.0313 38.1873 43.3219C38.1941 43.3405 38.2009 43.359 38.2076 43.3776C37.7012 43.6731 37.1949 43.9691 36.6881 44.2641C36.1228 44.5931 35.5568 44.9212 34.991 45.2494C34.9766 45.2578 34.9607 45.2637 34.9455 45.2707L34.9457 45.2709Z" fill="white"/>
<path d="M19.1316 24.715C19.1321 24.7688 19.1329 24.8226 19.1329 24.8763C19.1329 29.6305 19.1329 34.3848 19.1329 39.139C19.1329 39.1928 19.1314 39.2465 19.1306 39.3003C19.1093 39.2666 19.1164 39.2288 19.1164 39.1926C19.116 34.4054 19.116 29.6181 19.1164 24.8309C19.1164 24.7919 19.1091 24.7511 19.1314 24.7148L19.1316 24.715Z" fill="white"/>
<path d="M44.8689 39.2991C44.8684 39.2453 44.8672 39.1915 44.8672 39.1378C44.8672 34.3892 44.8672 29.6406 44.8672 24.8918C44.8672 24.838 44.8687 24.7842 44.8694 24.7305C44.8907 24.7642 44.8836 24.8019 44.8836 24.8382C44.8839 29.6225 44.8839 34.407 44.8836 39.1914C44.8836 39.2276 44.8898 39.2654 44.8687 39.2991H44.8689Z" fill="white"/>
<path d="M30.9517 23.7642C30.9243 23.7853 30.8924 23.7785 30.8619 23.7785C29.8171 23.7793 28.772 23.7799 27.7272 23.7804C27.7189 23.7804 27.7104 23.7783 27.7021 23.7771C27.7329 23.7577 27.7674 23.7622 27.8007 23.7622C28.8427 23.7618 29.8846 23.7618 30.9265 23.762C30.935 23.762 30.9433 23.7635 30.9517 23.7644V23.7642Z" fill="white"/>
<path d="M36.464 23.7628C36.4439 23.7843 36.4175 23.7795 36.3927 23.7795C35.3466 23.78 34.3006 23.7802 33.2543 23.7803C33.2461 23.7803 33.2378 23.7778 33.2295 23.7766C33.266 23.7553 33.3064 23.7632 33.3452 23.763C34.3848 23.7625 35.4244 23.7626 36.464 23.7628Z" fill="white"/>
<rect x="0.5" y="0.5" width="63" height="63" rx="11.5" fill="url(#paint0_radial_2062_6866)" fill-opacity="0.2" stroke="url(#paint1_linear_2062_6866)"/>
<defs>
<radialGradient id="paint0_radial_2062_6866" cx="0" cy="0" r="1" gradientUnits="userSpaceOnUse" gradientTransform="translate(32 32) rotate(90) scale(32)">
<stop stop-color="#4338CA" stop-opacity="0"/>
<stop offset="1" stop-color="#4338CA"/>
</radialGradient>
<linearGradient id="paint1_linear_2062_6866" x1="32" y1="0" x2="32" y2="64" gradientUnits="userSpaceOnUse">
<stop stop-color="white" stop-opacity="0.1"/>
<stop offset="1" stop-color="white" stop-opacity="0.2"/>
</linearGradient>
</defs>
</svg>
