<svg width="64" height="64" viewBox="0 0 64 64" fill="none" xmlns="http://www.w3.org/2000/svg">
<path d="M31.4372 16C31.8042 16 32.171 16 32.538 16C32.5839 16.0069 32.6298 16.018 32.676 16.0201C33.226 16.0447 33.7732 16.0961 34.3181 16.1747C35.3464 16.3231 36.3505 16.5699 37.3299 16.916C42.3793 18.7 46.203 22.8777 47.5284 28.065C47.778 29.0418 47.9448 30.033 47.9796 31.0433C47.9809 31.0808 47.9931 31.1178 48.0003 31.1551V32.8703C47.993 32.907 47.9821 32.9434 47.979 32.9805C47.9525 33.2991 47.9357 33.6186 47.9005 33.9361C47.8001 34.8408 47.6122 35.7285 47.3486 36.5994C46.0466 40.9014 43.033 44.439 38.9928 46.4023C37.0703 47.3364 35.0399 47.8606 32.9052 47.9793C32.8678 47.9813 32.831 47.9928 32.7939 47.9999H31.2067C31.1651 47.9928 31.1237 47.9827 31.0817 47.9793C30.9585 47.9693 30.8351 47.9626 30.7117 47.9537C29.7953 47.8871 28.8929 47.7335 28.0029 47.5075C23.0095 46.2391 18.8691 42.5567 17.0254 37.7454C16.5162 36.4168 16.1865 35.0454 16.0457 33.6289C16.0399 33.5713 16.0157 33.5155 16.0001 33.4589C16.0001 33.4248 16.0001 33.3907 16.0001 33.3565C16.0684 33.3554 16.1366 33.3531 16.2048 33.3531C23.1249 33.353 30.0448 33.353 36.9649 33.353C37.0075 33.353 37.0502 33.3541 37.0929 33.3526C37.1258 33.3514 37.1585 33.3469 37.1894 33.3443C37.2155 33.1677 37.2069 30.758 37.179 30.6634H37.0029C30.0488 30.6634 23.0945 30.6634 16.1404 30.6637C16.0936 30.6637 16.0468 30.6669 16 30.6687C16 30.626 16 30.5833 16 30.5407C16.0156 30.489 16.0383 30.4381 16.0454 30.3853C16.0822 30.1151 16.1101 29.8435 16.15 29.5738C16.32 28.4266 16.6189 27.3133 17.0392 26.2328C19.3496 20.2958 24.9317 16.2989 31.2996 16.0206C31.3457 16.0186 31.3914 16.0072 31.4372 16Z" fill="white"/>
<rect x="0.5" y="0.5" width="63" height="63" rx="11.5" fill="url(#paint0_radial_2062_6649)" fill-opacity="0.2" stroke="url(#paint1_linear_2062_6649)"/>
<defs>
<radialGradient id="paint0_radial_2062_6649" cx="0" cy="0" r="1" gradientUnits="userSpaceOnUse" gradientTransform="translate(32 32) rotate(90) scale(32)">
<stop stop-color="#4338CA" stop-opacity="0"/>
<stop offset="1" stop-color="#4338CA"/>
</radialGradient>
<linearGradient id="paint1_linear_2062_6649" x1="32" y1="0" x2="32" y2="64" gradientUnits="userSpaceOnUse">
<stop stop-color="white" stop-opacity="0.1"/>
<stop offset="1" stop-color="white" stop-opacity="0.2"/>
</linearGradient>
</defs>
</svg>
