<svg width="64" height="64" viewBox="0 0 64 64" fill="none" xmlns="http://www.w3.org/2000/svg">
<path d="M45.4477 29.4235C45.5331 29.5093 45.6185 29.5947 45.7034 29.6804C45.8191 29.849 45.9608 29.9916 46.1298 30.1068C46.4426 30.4201 46.7555 30.733 47.0683 31.0462C47.1806 31.2178 47.3338 31.3497 47.4896 31.479C47.6326 31.6655 47.8336 31.7889 48.0001 31.9498V32.0351C47.8289 32.176 47.6693 32.3292 47.5233 32.4965C47.3522 32.5938 47.2284 32.7407 47.1089 32.8922C46.4883 33.517 45.8682 34.1423 45.2467 34.7667C45.0137 35.001 44.7717 35.2272 44.5459 35.468C44.4422 35.5785 44.3812 35.5742 44.2762 35.468C43.3807 34.5644 42.4797 33.6664 41.5804 32.7667C41.3696 32.5554 41.1656 32.3369 40.9453 32.1354C40.825 32.0253 40.8339 31.9596 40.9453 31.8486C41.8493 30.9536 42.7473 30.0522 43.647 29.1529C43.8566 28.9433 44.0704 28.7372 44.2727 28.5208C44.3692 28.4175 44.4401 28.3919 44.545 28.5088C44.6966 28.6779 44.8609 28.8354 45.0197 28.9975C45.1357 29.1657 45.2766 29.3091 45.4465 29.4235H45.4477Z" fill="white"/>
<path d="M16.3052 32.3273C16.2036 32.2296 16.1016 32.1323 16 32.0345C16 32.0059 16 31.9778 16 31.9492C16.56 31.3943 17.1208 30.8412 17.6791 30.2846C18.257 29.7088 18.837 29.1352 19.4051 28.5501C19.5404 28.4109 19.6309 28.3849 19.7512 28.5488C19.7969 28.6107 19.8626 28.658 19.919 28.7122C20.0504 28.9218 20.2224 29.0904 20.4298 29.2244C20.534 29.3337 20.6381 29.4434 20.7427 29.5526C20.843 29.6952 20.9531 29.8271 21.1127 29.9069C21.4444 30.2441 21.7764 30.5808 22.1081 30.918C22.2079 31.0605 22.3185 31.1924 22.4781 31.2722C22.6527 31.4485 22.8268 31.6256 23.0022 31.8011C23.193 31.9918 23.1939 31.9914 22.9963 32.189C22.0278 33.1566 21.059 34.1238 20.0905 35.0909C19.9599 35.2211 19.8242 35.347 19.7021 35.4848C19.6129 35.5856 19.5421 35.5826 19.4636 35.4823C19.3684 35.3214 19.2437 35.1903 19.079 35.0994C19.0645 35.0849 19.0504 35.0708 19.0359 35.0563C18.8575 34.8084 18.6471 34.5924 18.3965 34.4161C18.3112 34.3308 18.2254 34.2454 18.1396 34.16C18.0623 33.9978 17.9194 33.8971 17.79 33.7836C17.662 33.6274 17.5186 33.4865 17.3649 33.3559C17.2638 33.2428 17.1771 33.1143 17.0312 33.0508C17.0167 33.0362 17.0021 33.0217 16.9876 33.0076C16.7943 32.7464 16.5719 32.5138 16.3043 32.3269L16.3052 32.3273Z" fill="white"/>
<path d="M27.955 43.9768C27.9264 43.9482 27.8978 43.9196 27.8692 43.891C27.7036 43.6588 27.5085 43.4556 27.2725 43.2939C27.2439 43.2653 27.2153 43.2367 27.1867 43.2081C27.0211 42.9759 26.8265 42.7723 26.5896 42.611C26.5042 42.5256 26.4185 42.4403 26.3331 42.3549C26.2264 42.1773 26.0843 42.0352 25.9071 41.9281C25.8785 41.8995 25.85 41.8709 25.8214 41.8423C25.6558 41.6101 25.4607 41.4069 25.2242 41.2452C25.1816 41.2025 25.1385 41.1598 25.0958 41.1171C24.946 40.8973 24.7637 40.71 24.5418 40.5627C24.4564 40.4774 24.3706 40.392 24.2853 40.3066C24.1786 40.1291 24.0364 39.987 23.8593 39.8798C23.8307 39.8512 23.8021 39.8226 23.7735 39.794C23.6079 39.5619 23.4133 39.3587 23.1768 39.1974L23.176 39.1957C23.0979 39.0352 22.9541 38.9357 22.8281 38.8192C22.7219 38.698 22.6246 38.5674 22.4773 38.4897C22.374 38.383 22.2029 38.2857 22.1858 38.1666C22.167 38.036 22.3689 37.9613 22.4709 37.8589C23.0309 37.2976 23.593 36.7381 24.1547 36.1781C24.4082 36.0206 24.5951 35.7948 24.7834 35.5699C24.788 35.5592 24.791 35.5481 24.7927 35.5362C25.0621 35.3501 25.2994 35.1324 25.4701 34.849C25.6724 34.6649 25.8844 34.6826 26.106 34.902C26.2285 35.0919 26.3805 35.2524 26.5755 35.3697C26.6797 35.479 26.7838 35.5887 26.8879 35.698C26.9882 35.8405 27.0984 35.9724 27.258 36.0522C27.5427 36.3369 27.8269 36.622 28.1116 36.9067C28.2456 37.1133 28.4146 37.2853 28.6229 37.4176C28.7271 37.5268 28.8316 37.6365 28.9358 37.7458C29.0361 37.8883 29.1462 38.0202 29.3058 38.1C29.6375 38.4372 29.9695 38.774 30.3011 39.1111C30.4014 39.2537 30.5116 39.3852 30.6712 39.4654C30.7753 39.5747 30.8795 39.6843 30.984 39.7936C31.0843 39.9362 31.1945 40.068 31.3541 40.1479C31.5035 40.2994 31.6533 40.4509 31.8027 40.6024C31.9934 40.7958 32.0028 40.7966 32.1906 40.6097C32.955 39.8465 33.719 39.0834 34.4826 38.3194C35.687 37.1145 36.8936 35.9118 38.0925 34.7014C38.2163 34.5767 38.2773 34.6104 38.3789 34.7125C38.9803 35.3164 39.5864 35.9156 40.1907 36.5161C40.3043 36.6578 40.4319 36.7859 40.577 36.896C40.9364 37.2596 41.2885 37.6305 41.6581 37.9831C41.8177 38.1355 41.7746 38.2426 41.647 38.3698C41.3081 38.7074 40.9709 39.0475 40.6325 39.3856C39.9069 40.1107 39.1796 40.8337 38.457 41.561C38.3503 41.6682 38.215 41.748 38.1378 41.8845C37.9355 42.0075 37.7865 42.1863 37.6363 42.3634C36.7716 43.2333 35.9073 44.1027 35.043 44.9725C34.7092 45.3084 34.3759 45.6447 34.0421 45.9811C33.8398 46.104 33.6913 46.2832 33.5402 46.4599C33.072 46.9333 32.5999 47.4023 32.1394 47.8825C32.0246 48.0024 31.9508 48.0007 31.8611 47.8748C31.7258 47.6836 31.5688 47.5142 31.3682 47.3891C31.3255 47.3464 31.2824 47.3037 31.2397 47.2611C31.0899 47.0413 30.9076 46.8539 30.6857 46.7066C30.6003 46.6213 30.5145 46.5359 30.4292 46.4506C30.3524 46.2884 30.2089 46.1876 30.0796 46.0741C29.9516 45.9179 29.8086 45.7766 29.6545 45.6464C29.5534 45.5338 29.4672 45.4044 29.3203 45.3413C29.3058 45.3268 29.2913 45.3127 29.2772 45.2982C29.0988 45.0502 28.8888 44.8338 28.6379 44.6584C28.5807 44.6016 28.5235 44.5448 28.4663 44.4877C28.3318 44.2811 28.1624 44.1095 27.9554 43.9755L27.955 43.9768Z" fill="white"/>
<path d="M28.6656 26.5225C28.5802 26.6079 28.4948 26.6937 28.4095 26.779C28.2294 26.8832 28.0885 27.0266 27.9831 27.2054C27.969 27.2199 27.9545 27.2344 27.9404 27.2485C27.6912 27.4256 27.4743 27.6352 27.3002 27.8879C27.2861 27.9024 27.272 27.9169 27.2575 27.931C27.007 28.1068 26.7923 28.3185 26.6169 28.5699C26.6028 28.5844 26.5883 28.5989 26.5742 28.613C26.3254 28.7906 26.1098 29.0014 25.9336 29.2515C25.7859 29.4615 25.6745 29.3301 25.5618 29.2118C25.4752 29.0432 25.3446 28.9186 25.1802 28.8268C25.1376 28.7837 25.0949 28.7411 25.0522 28.6979C24.9314 28.5059 24.7752 28.3492 24.5831 28.2293C24.2703 27.9165 23.9574 27.6032 23.6442 27.2903C23.5251 27.097 23.3663 26.9429 23.1759 26.8204C22.8891 26.534 22.6079 26.2417 22.3125 25.9642C22.1815 25.8413 22.1789 25.7547 22.3172 25.6467C22.3821 25.5959 22.4342 25.528 22.4918 25.4683C22.8149 25.2224 23.1013 24.9399 23.3437 24.6138C23.7419 24.2156 24.1397 23.8174 24.5379 23.4187C24.6907 23.3449 24.8012 23.228 24.8832 23.082C25.0799 22.8801 25.2767 22.6787 25.4735 22.4768C25.7061 22.3406 25.8841 22.1486 26.0326 21.927C26.2178 21.7418 26.4026 21.557 26.5879 21.3718C26.8384 21.1959 27.0544 20.9855 27.2272 20.732C27.2413 20.7175 27.2558 20.7034 27.2699 20.6889C27.4206 20.6129 27.5315 20.4972 27.6135 20.3513C27.9545 20.0085 28.2955 19.6662 28.6361 19.3235C28.9426 19.0896 29.2157 18.8229 29.4453 18.5126C29.6306 18.3278 29.8162 18.143 30.0015 17.9582C30.3084 17.7247 30.5807 17.4571 30.8107 17.1472C31.1658 16.7938 31.5205 16.4396 31.8777 16.0879C31.9217 16.0448 31.9588 15.9564 32.048 16.0256C32.1633 16.1942 32.3165 16.326 32.4697 16.4575C32.5278 16.5719 32.6541 16.6141 32.7326 16.7072C32.844 16.8792 32.9998 17.0081 33.1522 17.1404C33.6951 17.6786 34.2376 18.2172 34.7805 18.7554C34.8919 18.9274 35.0476 19.0563 35.2 19.1886C35.2581 19.303 35.3844 19.3453 35.4629 19.4383C35.5743 19.6103 35.7301 19.7392 35.8825 19.8715C36.2094 20.1972 36.541 20.519 36.8629 20.8498C37.2201 21.2168 37.5863 21.5745 37.9474 21.9369C38.2534 22.2442 38.5479 22.566 38.8761 22.8519C38.9875 23.0239 39.1433 23.1528 39.2957 23.2852C39.8386 23.8234 40.381 24.362 40.9239 24.9002C41.0353 25.0722 41.1911 25.2011 41.3435 25.3334C41.4297 25.4653 41.5629 25.5494 41.6798 25.6467C41.8207 25.7636 41.8079 25.8405 41.6832 25.9638C40.7242 26.9135 39.7716 27.8695 38.8168 28.8234C38.6712 28.969 38.5146 29.106 38.3836 29.2635C38.259 29.4129 38.1826 29.3702 38.066 29.2524C37.3703 28.5473 36.6678 27.849 35.967 27.1491C35.643 26.8255 35.3174 26.5029 34.9926 26.1802C34.8573 25.9741 34.6866 25.8029 34.4796 25.6685C34.0101 25.1994 33.541 24.7303 33.0715 24.2608C32.8944 24.0112 32.681 23.7973 32.4313 23.6202C32.3344 23.5216 32.2341 23.4256 32.1415 23.3227C32.0788 23.2531 32.0088 23.2275 31.9196 23.2497C31.7228 23.4089 31.5286 23.5703 31.3946 23.7901C31.3092 23.8759 31.2239 23.9612 31.1385 24.047C30.9584 24.1512 30.8175 24.2946 30.7121 24.4734C30.698 24.4879 30.6839 24.5024 30.6694 24.5165C30.4206 24.6941 30.2029 24.9028 30.0292 25.1559C30.0151 25.1704 30.0006 25.1845 29.9865 25.199C29.7364 25.3752 29.5213 25.5865 29.3463 25.8383C29.3318 25.8528 29.3177 25.8669 29.3036 25.8814C29.0535 26.0577 28.8389 26.2698 28.6639 26.5208L28.6656 26.5225Z" fill="white"/>
<path d="M30.7595 34.4313C29.9707 33.6451 29.1829 32.858 28.392 32.0736C28.3339 32.016 28.322 31.9767 28.3847 31.9174C28.4564 31.8495 28.5217 31.7744 28.5896 31.7022C28.6942 31.6762 28.7475 31.5857 28.8162 31.5174C29.7689 30.5678 30.7198 29.616 31.6707 28.6646C31.8779 28.4575 32.0873 28.4413 32.299 28.616C32.8479 29.1683 33.3963 29.7206 33.9452 30.2729C34.4736 30.8047 34.9986 31.3403 35.5338 31.8653C35.6422 31.9716 35.6234 32.0283 35.5308 32.1209C34.3933 33.2546 33.2572 34.3894 32.1244 35.5273C32.0275 35.6246 31.9588 35.6344 31.8628 35.5312C31.7275 35.3856 31.5815 35.2507 31.4398 35.1112C31.229 34.8687 31.0075 34.637 30.7595 34.4317V34.4313Z" fill="white"/>
<path d="M32.2992 28.6158C32.0875 28.4411 31.8781 28.4573 31.671 28.6645C30.7196 29.6158 29.7691 30.5676 28.8165 31.5173C28.7478 31.5856 28.6944 31.6761 28.5898 31.7021C28.7008 31.4895 28.901 31.3559 29.061 31.1895C29.6052 30.6235 30.1635 30.0713 30.7239 29.5215C31.1076 29.1451 31.4964 28.7733 31.8579 28.3751C31.9369 28.288 32.012 28.2769 32.091 28.3559C32.1695 28.434 32.2779 28.4908 32.2992 28.6158Z" fill="white"/>
<path d="M23.3441 24.6152C23.1017 24.9413 22.8149 25.2234 22.4922 25.4697C22.7508 25.1598 23.0372 24.8773 23.3441 24.6152Z" fill="white"/>
<path d="M30.8112 17.1484C30.5811 17.4583 30.3088 17.7259 30.002 17.9594C30.2452 17.6627 30.5171 17.3943 30.8112 17.1484Z" fill="white"/>
<path d="M29.4459 18.5137C29.2168 18.8244 28.9432 19.0907 28.6367 19.3246C28.8783 19.0263 29.1523 18.7604 29.4459 18.5137Z" fill="white"/>
<path d="M30.7598 34.4316C31.0077 34.6369 31.2293 34.8687 31.4401 35.1111C31.1695 34.9289 30.9395 34.7052 30.7598 34.4316Z" fill="white"/>
<path d="M16.3047 32.3281C16.5719 32.5155 16.7942 32.7477 16.988 33.0089C16.7328 32.8091 16.5087 32.5791 16.3047 32.3281Z" fill="white"/>
<path d="M25.4693 34.8496C25.2986 35.133 25.0613 35.3507 24.792 35.5368C24.996 35.2862 25.2354 35.0703 25.4693 34.8496Z" fill="white"/>
<path d="M26.6172 28.5725C26.7926 28.3211 27.0073 28.1094 27.2578 27.9336C27.07 28.1722 26.8566 28.3856 26.6172 28.5725Z" fill="white"/>
<path d="M30.0312 25.1589C30.2045 24.9058 30.4226 24.6971 30.6715 24.5195C30.4845 24.7594 30.2698 24.9711 30.0312 25.1589Z" fill="white"/>
<path d="M27.2273 20.7344C27.054 20.9875 26.838 21.1979 26.5879 21.3742C26.7753 21.1351 26.9899 20.9235 27.2273 20.7344Z" fill="white"/>
<path d="M29.3477 25.8405C29.5226 25.5887 29.7378 25.3779 29.9879 25.2012C29.7996 25.4398 29.5875 25.654 29.3477 25.8405Z" fill="white"/>
<path d="M25.9336 29.2537C26.1099 29.0036 26.3254 28.7928 26.5742 28.6152C26.3877 28.8555 26.1743 29.0681 25.9336 29.2537Z" fill="white"/>
<path d="M28.665 26.5241C28.84 26.2727 29.0547 26.061 29.3048 25.8848C29.1187 26.1251 28.9041 26.3368 28.665 26.5241Z" fill="white"/>
<path d="M18.3965 34.418C18.647 34.5938 18.8574 34.8098 19.0358 35.0582C18.7956 34.8721 18.5834 34.6578 18.3965 34.418Z" fill="white"/>
<path d="M28.6367 44.6602C28.8877 44.8356 29.0977 45.052 29.2761 45.2999C29.0358 45.1139 28.8237 44.8996 28.6367 44.6602Z" fill="white"/>
<path d="M27.2998 27.8894C27.4735 27.6367 27.6908 27.4271 27.94 27.25C27.7526 27.489 27.5388 27.702 27.2998 27.8894Z" fill="white"/>
<path d="M32.4326 23.6211C32.6823 23.7982 32.8957 24.0121 33.0728 24.2617C32.8342 24.0735 32.6196 23.8614 32.4326 23.6211Z" fill="white"/>
<path d="M24.782 35.5703C24.5938 35.7952 24.4064 36.021 24.1533 36.1785C24.3433 35.9557 24.5332 35.7321 24.782 35.5703Z" fill="white"/>
<path d="M25.2236 41.2461C25.4601 41.4074 25.6547 41.6106 25.8207 41.8432C25.595 41.6712 25.3969 41.471 25.2236 41.2461Z" fill="white"/>
<path d="M23.1758 39.1973C23.4122 39.3586 23.6069 39.5618 23.7725 39.7939C23.5467 39.6219 23.3495 39.4218 23.1758 39.1973Z" fill="white"/>
<path d="M26.5889 42.6113C26.8253 42.7727 27.0199 42.9762 27.186 43.2084C26.9602 43.036 26.7622 42.8363 26.5889 42.6113Z" fill="white"/>
<path d="M27.2715 43.293C27.5075 43.4547 27.7026 43.6575 27.8682 43.8901C27.6424 43.7176 27.4443 43.5179 27.2715 43.293Z" fill="white"/>
<path d="M24.541 40.5625C24.7634 40.7097 24.9452 40.8971 25.095 41.1169C24.8842 40.9582 24.6998 40.7729 24.541 40.5625Z" fill="white"/>
<path d="M26.0328 21.9297C25.8838 22.1512 25.7058 22.3433 25.4736 22.4794C25.6409 22.2767 25.8236 22.0893 26.0328 21.9297Z" fill="white"/>
<path d="M30.6846 46.707C30.9069 46.8543 31.0888 47.0416 31.2386 47.2615C31.0277 47.1027 30.8433 46.9174 30.6846 46.707Z" fill="white"/>
<path d="M31.3955 23.7923C31.5295 23.5725 31.7242 23.4112 31.9205 23.252C31.783 23.4688 31.5961 23.6374 31.3955 23.7923Z" fill="white"/>
<path d="M20.4298 29.2251C20.2224 29.091 20.05 28.9229 19.9189 28.7129C20.114 28.8589 20.2851 29.0287 20.4298 29.2251Z" fill="white"/>
<path d="M28.6226 37.4191C28.4144 37.2868 28.2453 37.1148 28.1113 36.9082C28.3072 37.0529 28.478 37.2232 28.6226 37.4191Z" fill="white"/>
<path d="M34.4814 25.6699C34.6884 25.8044 34.8587 25.9755 34.9945 26.1817C34.7973 26.0374 34.6253 25.8675 34.4814 25.6699Z" fill="white"/>
<path d="M27.9541 43.9766C28.1611 44.1106 28.331 44.2822 28.465 44.4887C28.2687 44.344 28.0979 44.1733 27.9541 43.9766Z" fill="white"/>
<path d="M31.3682 47.3906C31.5688 47.5157 31.7258 47.6851 31.8611 47.8763C31.6652 47.7466 31.5073 47.578 31.3682 47.3906Z" fill="white"/>
<path d="M37.6357 42.3656C37.786 42.188 37.9349 42.0096 38.1372 41.8867C37.9977 42.0754 37.8474 42.2525 37.6357 42.3656Z" fill="white"/>
<path d="M33.54 46.4613C33.6911 46.2846 33.8392 46.1053 34.042 45.9824C33.902 46.1706 33.7522 46.3486 33.54 46.4613Z" fill="white"/>
<path d="M26.575 35.3701C26.3799 35.2528 26.228 35.0923 26.1055 34.9023C26.2899 35.03 26.4431 35.1896 26.575 35.3701Z" fill="white"/>
<path d="M23.1758 26.8223C23.3661 26.9448 23.5249 27.0988 23.644 27.2922C23.4588 27.1646 23.3038 27.0066 23.1758 26.8223Z" fill="white"/>
<path d="M24.583 28.2305C24.7755 28.3508 24.9317 28.507 25.0521 28.6991C24.8673 28.5715 24.7119 28.414 24.583 28.2305Z" fill="white"/>
<path d="M39.2965 23.2867C39.1441 23.1544 38.9884 23.0255 38.877 22.8535C39.0537 22.9624 39.2052 23.0951 39.2965 23.2867Z" fill="white"/>
<path d="M30.7139 24.4752C30.8193 24.2964 30.9601 24.153 31.1402 24.0488C31.0242 24.217 30.8803 24.3578 30.7139 24.4752Z" fill="white"/>
<path d="M41.3444 25.3356C41.192 25.2032 41.0362 25.0743 40.9248 24.9023C41.1015 25.0112 41.253 25.1439 41.3444 25.3356Z" fill="white"/>
<path d="M27.9834 27.2076C28.0888 27.0288 28.2297 26.8854 28.4098 26.7812C28.2937 26.9494 28.1499 27.0903 27.9834 27.2076Z" fill="white"/>
<path d="M17.3657 33.3578C17.5193 33.4885 17.6627 33.6293 17.7908 33.7855C17.7763 33.7855 17.7622 33.7855 17.7477 33.7859C17.6085 33.6694 17.4779 33.5439 17.3652 33.401C17.3652 33.3864 17.3652 33.3719 17.3652 33.3574L17.3657 33.3578Z" fill="white"/>
<path d="M47.4896 31.4797C47.3338 31.3503 47.181 31.2185 47.0684 31.0469C47.2455 31.1553 47.3957 31.2897 47.4896 31.4797Z" fill="white"/>
<path d="M45.4473 29.424C45.2774 29.3096 45.1366 29.1662 45.0205 28.998C45.1989 29.1039 45.3393 29.2477 45.4473 29.424Z" fill="white"/>
<path d="M46.1305 30.108C45.9615 29.9928 45.8198 29.8502 45.7041 29.6816C45.8821 29.7879 46.0242 29.93 46.1305 30.108Z" fill="white"/>
<path d="M23.8584 39.8789C24.0355 39.986 24.1777 40.1282 24.2844 40.3057C24.1166 40.1892 23.9736 40.0479 23.8584 39.8789Z" fill="white"/>
<path d="M25.9062 41.9277C26.0834 42.0349 26.2255 42.177 26.3322 42.3545C26.1645 42.238 26.0215 42.0968 25.9062 41.9277Z" fill="white"/>
<path d="M32.4705 16.4593C32.3173 16.3278 32.1645 16.1959 32.0488 16.0273C32.2264 16.1353 32.38 16.2664 32.4705 16.4593Z" fill="white"/>
<path d="M33.153 17.1422C33.0006 17.0099 32.8448 16.881 32.7334 16.709C32.9101 16.8178 33.0616 16.9506 33.153 17.1422Z" fill="white"/>
<path d="M29.6537 45.6469C29.8078 45.7775 29.9508 45.9184 30.0788 46.0746C30.0643 46.0746 30.0503 46.0746 30.0357 46.075C29.8966 45.9585 29.766 45.8334 29.6533 45.69C29.6533 45.6755 29.6533 45.661 29.6533 45.6465L29.6537 45.6469Z" fill="white"/>
<path d="M35.2008 19.191C35.0484 19.0587 34.8926 18.9298 34.7812 18.7578C34.9579 18.8666 35.1095 18.9994 35.2008 19.191Z" fill="white"/>
<path d="M35.8834 19.8727C35.731 19.7404 35.5753 19.6115 35.4639 19.4395C35.6406 19.5483 35.7921 19.681 35.8834 19.8727Z" fill="white"/>
<path d="M47.1084 32.8917C47.2283 32.7407 47.3517 32.5934 47.5228 32.4961C47.4166 32.6613 47.286 32.8013 47.1084 32.8917Z" fill="white"/>
<path d="M25.1807 28.8281C25.345 28.9195 25.4756 29.0445 25.5622 29.2131C25.4086 29.1111 25.2844 28.9796 25.1807 28.8281Z" fill="white"/>
<path d="M40.5767 36.8974C40.4316 36.7877 40.304 36.6597 40.1904 36.5176C40.3723 36.5901 40.4935 36.7246 40.5767 36.8974Z" fill="white"/>
<path d="M19.0791 35.1016C19.2438 35.1925 19.3685 35.3235 19.4637 35.4844C19.3087 35.3837 19.1811 35.2556 19.0791 35.1016Z" fill="white"/>
<path d="M30.0352 46.0746C30.0497 46.0746 30.0638 46.0746 30.0783 46.0742C30.2076 46.1877 30.351 46.2885 30.4278 46.4507C30.2708 46.3529 30.1555 46.2108 30.0352 46.0746Z" fill="white"/>
<path d="M17.748 33.7856C17.7626 33.7856 17.7766 33.7856 17.7912 33.7852C17.9205 33.8987 18.0635 33.9994 18.1407 34.1616C17.9836 34.0639 17.8684 33.9217 17.748 33.7856Z" fill="white"/>
<path d="M30.6698 39.4675C30.5102 39.3873 30.4001 39.2554 30.2998 39.1133C30.4594 39.1931 30.5713 39.3237 30.6698 39.4675Z" fill="white"/>
<path d="M31.3534 40.1492C31.1938 40.0689 31.0837 39.937 30.9834 39.7949C31.1435 39.8747 31.2544 40.0058 31.3534 40.1492Z" fill="white"/>
<path d="M21.1132 29.907C20.9536 29.8267 20.8435 29.6949 20.7432 29.5527C20.9032 29.6325 21.0142 29.7636 21.1132 29.907Z" fill="white"/>
<path d="M27.2568 36.0535C27.0971 35.9732 26.987 35.8413 26.8867 35.6992C27.0468 35.779 27.1577 35.9101 27.2568 36.0535Z" fill="white"/>
<path d="M22.4784 31.2742C22.3188 31.1939 22.2087 31.062 22.1084 30.9199C22.268 31.0002 22.3798 31.1303 22.4784 31.2742Z" fill="white"/>
<path d="M29.3056 38.1003C29.146 38.0201 29.0358 37.8882 28.9355 37.7461C29.0956 37.8259 29.2066 37.9569 29.3056 38.1003Z" fill="white"/>
<path d="M22.4756 38.4902C22.6228 38.5679 22.7201 38.6985 22.8264 38.8197C22.8264 38.8342 22.8264 38.8488 22.826 38.8628C22.6975 38.7493 22.5567 38.6482 22.4756 38.4902Z" fill="white"/>
<path d="M22.8271 38.8634C22.8271 38.8489 22.8271 38.8344 22.8276 38.8203C22.9535 38.9368 23.0973 39.0363 23.1754 39.1968C23.0316 39.1148 22.9309 38.9876 22.8271 38.8638V38.8634Z" fill="white"/>
<path d="M17.366 33.3575C17.366 33.372 17.366 33.3865 17.366 33.401C17.2422 33.2969 17.115 33.1961 17.0322 33.0527C17.1782 33.1163 17.2653 33.2448 17.366 33.3579V33.3575Z" fill="white"/>
<path d="M24.8834 23.084C24.8014 23.2304 24.6905 23.3473 24.5381 23.4207C24.6311 23.2859 24.7395 23.1668 24.8834 23.084Z" fill="white"/>
<path d="M27.6141 20.3535C27.5321 20.4991 27.4212 20.6151 27.2705 20.6911C27.3597 20.5528 27.472 20.438 27.6141 20.3535Z" fill="white"/>
<path d="M29.6541 45.647C29.6541 45.6615 29.6541 45.676 29.6541 45.6905C29.5303 45.5864 29.4031 45.4852 29.3203 45.3418C29.4667 45.405 29.5529 45.5343 29.6545 45.647H29.6541Z" fill="white"/>
<rect x="0.5" y="0.5" width="63" height="63" rx="11.5" fill="url(#paint0_radial_2062_6733)" fill-opacity="0.2" stroke="url(#paint1_linear_2062_6733)"/>
<defs>
<radialGradient id="paint0_radial_2062_6733" cx="0" cy="0" r="1" gradientUnits="userSpaceOnUse" gradientTransform="translate(32 32) rotate(90) scale(32)">
<stop stop-color="#4338CA" stop-opacity="0"/>
<stop offset="1" stop-color="#4338CA"/>
</radialGradient>
<linearGradient id="paint1_linear_2062_6733" x1="32" y1="0" x2="32" y2="64" gradientUnits="userSpaceOnUse">
<stop stop-color="white" stop-opacity="0.1"/>
<stop offset="1" stop-color="white" stop-opacity="0.2"/>
</linearGradient>
</defs>
</svg>
