<svg width="64" height="64" viewBox="0 0 64 64" fill="none" xmlns="http://www.w3.org/2000/svg">
<rect x="0.5" y="0.5" width="63" height="63" rx="11.5" fill="url(#paint0_radial_2062_6633)" fill-opacity="0.2" stroke="url(#paint1_linear_2062_6633)"/>
<path d="M31.9624 13.0052C32.1135 12.9714 32.1194 13.1098 32.1638 13.1811C33.7291 15.6941 35.2913 18.2087 36.8502 20.7253C38.2993 23.064 39.7425 25.4068 41.1917 27.7455C42.0951 29.2032 43.006 30.6571 43.9121 32.1132C43.9485 32.1715 43.971 32.2386 43.9999 32.3011C43.9089 32.2662 43.8163 32.235 43.7274 32.196C42.4946 31.6516 41.2629 31.1057 40.0301 30.5614C38.1161 29.7163 36.2038 28.8675 34.2866 28.0291C33.5315 27.6992 32.7893 27.3401 32.0139 27.0565L31.9962 27.0388C31.9983 26.9956 32.0021 26.9524 32.0021 26.9092C32.0026 22.3682 32.0031 17.8267 32.0031 13.2857C32.0031 13.191 32.0085 13.0942 31.9619 13.0058L31.9624 13.0052Z" fill="white"/>
<path d="M31.9618 13.0049C32.0083 13.0939 32.003 13.1902 32.003 13.2849C32.003 17.8259 32.003 22.3674 32.0019 26.9084C32.0019 26.9516 31.9982 26.9948 31.996 27.038C31.6056 27.2056 31.2136 27.37 30.8248 27.5412C29.5696 28.0955 28.3159 28.6533 27.0607 29.2081C25.3604 29.9595 23.6595 30.7105 21.9577 31.4583C21.3097 31.7429 20.6579 32.0193 20.0078 32.2998C20.358 31.7107 20.6917 31.1117 21.0623 30.5356C21.6401 29.6379 22.2008 28.7309 22.7502 27.8165C23.3184 26.8715 23.9252 25.9483 24.5073 25.0105C24.9801 24.2487 25.4177 23.4655 25.9114 22.7166C26.5192 21.795 27.089 20.8526 27.6631 19.9117C28.4278 18.6575 29.2317 17.4268 29.9803 16.1627C30.6128 15.0943 31.2988 14.0556 31.9612 13.0039L31.9618 13.0049Z" fill="white"/>
<path d="M20.0086 32.3008C20.6587 32.0208 21.3104 31.744 21.9584 31.4593C23.6603 30.7115 25.3611 29.9606 27.0614 29.2091C28.3167 28.6544 29.5704 28.0965 30.8256 27.5423C31.2144 27.3706 31.6064 27.2066 31.9968 27.0391C31.9968 27.0391 32.0145 27.0568 32.0139 27.0568C32.0107 27.1608 32.0048 27.2644 32.0048 27.3685C32.0048 31.3204 32.0048 35.2718 32.0048 39.2237C31.4656 39.0015 30.9884 38.6726 30.4866 38.3874C28.8238 37.4434 27.1669 36.4885 25.51 35.5351C23.9211 34.6213 22.3349 33.7038 20.7476 32.7879C20.5339 32.6646 20.3181 32.5454 20.1061 32.4195C20.0632 32.394 19.9716 32.3934 20.0086 32.3013V32.3008Z" fill="white"/>
<path d="M32.0051 39.2235C32.0051 35.2716 32.0046 31.3203 32.0051 27.3684C32.0051 27.2643 32.011 27.1607 32.0142 27.0566C32.7902 27.3408 33.5324 27.6993 34.287 28.0293C36.2042 28.8676 38.1165 29.7164 40.0305 30.5615C41.2632 31.1059 42.4949 31.6518 43.7277 32.1961C43.8166 32.2351 43.9093 32.2663 44.0003 32.3012C43.9612 32.4735 43.785 32.4896 43.6667 32.5583C41.539 33.7911 39.4066 35.0172 37.2741 36.2422C35.5846 37.2122 33.8934 38.1791 32.2017 39.146C32.1417 39.1804 32.071 39.1981 32.0057 39.223L32.0051 39.2235Z" fill="white"/>
<path d="M32.0013 41.4661C32.8453 40.9857 33.6898 40.5075 34.5322 40.0251C35.8876 39.2492 37.242 38.4707 38.5963 37.6921C40.2259 36.7554 41.8544 35.8166 43.484 34.8799C43.6281 34.7972 43.7764 34.7222 43.9612 34.6738C43.7951 34.9085 43.6323 35.1458 43.4631 35.3784C41.8169 37.6344 40.1713 39.8908 38.5218 42.1452C36.8623 44.4136 35.1984 46.6789 33.5372 48.9463C33.0675 49.5869 32.6022 50.2306 32.1341 50.8723C32.0908 50.9316 32.0795 51.0502 31.9531 50.9774C32.012 50.8827 32.0045 50.777 32.0045 50.6735C32.0045 47.6042 32.0029 44.5354 32.0019 41.4661H32.0013Z" fill="white"/>
<path d="M32.0014 41.4668C32.0025 44.5361 32.0035 47.6049 32.0041 50.6742C32.0041 50.7778 32.0116 50.8834 31.9527 50.9781C27.9882 45.5504 24.0242 40.1226 20.0244 34.6465C20.3275 34.7173 20.5107 34.8843 20.7131 35.0019C21.4527 35.4323 22.1965 35.8569 22.9366 36.2863C23.6483 36.6995 24.3739 37.0913 25.0835 37.5087C26.0207 38.0593 26.9637 38.5999 27.9068 39.1391C28.837 39.6714 29.7597 40.2168 30.7011 40.731C31.1381 40.9698 31.5681 41.2207 32.0014 41.4658V41.4668Z" fill="white"/>
<defs>
<radialGradient id="paint0_radial_2062_6633" cx="0" cy="0" r="1" gradientUnits="userSpaceOnUse" gradientTransform="translate(32 32) rotate(90) scale(32)">
<stop stop-color="#4338CA" stop-opacity="0"/>
<stop offset="1" stop-color="#4338CA"/>
</radialGradient>
<linearGradient id="paint1_linear_2062_6633" x1="32" y1="0" x2="32" y2="64" gradientUnits="userSpaceOnUse">
<stop stop-color="white" stop-opacity="0.1"/>
<stop offset="1" stop-color="white" stop-opacity="0.2"/>
</linearGradient>
</defs>
</svg>
