<svg width="64" height="64" viewBox="0 0 64 64" fill="none" xmlns="http://www.w3.org/2000/svg">
<mask id="mask0_2062_6842" style="mask-type:luminance" maskUnits="userSpaceOnUse" x="20" y="19" width="25" height="26">
<path d="M44.7423 19.2109H20.2568V44.7877H44.7423V19.2109Z" fill="white"/>
</mask>
<g mask="url(#mask0_2062_6842)">
<g filter="url(#filter0_d_2062_6842)">
<path d="M40.5921 44.7877H20.2568V23.3613H24.9096V40.6352H40.5921V44.7855V44.7877Z" fill="white"/>
<path d="M40.5917 27.5115C42.8837 27.5115 44.7419 25.6533 44.7419 23.3612C44.7419 21.0691 42.8837 19.2109 40.5917 19.2109C38.2993 19.2109 36.4414 21.0691 36.4414 23.3612C36.4414 25.6533 38.2993 27.5115 40.5917 27.5115Z" fill="white"/>
</g>
</g>
<rect x="0.5" y="0.5" width="63" height="63" rx="11.5" fill="url(#paint0_radial_2062_6842)" fill-opacity="0.2" stroke="url(#paint1_linear_2062_6842)"/>
<defs>
<filter id="filter0_d_2062_6842" x="16.2568" y="19.2109" width="32.4849" height="33.5762" filterUnits="userSpaceOnUse" color-interpolation-filters="sRGB">
<feFlood flood-opacity="0" result="BackgroundImageFix"/>
<feColorMatrix in="SourceAlpha" type="matrix" values="0 0 0 0 0 0 0 0 0 0 0 0 0 0 0 0 0 0 127 0" result="hardAlpha"/>
<feOffset dy="4"/>
<feGaussianBlur stdDeviation="2"/>
<feComposite in2="hardAlpha" operator="out"/>
<feColorMatrix type="matrix" values="0 0 0 0 0 0 0 0 0 0 0 0 0 0 0 0 0 0 0.25 0"/>
<feBlend mode="normal" in2="BackgroundImageFix" result="effect1_dropShadow_2062_6842"/>
<feBlend mode="normal" in="SourceGraphic" in2="effect1_dropShadow_2062_6842" result="shape"/>
</filter>
<radialGradient id="paint0_radial_2062_6842" cx="0" cy="0" r="1" gradientUnits="userSpaceOnUse" gradientTransform="translate(32 32) rotate(90) scale(32)">
<stop stop-color="#4338CA" stop-opacity="0"/>
<stop offset="1" stop-color="#4338CA"/>
</radialGradient>
<linearGradient id="paint1_linear_2062_6842" x1="32" y1="0" x2="32" y2="64" gradientUnits="userSpaceOnUse">
<stop stop-color="white" stop-opacity="0.1"/>
<stop offset="1" stop-color="white" stop-opacity="0.2"/>
</linearGradient>
</defs>
</svg>
