<svg width="64" height="64" viewBox="0 0 64 64" fill="none" xmlns="http://www.w3.org/2000/svg">
<path d="M29.3646 25.6212C29.3054 24.9488 29.0006 24.4136 28.4275 24.06C27.2271 23.3196 26.0262 22.5786 24.8044 21.8742C24.1437 21.4932 23.4324 21.4756 22.7535 21.8636C21.5639 22.5436 20.3772 23.2289 19.2005 23.931C18.5381 24.3263 18.1818 24.9267 18.1784 25.7081C18.1722 27.0961 18.1694 28.4841 18.1795 29.8722C18.185 30.6253 18.5143 31.2182 19.1598 31.6133C20.3467 32.3401 21.5298 33.0742 22.7351 33.7697C23.4096 34.1591 24.1326 34.1814 24.8206 33.7736C26.3282 32.8802 27.8231 31.9652 29.3323 31.0742C30.0335 30.6603 30.7531 30.2773 31.4689 29.8884C32.8447 29.1409 34.1785 28.3209 35.5306 27.5326C36.0844 27.2097 36.6325 26.8767 37.1887 26.5582C37.5617 26.3447 37.9701 26.2592 38.3993 26.2847C38.727 26.3041 39.0284 26.406 39.3129 26.5715C41.5318 27.8619 43.7542 29.1466 45.9713 30.4401C46.5492 30.7772 46.8928 31.2872 46.9939 31.9535C46.999 31.9877 46.9982 32.0229 47.0002 32.0575C46.9995 32.1296 46.9981 32.2018 46.9981 32.2739C46.9981 34.8841 46.9981 37.4944 46.9981 40.1047C46.9981 40.1742 46.9994 40.2436 47.0002 40.313C46.9406 40.9786 46.6416 41.5127 46.0742 41.863C45.3836 42.2896 44.6736 42.6845 43.9715 43.0922C42.4148 43.996 40.8576 44.8991 39.3007 45.8028C39.1614 45.8837 39.0123 45.9411 38.8595 45.9904C38.8209 46.0027 38.7817 46.0068 38.7413 46.0066C38.4391 46.006 38.1365 45.9976 37.8348 46.0093C37.6392 46.0169 37.4644 45.9676 37.3001 45.8739C36.8523 45.6185 36.4065 45.3598 35.9607 45.1011C34.1425 44.0463 32.3218 42.9959 30.5085 41.933C29.825 41.5323 29.4649 40.9226 29.4601 40.1222C29.4548 39.2397 29.4593 38.3572 29.458 37.4749C29.458 37.4225 29.4686 37.3892 29.5185 37.3604C30.5342 36.7748 31.5488 36.1868 32.5637 35.5998C32.5838 35.5882 32.6016 35.5697 32.6356 35.5718V35.6572C32.6356 36.4943 32.6337 37.3312 32.6361 38.1683C32.6385 38.9916 32.9928 39.6135 33.7078 40.0283C34.863 40.6985 36.0164 41.3715 37.1715 42.0415C37.4338 42.1935 37.7201 42.2767 38.0197 42.3143C38.4928 42.3734 38.9273 42.2652 39.3349 42.0213C40.4557 41.3507 41.5804 40.6865 42.7009 40.0155C43.2387 39.6936 43.5879 39.2303 43.7139 38.6092C43.7298 38.5305 43.7421 38.4514 43.7429 38.3709C43.7614 38.3219 43.7555 38.2706 43.7556 38.2203C43.7563 36.8292 43.7561 35.4381 43.7556 34.0472C43.7556 33.9996 43.7603 33.9509 43.7423 33.9047C43.6783 33.2082 43.3583 32.6619 42.7555 32.3058C41.5711 31.6061 40.3869 30.9052 39.186 30.2349C38.5025 29.8534 37.7856 29.8401 37.0913 30.2432C33.0097 32.6134 28.9293 34.9857 24.8482 37.3567C24.5932 37.5049 24.316 37.5912 24.0246 37.6291C23.5532 37.6904 23.1146 37.5972 22.7023 37.3574C20.4833 36.0669 18.2606 34.7827 16.0438 33.4887C15.4478 33.1408 15.0953 32.6162 15.0125 31.9222C15.0111 31.9095 15.0043 31.8977 15 31.8853C15 29.1519 15 26.4185 15 23.6853C15.0337 23.5077 15.0603 23.3287 15.1268 23.1584C15.2797 22.7662 15.5312 22.4566 15.8949 22.2433C16.6735 21.7869 17.4543 21.3339 18.2335 20.8783C19.7618 19.9844 21.2889 19.0884 22.8185 18.1965C23.0344 18.0707 23.2637 17.9874 23.525 18.0016C23.789 18.0158 24.0543 18.0091 24.3189 18.0028C24.4459 17.9998 24.5616 18.0266 24.6745 18.0791C24.9612 18.2121 25.2247 18.3859 25.4964 18.5451C27.4981 19.7192 29.5002 20.8932 31.499 22.0723C32.0797 22.4147 32.4332 22.9217 32.5345 23.595C32.5396 23.6291 32.5391 23.6641 32.5412 23.6988C32.5399 23.7227 32.5375 23.7466 32.5375 23.7705C32.5379 24.7476 32.5385 25.7246 32.539 26.7016C32.1493 26.9284 31.76 27.1558 31.37 27.3819C30.7329 27.7515 30.0953 28.1203 29.4578 28.4891C29.4326 28.5037 29.4063 28.5166 29.3805 28.5304C29.3797 28.4957 29.3781 28.461 29.3781 28.4262C29.3781 27.5551 29.3781 26.6838 29.3774 25.8127C29.3774 25.7492 29.3858 25.6845 29.3646 25.622V25.6212Z" fill="white"/>
<rect x="0.5" y="0.5" width="63" height="63" rx="11.5" fill="url(#paint0_radial_2062_6822)" fill-opacity="0.2" stroke="url(#paint1_linear_2062_6822)"/>
<defs>
<radialGradient id="paint0_radial_2062_6822" cx="0" cy="0" r="1" gradientUnits="userSpaceOnUse" gradientTransform="translate(32 32) rotate(90) scale(32)">
<stop stop-color="#4338CA" stop-opacity="0"/>
<stop offset="1" stop-color="#4338CA"/>
</radialGradient>
<linearGradient id="paint1_linear_2062_6822" x1="32" y1="0" x2="32" y2="64" gradientUnits="userSpaceOnUse">
<stop stop-color="white" stop-opacity="0.1"/>
<stop offset="1" stop-color="white" stop-opacity="0.2"/>
</linearGradient>
</defs>
</svg>
