<svg width="64" height="64" viewBox="0 0 64 64" fill="none" xmlns="http://www.w3.org/2000/svg">
<path d="M47.8301 40.076L42.3824 45.6187C42.264 45.7391 42.1207 45.8351 41.9615 45.9007C41.8023 45.9663 41.6305 46.0001 41.457 46H15.6324C15.5092 46 15.3887 45.9658 15.2856 45.9017C15.1826 45.8376 15.1015 45.7464 15.0524 45.6391C15.0033 45.532 14.9883 45.4135 15.0092 45.2983C15.0301 45.183 15.086 45.0761 15.17 44.9907L20.6218 39.448C20.7399 39.3279 20.8827 39.2321 21.0414 39.1665C21.2001 39.1009 21.3714 39.0669 21.5445 39.0667H47.3676C47.4908 39.0667 47.6113 39.1008 47.7144 39.1649C47.8174 39.229 47.8984 39.3203 47.9477 39.4275C47.9967 39.5347 48.0118 39.6532 47.9909 39.7684C47.9699 39.8836 47.9141 39.9905 47.8301 40.076ZM42.3824 28.9147C42.264 28.7943 42.1207 28.6983 41.9615 28.6327C41.8023 28.5671 41.6305 28.5333 41.457 28.5333H15.6324C15.5092 28.5333 15.3887 28.5675 15.2856 28.6316C15.1826 28.6957 15.1015 28.787 15.0524 28.8942C15.0033 29.0014 14.9883 29.1199 15.0092 29.2351C15.0301 29.3503 15.086 29.4572 15.17 29.5427L20.6218 35.0853C20.7399 35.2054 20.8827 35.3012 21.0414 35.3668C21.2001 35.4324 21.3714 35.4664 21.5445 35.4667H47.3676C47.4908 35.4667 47.6113 35.4325 47.7144 35.3684C47.8174 35.3043 47.8984 35.213 47.9477 35.1058C47.9967 34.9986 48.0118 34.8801 47.9909 34.7649C47.9699 34.6497 47.9141 34.5428 47.8301 34.4573L42.3824 28.9147ZM15.6324 24.9333H41.457C41.6305 24.9334 41.8023 24.8996 41.9615 24.834C42.1207 24.7684 42.264 24.6724 42.3824 24.552L47.8301 19.0093C47.9141 18.9239 47.9699 18.817 47.9909 18.7017C48.0118 18.5865 47.9967 18.4681 47.9477 18.3608C47.8984 18.2536 47.8174 18.1624 47.7144 18.0983C47.6113 18.0342 47.4908 18 47.3676 18H21.5445C21.3714 18.0003 21.2001 18.0343 21.0414 18.0999C20.8827 18.1655 20.7399 18.2613 20.6218 18.3813L15.1714 23.924C15.0875 24.0094 15.0316 24.1162 15.0106 24.2312C14.9897 24.3463 15.0046 24.4647 15.0535 24.5719C15.1025 24.679 15.1833 24.7703 15.2862 24.8345C15.389 24.8987 15.5093 24.9331 15.6324 24.9333Z" fill="white"/>
<rect x="0.5" y="0.5" width="63" height="63" rx="11.5" fill="url(#paint0_radial_2062_6883)" fill-opacity="0.2" stroke="url(#paint1_linear_2062_6883)"/>
<defs>
<radialGradient id="paint0_radial_2062_6883" cx="0" cy="0" r="1" gradientUnits="userSpaceOnUse" gradientTransform="translate(32 32) rotate(90) scale(32)">
<stop stop-color="#4338CA" stop-opacity="0"/>
<stop offset="1" stop-color="#4338CA"/>
</radialGradient>
<linearGradient id="paint1_linear_2062_6883" x1="32" y1="0" x2="32" y2="64" gradientUnits="userSpaceOnUse">
<stop stop-color="white" stop-opacity="0.1"/>
<stop offset="1" stop-color="white" stop-opacity="0.2"/>
</linearGradient>
</defs>
</svg>
